<?xml version="1.0" standalone="no"?>
<!DOCTYPE svg PUBLIC "-//W3C//DTD SVG 1.1//EN" "http://www.w3.org/Graphics/SVG/1.1/DTD/svg11.dtd" >
<svg xmlns="http://www.w3.org/2000/svg">
<metadata></metadata>
<defs>
<font id="nobelregular" horiz-adv-x="901" >
<font-face units-per-em="2048" ascent="1638" descent="-410" />
<missing-glyph horiz-adv-x="409" />
<glyph horiz-adv-x="0" />
<glyph horiz-adv-x="682" />
<glyph d="M188 1243h93q0 -78 44 -129t126 -51q80 0 125 51t45 129h92q0 -123 -75 -191.5t-187 -68.5q-113 0 -188 68.5t-75 191.5z" />
<glyph d="M403 991v172h95v-172h-95z" />
<glyph d="M254 1174q0 82 57.5 139t139.5 57t139 -57t57 -139t-57.5 -139.5t-138.5 -57.5q-82 0 -139.5 57.5t-57.5 139.5zM324 1174q0 -53 36.5 -90t90.5 -37q53 0 90 37t37 90t-37 89.5t-90 36.5t-90 -36.5t-37 -89.5z" />
<glyph unicode="&#xa;" d="M180 991l168 266h96l-168 -266h-96zM424 991l168 266h96l-168 -266h-96z" />
<glyph d="M236 -201q0 57 47 117.5t139 108.5h100q-104 -59 -149 -114.5t-45 -103.5q0 -53 32.5 -75.5t94.5 -22.5q72 0 131 49l37 -51q-29 -33 -81.5 -53.5t-97.5 -20.5q-84 0 -146 41t-62 125z" />
<glyph d="M211 1245h100l140 -174l139 174h100l-207 -254h-65z" />
<glyph unicode="&#xd;" horiz-adv-x="409" />
<glyph horiz-adv-x="782" d="M-90 0l866 1495h96l-866 -1495h-96z" />
<glyph horiz-adv-x="765" d="M14 748v73h144v494q0 96 47 138t119 42h69v-78h-63q-41 0 -64.5 -24.5t-23.5 -92.5v-479h151v-73h-151v-748h-84v748h-144zM549 0v821h84v-821h-84zM549 1051v163h84v-163h-84z" />
<glyph horiz-adv-x="765" d="M14 748v73h144v494q0 96 47 138t119 42h69v-78h-63q-41 0 -64.5 -24.5t-23.5 -92.5v-479h151v-73h-151v-748h-84v748h-144zM549 0v1495h84v-1495h-84z" />
<glyph horiz-adv-x="1011" d="M57 633l127 51v811h92v-774l320 129l35 -80l-355 -143v-545h682v-82h-774v590l-90 -37z" />
<glyph horiz-adv-x="452" d="M41 641l143 57v797h84v-762l107 43l35 -80l-142 -57v-639h-84v604l-106 -43z" />
<glyph horiz-adv-x="1284" d="M90 0l930 1413h-823v82h977l-928 -1413h932v-82h-1088zM422 1872h100l140 -174l139 174h100l-207 -254h-65z" />
<glyph horiz-adv-x="856" d="M43 0l594 743h-516v78h678l-596 -743h559v-78h-719zM207 1245h100l140 -174l139 174h100l-207 -254h-65z" />
<glyph unicode=" "  horiz-adv-x="409" />
<glyph unicode="&#x09;" horiz-adv-x="409" />
<glyph unicode="&#xa0;" horiz-adv-x="409" />
<glyph unicode="!" horiz-adv-x="387" d="M147 0v172h93v-172h-93zM147 614v881h93v-881l-21 -350h-51z" />
<glyph unicode="&#x22;" horiz-adv-x="573" d="M123 1317v178h92v-178l-20 -184h-52zM358 1317v178h93v-178l-21 -184h-51z" />
<glyph unicode="#" horiz-adv-x="1200" d="M61 465v74h250l37 424h-287v73h293l41 459h92l-41 -459h357l41 459h92l-41 -459h244v-73h-250l-37 -424h287v-74h-293l-41 -465h-92l41 465h-357l-41 -465h-92l41 465h-244zM403 539h357l37 424h-357z" />
<glyph unicode="$" horiz-adv-x="993" d="M51 186l58 60q59 -63 148 -106.5t181 -49.5v680q-86 39 -150.5 77t-106.5 83t-63.5 99t-21.5 126q0 145 94.5 235.5t247.5 102.5v115h84v-115q94 -4 173 -33.5t159 -95.5l-57 -68q-59 55 -126 82t-149 31v-580q90 -41 164 -82.5t126 -93t81 -116t29 -150.5 q0 -84 -29 -151.5t-82 -117.5t-127 -80t-162 -36v-143h-84v143q-57 4 -113.5 21.5t-107.5 42t-94 55.5t-72 65zM190 1155q0 -53 12.5 -92t42 -72t77 -61.5t116.5 -61.5v541q-123 -10 -185.5 -77.5t-62.5 -176.5zM522 90q145 12 226 88t81 199q0 70 -18 121t-55 91 t-95.5 73.5t-138.5 70.5v-643z" />
<glyph unicode="%" horiz-adv-x="1495" d="M102 1133q0 82 20.5 152.5t58.5 122.5t92.5 82t121.5 30q70 0 124 -31t91 -83t55.5 -120.5t18.5 -146.5q0 -84 -20.5 -155t-58.5 -124t-93 -82.5t-123 -29.5q-55 0 -106.5 23.5t-91 71.5t-64.5 120.5t-25 169.5zM174 0l1022 1495h104l-1021 -1495h-105zM195 1133 q0 -129 49 -216.5t145 -87.5q51 0 89 24t63.5 64.5t38 96.5t12.5 119q0 61 -12.5 117.5t-37 97.5t-61.5 65.5t-86 24.5t-86 -22.5t-62.5 -63.5t-38.5 -97.5t-13 -121.5zM811 360q0 82 20.5 153t58.5 123t92 82t122 30q70 0 124 -31t91 -83t55.5 -120.5t18.5 -146.5 q0 -84 -20.5 -155t-58.5 -124t-93.5 -83t-122.5 -30q-55 0 -106.5 24t-91.5 72t-64.5 120.5t-24.5 168.5zM903 360q0 -129 49 -216t146 -87q51 0 89 23.5t63.5 64.5t37.5 96.5t12 118.5q0 61 -12 118t-36.5 97.5t-61.5 65.5t-86 25t-86 -22.5t-62.5 -63.5t-39 -97.5 t-13.5 -122.5z" />
<glyph unicode="&#x26;" horiz-adv-x="1290" d="M82 371q0 76 25.5 141.5t68.5 122.5t97.5 106.5t111.5 92.5l-100 112q-53 61 -90 129t-37 142q0 63 25.5 118.5t70.5 96.5t104.5 64.5t124.5 23.5q70 0 128.5 -23.5t99.5 -64.5t64.5 -95.5t23.5 -117.5q0 -61 -24.5 -115.5t-64.5 -104t-92.5 -93.5t-107.5 -83l455 -512 q39 41 72.5 81t62.5 79l61 -59q-33 -39 -67.5 -80t-73.5 -82l221 -250h-119l-166 186q-94 -88 -209.5 -149.5t-261.5 -61.5q-86 0 -159.5 31t-128 84t-85 125t-30.5 156zM178 377q0 -63 21.5 -120.5t60.5 -100.5t94.5 -69t122.5 -26q129 0 233.5 54.5t190.5 134.5l-463 522 q-53 -41 -101 -85t-83 -92t-55.5 -102.5t-20.5 -115.5zM252 1223q0 -59 22.5 -110.5t77.5 -113.5l105 -116q49 37 95 74.5t80 78.5t54.5 84t20.5 90q0 104 -60.5 165t-163.5 61q-47 0 -89 -14.5t-73.5 -42t-50 -67.5t-18.5 -89z" />
<glyph unicode="'" horiz-adv-x="337" d="M123 1317v178h92v-178l-20 -184h-52z" />
<glyph unicode="(" horiz-adv-x="600" d="M88 592q0 311 125 558t356 433v-57q-82 -78 -151.5 -182.5t-121.5 -225.5t-82 -255t-30 -271q0 -139 30 -272.5t82 -254t121.5 -225t151.5 -182.5v-57q-231 186 -356 433t-125 558z" />
<glyph unicode=")" horiz-adv-x="600" d="M31 -342q82 78 151.5 182.5t121.5 225t82 254t30 272.5q0 137 -30 271t-82 255t-121.5 225.5t-151.5 182.5v57q231 -186 356 -433t125 -558t-125 -558t-356 -433v57z" />
<glyph unicode="*" horiz-adv-x="804" d="M86 1239l25 70l260 -92l-9 278h74l-8 -278l264 92l25 -70l-266 -80l167 -219l-59 -45l-158 227l-157 -225l-62 41l170 221z" />
<glyph unicode="+" horiz-adv-x="1028" d="M72 635v82h397v383h90v-383h397v-82h-397v-379h-90v379h-397z" />
<glyph unicode="," horiz-adv-x="337" d="M43 -303q47 70 63.5 140.5t16.5 168.5v166h92v-172q0 -100 -34 -175t-81 -128h-57z" />
<glyph unicode="-" horiz-adv-x="675" d="M123 422v82h430v-82h-430z" />
<glyph unicode="." horiz-adv-x="337" d="M123 0v172h92v-172h-92z" />
<glyph unicode="/" horiz-adv-x="761" d="M82 0l506 1495h92l-506 -1495h-92z" />
<glyph unicode="0" horiz-adv-x="1232" d="M80 733q0 162 31.5 305.5t97 250t168 169t244.5 62.5q135 0 235 -64.5t165.5 -170t98.5 -243t33 -280.5q0 -162 -31.5 -305.5t-98.5 -250t-169 -169t-244 -62.5q-135 0 -234.5 64.5t-166 170t-98 242t-31.5 281.5zM176 745q0 -125 25.5 -246.5t79 -219t136.5 -158 t197 -60.5q117 0 201 55.5t138.5 149.5t79 219.5t24.5 264.5q0 125 -24.5 246.5t-77 219t-136.5 158t-201 60.5q-115 0 -198.5 -55.5t-138 -149.5t-80 -219t-25.5 -265z" />
<glyph unicode="1" horiz-adv-x="528" d="M27 1167v82q43 4 85 26.5t79.5 56.5t66.5 76t43 87h80v-1495h-92v1319q-39 -57 -113 -99t-149 -53z" />
<glyph unicode="2" horiz-adv-x="1054" d="M45 0l657 780q70 84 114 159t44 161q0 70 -24.5 130t-69.5 105t-106.5 72t-135.5 27q-147 0 -243.5 -84t-114.5 -222h-94q10 86 49 158t99.5 124t137 81t162.5 29q92 0 172 -32t139.5 -87t93 -131t33.5 -164q0 -109 -55 -200t-133 -183l-534 -633h731v-90h-922z" />
<glyph unicode="3" horiz-adv-x="1122" d="M37 219l69 55q82 -98 191 -155.5t250 -57.5q82 0 152.5 24t122.5 68t81 109.5t29 151.5q0 160 -106.5 254t-323.5 94h-115v82h111q176 0 275 80t99 225q0 63 -24.5 116.5t-68.5 90.5t-102.5 57.5t-125.5 20.5q-127 0 -218 -51.5t-145 -129.5l-75 47q80 106 191.5 163 t252.5 57q82 0 156.5 -26t131 -73t90.5 -113.5t34 -146.5q0 -133 -66.5 -222t-183.5 -132q135 -35 222 -134.5t87 -246.5q0 -102 -33.5 -185t-96 -142.5t-152 -91.5t-201.5 -32q-84 0 -159 19.5t-140.5 52.5t-118.5 77t-90 95z" />
<glyph unicode="4" horiz-adv-x="1103" d="M43 401v66l725 1028h55v-1012h240v-82h-240v-401h-92v401h-688zM158 483h573v815z" />
<glyph unicode="5" horiz-adv-x="1181" d="M86 186l68 58q78 -84 179 -133.5t224 -49.5q96 0 174 35t132.5 95.5t83 139.5t28.5 169q0 106 -32 189t-86 138.5t-128 84t-158 28.5q-125 0 -211 -63.5t-139 -163.5l-71 41l43 741h770v-82h-682l-33 -530q59 61 141 102t193 41q102 0 191 -36t155.5 -103.5t104.5 -162.5 t38 -212q0 -109 -36 -206t-102.5 -171t-162.5 -117t-217 -43q-139 0 -262 60.5t-205 150.5z" />
<glyph unicode="6" horiz-adv-x="1159" d="M82 473q0 156 46 301.5t120 275.5t165 241.5t181 203.5h117q-78 -72 -151 -157t-135.5 -174t-109.5 -177t-73 -164q53 72 148 116t204 44q104 0 193.5 -35t154 -98.5t101 -151.5t36.5 -192q0 -121 -39 -218.5t-107.5 -167t-160.5 -107.5t-199 -38q-106 0 -196 34 t-155.5 98.5t-102.5 156.5t-37 209zM178 487q0 -102 30 -180t83 -131t127 -80.5t162 -27.5q90 0 163.5 32.5t127 90t83 135.5t29.5 168q0 197 -111.5 300t-289.5 103q-80 0 -153 -31.5t-129 -87t-89 -130.5t-33 -161z" />
<glyph unicode="7" horiz-adv-x="1034" d="M84 1411v84h885l-733 -1495h-103l696 1411h-745z" />
<glyph unicode="8" horiz-adv-x="1232" d="M78 410q0 66 24.5 128t67.5 114.5t102.5 91t128.5 55.5q-47 14 -91 48t-77.5 79t-53 98t-19.5 111q0 90 34.5 161.5t96 120.5t144.5 76t181 27t181.5 -27t145 -76t96 -118.5t34.5 -155.5q0 -59 -20.5 -114.5t-54 -101.5t-79 -79t-94.5 -47q145 -35 237.5 -135t92.5 -254 q0 -100 -43 -181t-116.5 -137.5t-172 -87.5t-209.5 -31t-208 30t-170.5 86t-115.5 136t-42 183zM174 418q0 -94 37 -162t98.5 -111t141 -63.5t163.5 -20.5q82 0 162 21.5t143.5 64.5t101.5 106.5t38 147.5q0 164 -111.5 259.5t-331.5 95.5q-92 0 -173 -23.5t-141 -66.5 t-94 -105.5t-34 -142.5zM256 1141q0 -137 92 -220t268 -83t268.5 82t92.5 215q0 147 -99.5 224t-261.5 77t-261 -77t-99 -218z" />
<glyph unicode="9" horiz-adv-x="1159" d="M63 991q0 119 38 217.5t105.5 167t159 106.5t197.5 38t197.5 -37t158 -104.5t104.5 -162.5t38 -212q0 -166 -48 -317.5t-123 -284t-165 -244t-174 -197.5l-70 68q137 123 247 281.5t171 312.5q-66 -74 -154 -110t-196 -36q-104 0 -193.5 39t-154 108.5t-101.5 164 t-37 202.5zM160 1004q0 -94 26.5 -174t76.5 -138.5t125 -91.5t173 -33q88 0 162 28t127 81t84 133t31 182q0 109 -31 191t-85 137t-128 83t-162 28q-90 0 -163.5 -33t-126 -89.5t-81 -134t-28.5 -169.5z" />
<glyph unicode=":" horiz-adv-x="337" d="M123 0v172h92v-172h-92zM123 698v172h92v-172h-92z" />
<glyph unicode=";" horiz-adv-x="337" d="M43 -303q47 70 63.5 140.5t16.5 168.5v166h92v-172q0 -100 -34 -175t-81 -128h-57zM123 698v172h92v-172h-92z" />
<glyph unicode="&#x3c;" horiz-adv-x="716" d="M78 621v88l555 407v-104l-479 -346l479 -349v-108z" />
<glyph unicode="=" horiz-adv-x="987" d="M133 487v82h721v-82h-721zM133 795v82h721v-82h-721z" />
<glyph unicode="&#x3e;" horiz-adv-x="716" d="M84 209v104l479 346l-479 349v108l555 -411v-89z" />
<glyph unicode="?" horiz-adv-x="894" d="M68 1311q55 106 147 157.5t205 51.5q82 0 151.5 -27t119.5 -75t79 -112.5t29 -138.5q0 -59 -16.5 -113.5t-42 -105.5t-59.5 -99t-67 -95q-63 -86 -112 -189.5t-49 -204.5v-92h-93v82q0 68 16.5 128.5t42 116.5t58.5 108.5t68 101.5q61 90 109 174t48 176 q0 57 -21.5 108.5t-60 89.5t-90 59.5t-110.5 21.5q-94 0 -167 -45.5t-116 -131.5zM360 0v172h93v-172h-93z" />
<glyph unicode="@" horiz-adv-x="1728" d="M92 748q0 160 60.5 300t166 245.5t246 166t299.5 60.5q174 0 317.5 -55.5t244 -153t155.5 -226.5t55 -276q0 -121 -32.5 -210t-85 -147.5t-116 -87t-124.5 -28.5q-63 0 -108.5 32.5t-55.5 86.5q-53 -47 -130 -83t-175 -36q-61 0 -114.5 16.5t-93.5 49t-63.5 80.5 t-23.5 112q0 141 112.5 214t317.5 73h168v67q0 57 -20.5 93t-53 55.5t-74.5 25.5t-85 6q-150 0 -248 -59l-35 70q57 33 127 50t156 17q166 0 241.5 -68.5t75.5 -181.5v-446q0 -53 26.5 -76.5t73.5 -23.5q45 0 92.5 25.5t86 74.5t64.5 124t26 173q0 125 -47.5 240.5 t-136.5 204.5t-220 142.5t-297 53.5q-145 0 -273 -55.5t-223.5 -150.5t-150.5 -223t-55 -274q0 -141 55 -268t151.5 -223t223.5 -153.5t272 -57.5q61 0 132 12.5t151 48.5l29 -61q-86 -39 -163 -53.5t-149 -14.5q-160 0 -300 60.5t-245.5 166t-166 246t-60.5 300.5zM602 598 q0 -86 60.5 -135t146.5 -49q92 0 171 39t132 86v268h-160q-168 0 -259 -49t-91 -160z" />
<glyph unicode="A" horiz-adv-x="1282" d="M61 0l555 1520h52l553 -1520h-99l-204 573h-553l-205 -573h-99zM393 655h496l-248 695z" />
<glyph unicode="B" horiz-adv-x="1193" d="M164 0v1495h348q102 0 188 -22.5t148.5 -68.5t97.5 -114.5t35 -159.5q0 -127 -70.5 -214t-187.5 -123q51 -4 117.5 -26t126 -66t99.5 -114.5t40 -172.5q0 -113 -42 -192t-113.5 -128t-165 -71.5t-195.5 -22.5h-426zM256 82h334q82 0 157.5 17.5t134 57.5t93.5 103.5 t35 153.5q0 88 -40 151.5t-103.5 102.5t-141.5 57t-154 18h-315v-661zM256 827h272q68 0 132.5 18.5t113.5 55.5t80 94t31 135q0 141 -98.5 212t-274.5 71h-256v-586z" />
<glyph unicode="C" horiz-adv-x="1462" d="M92 748q0 154 55.5 293t152.5 245.5t229.5 170t285.5 63.5q166 0 305.5 -62.5t227.5 -173.5l-66 -59q-86 98 -201.5 153.5t-267.5 55.5q-137 0 -252 -56.5t-197.5 -150.5t-129 -217t-46.5 -256q0 -147 48.5 -273.5t132.5 -219.5t199.5 -146.5t250.5 -53.5 q86 0 154.5 16.5t128 47.5t111 74t100.5 96l63 -55q-39 -47 -93 -93.5t-122.5 -85t-154.5 -62.5t-191 -24q-152 0 -283 59.5t-229 163t-154.5 245t-56.5 305.5z" />
<glyph unicode="D" horiz-adv-x="1339" d="M164 0v1495h307q162 0 303 -47t246.5 -139t166 -229.5t60.5 -317.5q0 -178 -60.5 -319.5t-164.5 -240t-246.5 -150.5t-304.5 -52h-307zM256 82h240q139 0 258.5 48t208 137t138.5 215t50 280t-50 274.5t-138.5 204.5t-208 128t-258.5 44h-240v-1331z" />
<glyph unicode="E" horiz-adv-x="1062" d="M164 0v1495h756v-82h-664v-584h598v-81h-598v-666h702v-82h-794z" />
<glyph unicode="F" horiz-adv-x="913" d="M164 0v1495h667v-82h-575v-592h520v-82h-520v-739h-92z" />
<glyph unicode="G" horiz-adv-x="1650" d="M92 743q0 164 61.5 305.5t168 246t250 165t307.5 60.5q174 0 310 -61.5t236 -172.5l-61 -63q-55 59 -109.5 99t-114 64.5t-125 36t-143.5 11.5q-145 0 -270 -53.5t-217 -146.5t-144.5 -219t-52.5 -272q0 -156 53.5 -281.5t145.5 -214.5t218 -137.5t274 -48.5 q109 0 208 34t179 95.5t135 145.5t76 182h-535v84h635q-6 -127 -62.5 -240.5t-150.5 -199.5t-218 -136.5t-267 -50.5q-166 0 -309.5 56.5t-250 158t-167 242.5t-60.5 311z" />
<glyph unicode="H" horiz-adv-x="1380" d="M164 0v1495h92v-672h868v672h93v-1495h-93v741h-868v-741h-92z" />
<glyph unicode="I" horiz-adv-x="419" d="M164 0v1495h92v-1495h-92z" />
<glyph unicode="J" horiz-adv-x="692" d="M53 -12v82h107q59 0 111.5 27.5t91 73.5t61 108.5t22.5 130.5v1085h93v-1067q0 -109 -35 -190.5t-90.5 -137t-125 -84t-141.5 -28.5h-94z" />
<glyph unicode="K" horiz-adv-x="1126" d="M164 0v1495h92v-696l639 696h111l-590 -641l651 -854h-113l-600 786l-98 -106v-680h-92z" />
<glyph unicode="L" horiz-adv-x="991" d="M164 0v1495h92v-1413h682v-82h-774z" />
<glyph unicode="M" horiz-adv-x="1595" d="M164 0v1495h110l525 -815l520 815h113v-1495h-93v1364l-512 -795h-61l-510 791v-1360h-92z" />
<glyph unicode="N" horiz-adv-x="1492" d="M164 0v1495h115l962 -1370q-2 14 -2 33q-2 16 -2 35.5v42.5v1259h92v-1495h-106l-971 1376q0 -14 2 -33q0 -16 1 -35.5t1 -41.5v-1266h-92z" />
<glyph unicode="O" horiz-adv-x="1658" d="M92 748q0 164 57.5 305t157 244.5t234.5 163t290 59.5q156 0 290 -59.5t233.5 -163t156 -243.5t56.5 -304t-56.5 -305.5t-156 -246t-233.5 -164t-290 -59.5t-290.5 59.5t-234 163t-157 245t-57.5 305.5zM188 748q0 -145 49.5 -271.5t136.5 -218.5t204.5 -144.5 t252.5 -52.5t252 52.5t203 144.5t135 218.5t49 271.5t-48 271t-134 218t-202.5 144.5t-254.5 52.5q-135 0 -252.5 -52.5t-204.5 -144.5t-136.5 -218t-49.5 -271z" />
<glyph unicode="P" horiz-adv-x="1071" d="M164 0v1495h328q125 0 218 -30.5t155.5 -84t93 -128t30.5 -162.5q0 -96 -32.5 -177.5t-95 -139.5t-156 -90t-213.5 -32h-236v-651h-92zM256 733h256q102 0 175 27.5t119 75t66.5 110.5t20.5 135q0 156 -99.5 244t-318.5 88h-219v-680z" />
<glyph unicode="Q" horiz-adv-x="1658" d="M92 748q0 164 57.5 305t157 244.5t234.5 163t290 59.5q156 0 290 -59.5t233.5 -163t156 -243.5t56.5 -304q0 -195 -78 -356t-211 -265q47 -33 92 -55.5t80 -28.5l-78 -76q-41 16 -86 43t-88 62q-80 -47 -172 -73t-195 -26q-156 0 -290.5 59.5t-234 163t-157 245 t-57.5 305.5zM188 748q0 -145 49.5 -271.5t136.5 -218.5t204.5 -144.5t252.5 -52.5q82 0 158 19.5t141 54.5q-74 72 -106 129l66 45q16 -29 45.5 -60.5t68.5 -64.5q123 92 194.5 238t71.5 326q0 145 -48 271t-134 218t-202.5 144.5t-254.5 52.5q-135 0 -252.5 -52.5 t-204.5 -144.5t-136.5 -218t-49.5 -271z" />
<glyph unicode="R" horiz-adv-x="1110" d="M164 0v1495h366q94 0 180.5 -27.5t152 -81t103.5 -130t38 -175.5q0 -102 -40 -182t-108 -134t-158 -83t-190 -29h-72l580 -653h-119l-641 717v-717h-92zM256 735h252q80 0 151.5 20.5t127 62.5t88 107.5t32.5 155.5q0 84 -30.5 146.5t-83 103.5t-121 61.5t-142.5 20.5 h-274v-678z" />
<glyph unicode="S" horiz-adv-x="987" d="M92 131l60 66q70 -61 152.5 -98.5t180.5 -37.5q63 0 123 20.5t104 59.5t70.5 92.5t26.5 118.5q0 80 -29.5 138.5t-79 103.5t-112 80t-125.5 69q-66 35 -129.5 72t-112.5 85t-78.5 111.5t-29.5 149.5q0 82 30.5 148.5t81.5 112.5t119 72t141 26q117 0 209 -36t170 -126 l-69 -60q-70 80 -141.5 108t-168.5 28q-53 0 -103 -17.5t-89 -52.5t-61.5 -86t-22.5 -117q0 -70 27.5 -122t73.5 -92t105.5 -73.5t123.5 -66.5q68 -35 133 -74t117.5 -91t84 -122t31.5 -164q0 -84 -34.5 -153.5t-93 -120.5t-134.5 -79t-158 -28q-109 0 -212 41t-181 115z " />
<glyph unicode="T" horiz-adv-x="974" d="M61 1413v82h852v-82h-378v-1413h-93v1413h-381z" />
<glyph unicode="U" horiz-adv-x="1374" d="M154 543v952h92v-952q0 -102 34.5 -190.5t94 -153t139.5 -101.5t172 -37t172 37t140.5 101.5t95 152.5t34.5 191v952h93v-952q0 -129 -42 -233.5t-114 -178.5t-170 -115t-209 -41t-208 41t-169.5 115t-113.5 178.5t-41 233.5z" />
<glyph unicode="V" horiz-adv-x="1345" d="M61 1495h99l493 -1264q4 -10 7.5 -20t7.5 -21q4 -10 6 -22q2 12 6 22t6 19.5t6 19.5l500 1266h92l-614 -1554z" />
<glyph unicode="W" horiz-adv-x="1900" d="M61 1495h99l385 -1262q4 -18 10 -36q4 -8 6 -19q2 10 4 19q2 8 3 16t5 16l349 1266h65l352 -1266q2 -8 4.5 -16t4.5 -16t4 -19q2 10 6 19q4 8 5 17t5 19l375 1262h96l-455 -1495h-69l-346 1241q-4 8 -5 18.5t-3 20.5t-5 23q-2 -12 -4 -23q-2 -10 -4 -19.5t-4 -17.5 l-348 -1243h-70z" />
<glyph unicode="X" horiz-adv-x="1386" d="M61 0l582 813l-483 682h106l430 -604l432 604h101l-479 -682l575 -813h-111l-518 739l-526 -739h-109z" />
<glyph unicode="Y" horiz-adv-x="1286" d="M57 1495h107l481 -696l479 696h105l-543 -782v-713h-92v715z" />
<glyph unicode="Z" horiz-adv-x="1284" d="M90 0l930 1413h-823v82h977l-928 -1413h932v-82h-1088z" />
<glyph unicode="[" horiz-adv-x="522" d="M154 -367v1862h307v-76h-219v-1710h219v-76h-307z" />
<glyph unicode="\" horiz-adv-x="761" d="M82 1495h92l506 -1495h-92z" />
<glyph unicode="]" horiz-adv-x="522" d="M61 -291h220v1710h-220v76h308v-1862h-308v76z" />
<glyph unicode="^" horiz-adv-x="989" d="M76 756l370 739h89l366 -739h-98l-314 639l-311 -639h-102z" />
<glyph unicode="_" horiz-adv-x="1024" d="M0 -129h1024v-82h-1024v82z" />
<glyph unicode="`" d="M313 1257h97l168 -266h-97z" />
<glyph unicode="a" horiz-adv-x="872" d="M72 233q0 145 112.5 216t317.5 71h168v68q0 57 -20.5 93t-53.5 55.5t-75 25.5t-85 6q-150 0 -248 -59l-34 69q57 33 126.5 50.5t155.5 17.5q166 0 242 -68.5t76 -181.5v-596h-84v94q-53 -47 -129 -83t-174 -36q-61 0 -114.5 16.5t-93.5 49.5t-63.5 81t-23.5 111zM160 233 q0 -86 60.5 -133t146.5 -47q92 0 170.5 39t132.5 86v268h-160q-168 0 -259 -49t-91 -164z" />
<glyph unicode="b" horiz-adv-x="995" d="M133 0v1495h84v-844q16 37 47 73t72 62.5t90 43t104 16.5q88 0 161 -30t125 -85t82 -136t30 -185q0 -86 -28 -164t-79 -138.5t-125.5 -96.5t-167.5 -36q-55 0 -104 16.5t-89 43t-71 62.5t-47 73v-170h-84zM217 414q0 -76 23.5 -141.5t65.5 -114.5t100.5 -77t128.5 -28 q74 0 131 30t96 79t58.5 113.5t19.5 132.5q0 166 -81 263t-235 97q-68 0 -124 -29.5t-97 -80t-63.5 -114t-22.5 -130.5z" />
<glyph unicode="c" horiz-adv-x="876" d="M68 414q0 90 30.5 169t85 137t128 92t157.5 34q68 0 121 -14.5t94 -37t72.5 -51t54.5 -55.5l-68 -53q-49 61 -112.5 97t-149.5 36q-72 0 -132 -27.5t-103 -76t-66.5 -112t-23.5 -134.5q0 -74 23.5 -140.5t65.5 -116.5t99 -79t125 -29q98 0 168 45t123 123l65 -43 q-55 -86 -143 -144.5t-207 -58.5q-88 0 -162.5 34t-129 93.5t-85 139.5t-30.5 172z" />
<glyph unicode="d" horiz-adv-x="995" d="M68 406q0 104 31.5 185t87 138t129 87t155.5 30q53 0 101.5 -16.5t88 -43t70.5 -62.5t47 -73v844h84v-1495h-84v170q-16 -37 -49 -73t-76 -62.5t-94 -43t-106 -16.5q-90 0 -162 35t-121 94.5t-75.5 137t-26.5 164.5zM156 412q0 -72 19.5 -136.5t57 -113.5t94 -79 t132.5 -30q70 0 128 28t101 77t66.5 114.5t23.5 141.5q0 68 -22.5 131t-64.5 113.5t-100.5 80t-127.5 29.5q-139 0 -223 -95t-84 -261z" />
<glyph unicode="e" horiz-adv-x="909" d="M68 424q0 80 24.5 155.5t74.5 135t126 95.5t178 36q98 0 169 -37t117 -96.5t68.5 -135t26.5 -155.5h-696q0 -78 22.5 -145.5t64.5 -116.5t103.5 -78t140.5 -29q92 0 161 32t126 91l60 -51q-23 -27 -56 -53.5t-77 -48t-98 -35t-120 -13.5q-104 0 -183 37t-130 99.5 t-76.5 143.5t-25.5 169zM160 496h590q-4 47 -22.5 96t-54.5 88t-87 63.5t-119 24.5q-72 0 -126 -21.5t-91 -59.5t-59.5 -87t-30.5 -104z" />
<glyph unicode="f" horiz-adv-x="415" d="M14 748v73h144v494q0 96 47 138t119 42h69v-78h-63q-41 0 -64.5 -24.5t-23.5 -92.5v-479h151v-73h-151v-748h-84v748h-144z" />
<glyph unicode="g" horiz-adv-x="995" d="M68 412q0 86 27.5 163.5t78.5 138t126 96.5t167 36q55 0 104.5 -16.5t89 -43t70.5 -62.5t47 -73v170h84v-815q0 -94 -30.5 -168t-85 -125t-126 -77.5t-153.5 -26.5q-100 0 -193.5 37t-162.5 108l59 53q53 -59 132 -89.5t169 -30.5q61 0 117.5 20.5t98.5 60t66.5 98 t24.5 134.5v170q-16 -37 -47 -73t-72 -62.5t-90 -43t-104 -16.5q-88 0 -161 30t-125 85t-81.5 136t-29.5 186zM156 414q0 -166 80.5 -263.5t234.5 -97.5q68 0 124 30t97 80t63.5 113.5t22.5 131.5q0 76 -23.5 141t-65.5 114.5t-100.5 77t-127.5 27.5q-74 0 -131.5 -29.5 t-96 -79t-58 -114t-19.5 -131.5z" />
<glyph unicode="h" horiz-adv-x="917" d="M133 0v1495h84v-809q39 72 111.5 116t165.5 44q72 0 129 -22.5t96 -61.5t59.5 -92.5t20.5 -114.5v-555h-84v543q0 98 -58.5 163.5t-167.5 65.5q-61 0 -111 -24.5t-86 -62.5t-55.5 -86t-19.5 -95v-504h-84z" />
<glyph unicode="i" horiz-adv-x="350" d="M133 0v821h84v-821h-84zM133 1051v163h84v-163h-84z" />
<glyph unicode="j" horiz-adv-x="350" d="M-25 -301q16 -6 39 -9t45 -3q33 0 53.5 15t20.5 52v1067h84v-1089q0 -57 -38 -87t-97 -30q-53 0 -90 10zM133 1051v163h84v-163h-84z" />
<glyph unicode="k" horiz-adv-x="843" d="M133 0v1495h84v-1077l426 403h119l-381 -354l428 -467h-115l-372 412l-105 -99v-313h-84z" />
<glyph unicode="l" horiz-adv-x="350" d="M133 0v1495h84v-1495h-84z" />
<glyph unicode="m" horiz-adv-x="1429" d="M133 0v821h84v-135q37 72 110.5 116t166.5 44q106 0 167.5 -46t83.5 -120q43 72 123 119t172 47q135 0 203 -84t68 -207v-555h-84v543q0 98 -47 163.5t-140 65.5q-57 0 -107 -22.5t-88 -59.5t-59.5 -85t-21.5 -99v-506h-84v543q0 98 -42 163.5t-144 65.5 q-57 0 -107.5 -22.5t-88.5 -60.5t-59.5 -86t-21.5 -99v-504h-84z" />
<glyph unicode="n" horiz-adv-x="917" d="M133 0v821h84v-135q39 72 111.5 116t165.5 44q72 0 129 -22.5t96 -61.5t59.5 -92.5t20.5 -114.5v-555h-84v543q0 98 -58.5 163.5t-167.5 65.5q-61 0 -111 -24.5t-86 -62.5t-55.5 -86t-19.5 -95v-504h-84z" />
<glyph unicode="o" horiz-adv-x="1003" d="M68 412q0 96 33.5 176t93 137t138.5 89t169 32t169 -32t138 -89t93 -137t34 -176t-34 -176t-93 -138.5t-138 -90.5t-169 -32t-169 32t-138.5 90.5t-93 138t-33.5 176.5zM156 412q0 -78 26.5 -143.5t72.5 -114t109.5 -75t137.5 -26.5t137 26.5t109.5 75t73 114t26.5 143.5 t-26.5 143.5t-73 112.5t-110 73.5t-136.5 26.5q-74 0 -137.5 -26.5t-109.5 -73.5t-72.5 -113t-26.5 -143z" />
<glyph unicode="p" horiz-adv-x="995" d="M133 -367v1188h84v-170q16 37 49 73t76 62.5t94 43t107 16.5q90 0 161.5 -35t120.5 -94.5t76 -137t27 -163.5q0 -104 -32 -185t-87 -138.5t-129 -87.5t-156 -30q-53 0 -102 16.5t-89 43t-70 62.5t-46 73v-537h-84zM217 408q0 -68 22.5 -131.5t64.5 -113.5t99.5 -80 t128.5 -30q139 0 223.5 95.5t84.5 261.5q0 72 -19.5 136t-57.5 113.5t-94.5 79t-131.5 29.5q-70 0 -128.5 -27.5t-101.5 -77t-66.5 -115t-23.5 -140.5z" />
<glyph unicode="q" horiz-adv-x="995" d="M68 412q0 86 27.5 163.5t78.5 138t126 96.5t167 36q55 0 104.5 -16.5t89 -43t70.5 -62.5t47 -73v170h84v-1188h-84v537q-16 -37 -47 -73t-72 -62.5t-90 -43t-104 -16.5q-88 0 -161 30t-125 85t-81.5 136t-29.5 186zM156 414q0 -166 80.5 -263.5t234.5 -97.5q68 0 124 30 t97 80t63.5 113.5t22.5 131.5q0 76 -23.5 141t-65.5 114.5t-100.5 77t-127.5 27.5q-74 0 -131.5 -29.5t-96 -79t-58 -114t-19.5 -131.5z" />
<glyph unicode="r" horiz-adv-x="616" d="M133 0v821h84v-123q29 59 84 103.5t131 44.5q49 0 87 -13.5t75 -48.5l-49 -63q-27 25 -54.5 38t-66.5 13q-41 0 -78 -24.5t-65.5 -63.5t-46 -88t-17.5 -96v-500h-84z" />
<glyph unicode="s" horiz-adv-x="733" d="M82 68l51 65q45 -35 107.5 -57.5t126.5 -22.5q37 0 72.5 12.5t63 34t45 50t17.5 63.5q0 43 -18.5 72.5t-50 49t-73.5 34t-89 26.5q-45 12 -88 29.5t-77 45.5t-54.5 66.5t-20.5 94.5q0 53 23.5 93t62.5 67.5t85 41t93 13.5q76 0 140.5 -21.5t126.5 -68.5l-50 -62 q-51 39 -103 57.5t-118 18.5q-31 0 -62.5 -9t-56 -25.5t-40 -42t-15.5 -58.5q0 -72 53.5 -104.5t145.5 -59.5q49 -14 98 -31.5t88 -45t63.5 -71.5t24.5 -110q0 -53 -25.5 -97t-65.5 -75t-92 -48.5t-103 -17.5q-78 0 -157 26t-128 67z" />
<glyph unicode="t" horiz-adv-x="462" d="M20 748v73h130v385h83v-385h158v-73h-158v-576q0 -35 27 -66.5t82 -31.5h51v-74h-59q-86 0 -135 49t-49 125v574h-130z" />
<glyph unicode="u" horiz-adv-x="917" d="M119 266v555h84v-542q0 -98 58 -164t167 -66q61 0 111.5 24.5t86.5 62.5t55 86t19 95v504h84v-821h-84v135q-39 -72 -111.5 -116t-164.5 -44q-72 0 -129 22.5t-96 61.5t-59.5 92.5t-20.5 114.5z" />
<glyph unicode="v" horiz-adv-x="825" d="M35 821h90l289 -674l293 674h84l-377 -868z" />
<glyph unicode="w" horiz-adv-x="1284" d="M35 821h90l262 -651l258 651l264 -645l252 645h88l-342 -868l-262 653l-260 -653z" />
<glyph unicode="x" horiz-adv-x="829" d="M41 0l324 446l-275 375h98l226 -309l223 309h98l-270 -372l323 -449h-102l-272 379l-277 -379h-96z" />
<glyph unicode="y" horiz-adv-x="811" d="M35 821h90l293 -706l274 706h84l-409 -1040q-29 -74 -79 -121t-122 -47t-121 25v81q25 -16 48.5 -23t51.5 -7q59 0 95 41t59 96l72 178z" />
<glyph unicode="z" horiz-adv-x="856" d="M43 0l594 743h-516v78h678l-596 -743h559v-78h-719z" />
<glyph unicode="{" horiz-adv-x="532" d="M51 537v94q49 0 78 31.5t43 82t18.5 114t4.5 128.5q0 113 10 195t42 144.5t90 111.5t157 96v-78q-61 -43 -101.5 -80t-64 -85t-32.5 -112.5t-9 -162.5q0 -80 -3 -147.5t-17.5 -122t-44 -95.5t-83.5 -67q53 -27 83 -68t44.5 -95t17.5 -122t3 -147q0 -98 9 -163t32.5 -113 t63.5 -85t102 -80v-78q-98 47 -156.5 96.5t-90.5 112t-42 144.5t-10 194q0 63 -4.5 128t-18.5 115t-43 82t-78 32z" />
<glyph unicode="|" horiz-adv-x="415" d="M164 -367v1862h88v-1862h-88z" />
<glyph unicode="}" horiz-adv-x="532" d="M39 -289q61 43 101 80t63.5 85t33 112.5t9.5 163.5q0 80 3 147.5t17.5 121.5t44 95t82.5 68q-53 27 -82.5 67.5t-44 95t-17.5 122t-3 147.5q0 98 -9.5 162.5t-33 112.5t-63.5 85t-101 80v78q98 -47 156.5 -96t90 -111.5t42 -144.5t10.5 -195q0 -66 4 -129t18.5 -113.5 t43 -82t77.5 -31.5v-94q-49 0 -77.5 -32t-43 -82t-18.5 -114.5t-4 -128.5q0 -113 -10.5 -194.5t-42 -144t-90 -111.5t-156.5 -97v78z" />
<glyph unicode="~" d="M102 635q2 35 12.5 78t32 79.5t57.5 61.5t89 25q41 0 87 -28t87 -58q41 -31 77 -55.5t62 -24.5q41 0 71 40t34 121h88q-2 -35 -11.5 -77.5t-31 -79.5t-57 -61.5t-91.5 -24.5q-43 0 -89 27.5t-89 62.5q-39 29 -72.5 52.5t-62.5 23.5q-41 0 -70.5 -38t-34.5 -124h-88z" />
<glyph unicode="&#xa1;" horiz-adv-x="387" d="M147 0v881l21 350h51l21 -350v-881h-93zM147 1323v172h93v-172h-93z" />
<glyph unicode="&#xa2;" d="M68 414q0 86 28.5 161.5t77.5 133t116.5 93.5t145.5 42v170h82v-170q111 -10 181.5 -57.5t111.5 -98.5l-68 -53q-43 55 -98 89t-127 42v-709q78 10 136.5 53.5t105.5 110.5l65 -43q-51 -78 -126.5 -134t-180.5 -67v-139h-82v139q-80 8 -147.5 44t-116.5 94.5t-76.5 135.5 t-27.5 163zM156 418q0 -70 20.5 -132.5t58 -111.5t89 -81t112.5 -38v711q-63 -8 -114.5 -39t-88 -78t-57 -106.5t-20.5 -124.5z" />
<glyph unicode="&#xa3;" horiz-adv-x="1073" d="M96 113q0 68 47 112.5t152 44.5q53 0 96 -14t82 -37q18 51 19 109q0 57 -13 110h-307v74h287q-10 27 -21.5 51.5t-25.5 46.5h-240v74h193q-37 51 -75 99t-70 100.5t-51 111t-19 129.5q0 94 30.5 167t83.5 124t128 78t165 27q94 0 167 -34t124 -85t78.5 -112.5 t34.5 -119.5h-97q-27 129 -109.5 197t-203.5 68q-145 0 -225 -82t-80 -219q0 -72 22.5 -130.5t56 -110.5t73.5 -102.5t77 -105.5h295v-74h-252q23 -41 39 -98h213v-74h-199q6 -37 7 -80q0 -111 -31 -186q59 -43 113.5 -79t119.5 -36q41 0 67.5 18.5t42 49.5t23 71t7.5 85h86 q-4 -152 -59.5 -229t-172.5 -77q-80 0 -142.5 41t-121.5 86q-43 -63 -106.5 -95t-137.5 -32q-31 0 -60.5 10.5t-54 29t-40 43t-15.5 55.5zM182 121q0 -35 27 -53.5t70 -18.5q51 0 91.5 28t69.5 73q-35 23 -71.5 35t-79.5 12q-51 0 -79 -20.5t-28 -55.5z" />
<glyph unicode="&#xa4;" horiz-adv-x="1495" d="M0 662v172h86v-172h-86zM662 0v86h172v-86h-172zM662 662v172h172v-172h-172zM662 1409v86h172v-86h-172zM1409 662v172h86v-172h-86z" />
<glyph unicode="&#xa5;" horiz-adv-x="1286" d="M57 1495h107l481 -696l479 696h105l-543 -782v-160h375v-76h-375v-162h375v-75h-375v-240h-92v240h-410v75h410v162h-410v76h410v162z" />
<glyph unicode="&#xa6;" horiz-adv-x="1495" d="M0 662v172h86v-172h-86zM662 0v86h172v-86h-172zM662 662v172h172v-172h-172zM662 1409v86h172v-86h-172zM1409 662v172h86v-172h-86z" />
<glyph unicode="&#xa7;" horiz-adv-x="1288" d="M61 647q0 61 19.5 119.5t54.5 108t81 87t101 62.5q-45 35 -71.5 79t-26.5 101q0 68 28.5 125t83 100.5t132.5 67t176 23.5q63 0 127.5 -14.5t120 -37t99.5 -51t69 -55.5l-62 -66q-27 31 -68.5 56.5t-91 43t-101.5 28t-97 10.5q-84 0 -144.5 -18.5t-99.5 -49.5t-57.5 -70 t-18.5 -79q0 -51 27 -87t79 -66t128 -57.5t174 -62.5q88 -33 177 -70.5t158.5 -91t114 -127.5t44.5 -174q0 -61 -19.5 -119.5t-54.5 -107.5t-81 -87t-101 -63q45 -35 71.5 -78.5t26.5 -101.5q0 -68 -29 -125t-83 -100t-132 -66.5t-176 -23.5q-66 0 -129.5 14.5t-118.5 37 t-99 50t-69 56.5l62 65q27 -31 68.5 -56.5t91 -43t101.5 -27.5t97 -10q84 0 144.5 18.5t99.5 49t57.5 69.5t18.5 80q0 51 -27 87t-79 65.5t-128 57.5t-174 62q-90 33 -178 71t-157.5 91t-114 126t-44.5 175zM158 659q0 -86 33.5 -146t94 -105.5t145.5 -80t190 -71.5 q70 -25 136 -49.5t124 -52.5q106 41 172.5 126t66.5 189q0 86 -33.5 146.5t-94 105.5t-145.5 80t-190 71q-70 25 -136 49.5t-124 53.5q-106 -41 -172.5 -126t-66.5 -190z" />
<glyph unicode="&#xa8;" d="M244 991v172h94v-172h-94zM563 991v172h94v-172h-94z" />
<glyph unicode="&#xa9;" horiz-adv-x="1728" d="M92 748q0 160 60.5 300t166 245.5t246 166t299.5 60.5q160 0 300.5 -60.5t246 -166t165.5 -245.5t60 -300t-60 -300.5t-165.5 -246t-246 -166t-300.5 -60.5t-300 60.5t-245.5 166t-166 246t-60.5 300.5zM162 745q0 -145 54 -273t149.5 -223t223.5 -150.5t275 -55.5 t275.5 55.5t223.5 150.5t149.5 223t54.5 273t-54.5 273.5t-149.5 224.5t-223 152.5t-276 56.5q-147 0 -275 -56.5t-223.5 -152.5t-149.5 -224t-54 -274zM428 752q0 94 32 178t88 147.5t135 100t173 36.5q100 0 186 -36.5t140 -102.5l-58 -53q-47 53 -111.5 83t-144.5 30 t-145.5 -30t-111.5 -81t-71.5 -120.5t-25.5 -147.5q0 -80 26.5 -150.5t72.5 -123t109.5 -83t139.5 -30.5q98 0 161.5 33.5t119.5 93.5l57 -52q-23 -27 -56.5 -54.5t-75.5 -50t-93 -36.5t-111 -14q-92 0 -172 34.5t-138 97t-92 147.5t-34 184z" />
<glyph unicode="&#xaa;" horiz-adv-x="862" d="M129 618v70h582v-70h-582zM129 1014q0 121 93 179t261 58h131v56q0 43 -15 70.5t-41 43t-59.5 21.5t-68.5 6q-121 0 -203 -49l-30 65q47 27 105 41.5t128 14.5q137 0 199.5 -56.5t62.5 -150.5v-492h-78v74q-43 -39 -102 -66.5t-139 -27.5q-49 0 -94.5 14t-78 41t-52 67 t-19.5 91zM211 1014q0 -66 45 -103t117 -37q76 0 136 31t105 70v207h-122q-141 0 -211 -39t-70 -129z" />
<glyph unicode="&#xab;" horiz-adv-x="634" d="M41 446l209 211h104l-200 -211l200 -210h-104zM262 446l209 211h104l-200 -211l200 -210h-104z" />
<glyph unicode="&#xac;" horiz-adv-x="1495" d="M0 662v172h86v-172h-86zM662 0v86h172v-86h-172zM662 662v172h172v-172h-172zM662 1409v86h172v-86h-172zM1409 662v172h86v-172h-86z" />
<glyph unicode="&#xad;" horiz-adv-x="1495" d="M0 662v172h86v-172h-86zM662 0v86h172v-86h-172zM662 662v172h172v-172h-172zM662 1409v86h172v-86h-172zM1409 662v172h86v-172h-86z" />
<glyph unicode="&#xae;" horiz-adv-x="1728" d="M92 748q0 160 60.5 300t166 245.5t246 166t299.5 60.5q160 0 300.5 -60.5t246 -166t165.5 -245.5t60 -300t-60 -300.5t-165.5 -246t-246 -166t-300.5 -60.5t-300 60.5t-245.5 166t-166 246t-60.5 300.5zM162 745q0 -145 54 -273t149.5 -223t223.5 -150.5t275 -55.5 t275.5 55.5t223.5 150.5t149.5 223t54.5 273t-54.5 273.5t-149.5 224.5t-223 152.5t-276 56.5q-147 0 -275 -56.5t-223.5 -152.5t-149.5 -224t-54 -274zM625 317v897h243q57 0 109.5 -16t91.5 -49t61.5 -79t22.5 -103q0 -66 -24.5 -114t-66.5 -79t-96.5 -46t-113.5 -15h-29 l355 -396h-105l-368 420v-420h-80zM705 784h151q96 0 154.5 47.5t58.5 135.5q0 82 -56.5 127t-144.5 45h-163v-355z" />
<glyph unicode="&#xaf;" d="M184 991v74h533v-74h-533z" />
<glyph unicode="&#xb0;" horiz-adv-x="765" d="M61 1198q0 68 26 126t69 101t101 69t126 26t126 -26t101 -69t69 -101t26 -126t-26 -126t-69 -101t-101 -68.5t-126 -25.5t-126 25.5t-101 68.5t-69 101t-26 126zM141 1198q0 -51 18.5 -95t51.5 -77t77 -51.5t95 -18.5t95 18.5t77 51.5t51.5 77t18.5 95t-18.5 95t-51.5 77 t-77 51.5t-95 18.5t-95 -18.5t-77 -51.5t-51.5 -77t-18.5 -95z" />
<glyph unicode="&#xb1;" horiz-adv-x="1161" d="M14 748v73h144v494q0 96 47 138t119 42h69v-78h-63q-41 0 -64.5 -24.5t-23.5 -92.5v-479h311v494q0 96 47 138t119 42h69v-78h-63q-41 0 -64.5 -24.5t-23.5 -92.5v-479h151v-73h-151v-748h-84v748h-311v-748h-84v748h-144zM944 0v1495h84v-1495h-84z" />
<glyph unicode="&#xb2;" horiz-adv-x="1495" d="M0 662v172h86v-172h-86zM662 0v86h172v-86h-172zM662 662v172h172v-172h-172zM662 1409v86h172v-86h-172zM1409 662v172h86v-172h-86z" />
<glyph unicode="&#xb3;" horiz-adv-x="1495" d="M0 662v172h86v-172h-86zM662 0v86h172v-86h-172zM662 662v172h172v-172h-172zM662 1409v86h172v-86h-172zM1409 662v172h86v-172h-86z" />
<glyph unicode="&#xb4;" d="M301 991l168 266h96l-168 -266h-96z" />
<glyph unicode="&#xb5;" horiz-adv-x="1495" d="M0 662v172h86v-172h-86zM662 0v86h172v-86h-172zM662 662v172h172v-172h-172zM662 1409v86h172v-86h-172zM1409 662v172h86v-172h-86z" />
<glyph unicode="&#xb6;" horiz-adv-x="1263" d="M55 993q0 106 38 198.5t107.5 160t168 105.5t217.5 38h530v-1862h-88v1784h-172v-1784h-88v873h-203q-104 0 -197.5 39t-163 106.5t-109.5 155.5t-40 186zM147 1006q0 -90 33 -168t92.5 -134.5t144.5 -88t187 -31.5h164v833h-172q-102 0 -184 -31.5t-141.5 -87 t-91.5 -130t-32 -162.5z" />
<glyph unicode="&#xb7;" horiz-adv-x="337" d="M123 649v172h92v-172h-92z" />
<glyph unicode="&#xb8;" d="M213 -301l39 51q23 -18 68 -33.5t81 -15.5q43 0 73 17.5t30 56.5q0 33 -23.5 53t-77.5 20q-23 0 -46 -4t-42 -12l-22 35l121 160h88l-90 -123q78 8 128 -26t50 -91q0 -41 -16.5 -70.5t-43 -48t-60.5 -27t-71 -8.5q-51 0 -104 20.5t-82 45.5z" />
<glyph unicode="&#xb9;" horiz-adv-x="1495" d="M0 662v172h86v-172h-86zM662 0v86h172v-86h-172zM662 662v172h172v-172h-172zM662 1409v86h172v-86h-172zM1409 662v172h86v-172h-86z" />
<glyph unicode="&#xba;" horiz-adv-x="974" d="M123 1163q0 80 27.5 145.5t76.5 112.5t115 74t139 27q74 0 139.5 -27t114.5 -74t77 -112.5t28 -145.5t-28 -145.5t-77 -113.5t-114.5 -74.5t-139.5 -26.5t-139.5 26.5t-114.5 74.5t-76.5 113.5t-27.5 145.5zM137 618v70h688v-70h-688zM205 1163q0 -61 21.5 -114.5 t58.5 -91t87 -60.5t109 -23t109.5 23t87.5 60.5t58.5 91t21.5 114.5t-21.5 113.5t-58.5 90.5t-87 59.5t-110 21.5q-59 0 -109 -21.5t-87 -59.5t-58.5 -90t-21.5 -114z" />
<glyph unicode="&#xbb;" horiz-adv-x="634" d="M59 236l201 210l-201 211h105l209 -211l-209 -210h-105zM281 236l200 210l-200 211h104l209 -211l-209 -210h-104z" />
<glyph unicode="&#xbc;" horiz-adv-x="1495" d="M0 662v172h86v-172h-86zM662 0v86h172v-86h-172zM662 662v172h172v-172h-172zM662 1409v86h172v-86h-172zM1409 662v172h86v-172h-86z" />
<glyph unicode="&#xbd;" horiz-adv-x="1495" d="M0 662v172h86v-172h-86zM662 0v86h172v-86h-172zM662 662v172h172v-172h-172zM662 1409v86h172v-86h-172zM1409 662v172h86v-172h-86z" />
<glyph unicode="&#xbe;" horiz-adv-x="1495" d="M0 662v172h86v-172h-86zM662 0v86h172v-86h-172zM662 662v172h172v-172h-172zM662 1409v86h172v-86h-172zM1409 662v172h86v-172h-86z" />
<glyph unicode="&#xbf;" horiz-adv-x="894" d="M96 328q0 59 16.5 113.5t42 105.5t58.5 99t68 95q63 86 112 189.5t49 204.5v92h93v-82q0 -68 -16.5 -128.5t-42 -116.5t-59.5 -108.5t-67 -101.5q-61 -90 -109 -174t-48 -176q0 -59 21.5 -109.5t60 -88.5t90 -59.5t110.5 -21.5q94 0 167 45.5t116 131.5l69 -54 q-55 -106 -147 -157.5t-205 -51.5q-82 0 -151.5 27t-119.5 75t-79 112.5t-29 138.5zM442 1323v172h93v-172h-93z" />
<glyph unicode="&#xc0;" horiz-adv-x="1282" d="M61 0l555 1520h52l553 -1520h-99l-204 573h-553l-205 -573h-99zM393 655h496l-248 695zM415 1884h97l168 -266h-97z" />
<glyph unicode="&#xc1;" horiz-adv-x="1282" d="M61 0l555 1520h52l553 -1520h-99l-204 573h-553l-205 -573h-99zM393 655h496l-248 695zM588 1618l168 266h96l-168 -266h-96z" />
<glyph unicode="&#xc2;" horiz-adv-x="1282" d="M61 0l555 1520h52l553 -1520h-99l-204 573h-553l-205 -573h-99zM393 655h496l-248 695zM395 1597l207 254h65l207 -254h-100l-139 174l-140 -174h-100z" />
<glyph unicode="&#xc3;" horiz-adv-x="1282" d="M61 0l555 1520h52l553 -1520h-99l-204 573h-553l-205 -573h-99zM383 1618q4 70 35 116t115 46q31 0 62.5 -12.5t60.5 -28.5q33 -18 60.5 -32.5t49.5 -14.5q33 0 48.5 22.5t17.5 61.5h84q-4 -72 -35 -117t-115 -45q-35 0 -67.5 14.5t-63.5 32.5q-29 16 -54.5 28.5 t-47.5 12.5q-33 0 -48.5 -22.5t-17.5 -61.5h-84zM393 655h496l-248 695z" />
<glyph unicode="&#xc4;" horiz-adv-x="1282" d="M61 0l555 1520h52l553 -1520h-99l-204 573h-553l-205 -573h-99zM246 1323v172h94v-172h-94zM393 655h496l-248 695zM944 1323v172h94v-172h-94z" />
<glyph unicode="&#xc5;" horiz-adv-x="1282" d="M61 0l533 1458q-63 16 -105.5 68.5t-42.5 122.5q0 82 57.5 139t139.5 57t139.5 -57t57.5 -139q0 -70 -42 -122t-108 -69l531 -1458h-99l-204 573h-553l-205 -573h-99zM393 655h496l-248 695zM520 1649q0 -51 36 -87t87 -36t87 36t36 87t-36 87t-87 36t-87 -36t-36 -87z " />
<glyph unicode="&#xc6;" horiz-adv-x="1835" d="M29 0l866 1495h797v-82h-664v-584h598v-81h-598v-666h703v-82h-795v492h-526l-287 -492h-94zM457 573h479v834z" />
<glyph unicode="&#xc7;" horiz-adv-x="1462" d="M92 748q0 154 55.5 293t152.5 245.5t229.5 170t285.5 63.5q166 0 305.5 -62.5t227.5 -173.5l-66 -59q-86 98 -201.5 153.5t-267.5 55.5q-137 0 -252 -56.5t-197.5 -150.5t-129 -217t-46.5 -256q0 -147 48.5 -273.5t132.5 -219.5t199.5 -146.5t250.5 -53.5 q86 0 154.5 16.5t128 47.5t111 74t100.5 96l63 -55q-37 -43 -87 -88.5t-114.5 -82t-143.5 -62t-173 -30.5l-53 -73q78 8 128 -26t50 -91q0 -41 -16.5 -70.5t-43 -48t-60.5 -27t-70 -8.5q-51 0 -104.5 20.5t-82.5 45.5l39 51q23 -18 68 -33.5t82 -15.5q43 0 72.5 17.5 t29.5 56.5q0 33 -23.5 53t-76.5 20q-23 0 -46.5 -4t-41.5 -12l-23 35l84 110q-143 8 -267 71t-215 165t-143.5 239.5t-52.5 295.5z" />
<glyph unicode="&#xc8;" horiz-adv-x="1062" d="M164 0v1495h756v-82h-664v-584h598v-81h-598v-666h702v-82h-794zM340 1884h97l168 -266h-97z" />
<glyph unicode="&#xc9;" horiz-adv-x="1062" d="M164 0v1495h756v-82h-664v-584h598v-81h-598v-666h702v-82h-794zM440 1618l168 266h96l-168 -266h-96z" />
<glyph unicode="&#xca;" horiz-adv-x="1062" d="M164 0v1495h756v-82h-664v-584h598v-81h-598v-666h702v-82h-794zM299 1618l207 254h65l207 -254h-100l-139 174l-140 -174h-100z" />
<glyph unicode="&#xcb;" horiz-adv-x="1062" d="M164 0v1495h756v-82h-664v-584h598v-81h-598v-666h702v-82h-794zM332 1618v172h94v-172h-94zM651 1618v172h94v-172h-94z" />
<glyph unicode="&#xcc;" horiz-adv-x="419" d="M-6 1904h97l168 -266h-97zM164 0v1495h92v-1495h-92z" />
<glyph unicode="&#xcd;" horiz-adv-x="419" d="M162 1618l168 266h96l-168 -266h-96zM164 0v1495h92v-1495h-92z" />
<glyph unicode="&#xce;" horiz-adv-x="419" d="M-31 1597l207 254h65l207 -254h-100l-139 174l-140 -174h-100zM164 0v1495h92v-1495h-92z" />
<glyph unicode="&#xcf;" horiz-adv-x="419" d="M18 1618v172h95v-172h-95zM164 0v1495h92v-1495h-92zM307 1618v172h94v-172h-94z" />
<glyph unicode="&#xd0;" horiz-adv-x="1376" d="M78 739v82h123v674h307q160 0 300 -47t246.5 -140.5t168 -230.5t61.5 -315t-61.5 -319.5t-168 -240t-246.5 -150.5t-300 -52h-307v739h-123zM293 82h239q139 0 259 48t208 137t138.5 215t50.5 280t-50.5 274.5t-138.5 204.5t-207.5 128t-259.5 44h-239v-592h338v-82h-338 v-657z" />
<glyph unicode="&#xd1;" horiz-adv-x="1492" d="M164 0v1495h115l962 -1370q-2 14 -2 33q-2 16 -2 35.5v42.5v1259h92v-1495h-106l-971 1376q0 -14 2 -33q0 -16 1 -35.5t1 -41.5v-1266h-92zM516 1597q4 70 35 116t115 46q31 0 62.5 -12.5t60.5 -28.5q33 -18 60.5 -32.5t49.5 -14.5q33 0 48.5 22.5t17.5 61.5h84 q-4 -72 -35 -117t-115 -45q-35 0 -67.5 14.5t-63.5 32.5q-29 16 -54.5 28.5t-47.5 12.5q-33 0 -48.5 -22.5t-17.5 -61.5h-84z" />
<glyph unicode="&#xd2;" horiz-adv-x="1658" d="M92 748q0 164 57.5 305t157 244.5t234.5 163t290 59.5q156 0 290 -59.5t233.5 -163t156 -243.5t56.5 -304t-56.5 -305.5t-156 -246t-233.5 -164t-290 -59.5t-290.5 59.5t-234 163t-157 245t-57.5 305.5zM188 748q0 -145 49.5 -271.5t136.5 -218.5t204.5 -144.5 t252.5 -52.5t252 52.5t203 144.5t135 218.5t49 271.5t-48 271t-134 218t-202.5 144.5t-254.5 52.5q-135 0 -252.5 -52.5t-204.5 -144.5t-136.5 -218t-49.5 -271zM614 1884h97l168 -266h-97z" />
<glyph unicode="&#xd3;" horiz-adv-x="1658" d="M92 748q0 164 57.5 305t157 244.5t234.5 163t290 59.5q156 0 290 -59.5t233.5 -163t156 -243.5t56.5 -304t-56.5 -305.5t-156 -246t-233.5 -164t-290 -59.5t-290.5 59.5t-234 163t-157 245t-57.5 305.5zM188 748q0 -145 49.5 -271.5t136.5 -218.5t204.5 -144.5 t252.5 -52.5t252 52.5t203 144.5t135 218.5t49 271.5t-48 271t-134 218t-202.5 144.5t-254.5 52.5q-135 0 -252.5 -52.5t-204.5 -144.5t-136.5 -218t-49.5 -271zM762 1618l168 266h96l-168 -266h-96z" />
<glyph unicode="&#xd4;" horiz-adv-x="1658" d="M92 748q0 164 57.5 305t157 244.5t234.5 163t290 59.5q156 0 290 -59.5t233.5 -163t156 -243.5t56.5 -304t-56.5 -305.5t-156 -246t-233.5 -164t-290 -59.5t-290.5 59.5t-234 163t-157 245t-57.5 305.5zM188 748q0 -145 49.5 -271.5t136.5 -218.5t204.5 -144.5 t252.5 -52.5t252 52.5t203 144.5t135 218.5t49 271.5t-48 271t-134 218t-202.5 144.5t-254.5 52.5q-135 0 -252.5 -52.5t-204.5 -144.5t-136.5 -218t-49.5 -271zM578 1618l207 254h65l207 -254h-100l-139 174l-140 -174h-100z" />
<glyph unicode="&#xd5;" horiz-adv-x="1658" d="M92 748q0 164 57.5 305t157 244.5t234.5 163t290 59.5q156 0 290 -59.5t233.5 -163t156 -243.5t56.5 -304t-56.5 -305.5t-156 -246t-233.5 -164t-290 -59.5t-290.5 59.5t-234 163t-157 245t-57.5 305.5zM188 748q0 -145 49.5 -271.5t136.5 -218.5t204.5 -144.5 t252.5 -52.5t252 52.5t203 144.5t135 218.5t49 271.5t-48 271t-134 218t-202.5 144.5t-254.5 52.5q-135 0 -252.5 -52.5t-204.5 -144.5t-136.5 -218t-49.5 -271zM553 1618q4 70 35 116t115 46q31 0 62.5 -12.5t60.5 -28.5q33 -18 60.5 -32.5t49.5 -14.5q33 0 48.5 22.5 t17.5 61.5h84q-4 -72 -35 -117t-115 -45q-35 0 -67.5 14.5t-63.5 32.5q-29 16 -54.5 28.5t-47.5 12.5q-33 0 -48.5 -22.5t-17.5 -61.5h-84z" />
<glyph unicode="&#xd6;" horiz-adv-x="1658" d="M84 1323v172h94v-172h-94zM92 748q0 164 57.5 305t157 244.5t234.5 163t290 59.5q156 0 290 -59.5t233.5 -163t156 -243.5t56.5 -304t-56.5 -305.5t-156 -246t-233.5 -164t-290 -59.5t-290.5 59.5t-234 163t-157 245t-57.5 305.5zM188 748q0 -145 49.5 -271.5 t136.5 -218.5t204.5 -144.5t252.5 -52.5t252 52.5t203 144.5t135 218.5t49 271.5t-48 271t-134 218t-202.5 144.5t-254.5 52.5q-135 0 -252.5 -52.5t-204.5 -144.5t-136.5 -218t-49.5 -271zM1481 1323v172h94v-172h-94z" />
<glyph unicode="&#xd7;" horiz-adv-x="1495" d="M0 662v172h86v-172h-86zM662 0v86h172v-86h-172zM662 662v172h172v-172h-172zM662 1409v86h172v-86h-172zM1409 662v172h86v-172h-86z" />
<glyph unicode="&#xd8;" horiz-adv-x="1658" d="M92 748q0 164 57.5 305t157 244.5t234.5 163t290 59.5q137 0 257 -45t217 -129l153 174l64 -50l-160 -180q98 -104 151.5 -241t53.5 -299q0 -164 -56.5 -305.5t-156 -246t-233.5 -164t-290 -59.5q-139 0 -259.5 46.5t-219.5 132.5l-157 -179l-60 54l160 180 q-94 104 -148.5 241.5t-54.5 297.5zM188 748q0 -139 45.5 -258t122.5 -211l889 1001q-82 72 -186.5 113t-227.5 41q-135 0 -252.5 -52.5t-204.5 -144.5t-136.5 -218t-49.5 -271zM412 221q86 -76 191.5 -118t227.5 -42q135 0 252 52.5t203 144.5t135 218.5t49 271.5 q0 141 -45 261.5t-125 213.5z" />
<glyph unicode="&#xd9;" horiz-adv-x="1374" d="M154 543v952h92v-952q0 -102 34.5 -190.5t94 -153t139.5 -101.5t172 -37t172 37t140.5 101.5t95 152.5t34.5 191v952h93v-952q0 -129 -42 -233.5t-114 -178.5t-170 -115t-209 -41t-208 41t-169.5 115t-113.5 178.5t-41 233.5zM491 1863h97l168 -266h-97z" />
<glyph unicode="&#xda;" horiz-adv-x="1374" d="M154 543v952h92v-952q0 -102 34.5 -190.5t94 -153t139.5 -101.5t172 -37t172 37t140.5 101.5t95 152.5t34.5 191v952h93v-952q0 -129 -42 -233.5t-114 -178.5t-170 -115t-209 -41t-208 41t-169.5 115t-113.5 178.5t-41 233.5zM594 1597l168 266h96l-168 -266h-96z" />
<glyph unicode="&#xdb;" horiz-adv-x="1374" d="M154 543v952h92v-952q0 -102 34.5 -190.5t94 -153t139.5 -101.5t172 -37t172 37t140.5 101.5t95 152.5t34.5 191v952h93v-952q0 -129 -42 -233.5t-114 -178.5t-170 -115t-209 -41t-208 41t-169.5 115t-113.5 178.5t-41 233.5zM451 1597l207 254h65l207 -254h-100 l-139 174l-140 -174h-100z" />
<glyph unicode="&#xdc;" horiz-adv-x="1374" d="M154 543v952h92v-952q0 -102 34.5 -190.5t94 -153t139.5 -101.5t172 -37t172 37t140.5 101.5t95 152.5t34.5 191v952h93v-952q0 -129 -42 -233.5t-114 -178.5t-170 -115t-209 -41t-208 41t-169.5 115t-113.5 178.5t-41 233.5zM480 1323v172h94v-172h-94zM799 1323v172h94 v-172h-94z" />
<glyph unicode="&#xdd;" horiz-adv-x="1286" d="M57 1495h107l481 -696l479 696h105l-543 -782v-713h-92v715zM561 1597l168 266h96l-168 -266h-96z" />
<glyph unicode="&#xde;" horiz-adv-x="1071" d="M164 0v1495h92v-293h236q125 0 218 -30.5t155.5 -84t93 -128t30.5 -162.5q0 -96 -32.5 -177t-95 -139.5t-156 -90.5t-213.5 -32h-236v-358h-92zM256 440h256q102 0 175 28t119 75t66.5 110t20.5 135q0 156 -99.5 244t-318.5 88h-219v-680z" />
<glyph unicode="&#xdf;" horiz-adv-x="903" d="M133 0v1192q0 145 76 236.5t223 91.5q59 0 115.5 -19.5t101.5 -58.5t72 -99.5t27 -142.5q0 -61 -18.5 -115.5t-52.5 -98.5t-79 -75.5t-96 -50.5q55 -18 113.5 -66.5t107.5 -118t81 -157.5t32 -188q0 -70 -21.5 -133.5t-61.5 -112.5t-96.5 -79t-128.5 -30q-70 0 -119 13.5 t-75 31.5l37 66q29 -16 64.5 -24.5t92.5 -8.5q47 0 87 21.5t70 59.5t46.5 88t16.5 108q0 102 -34 188t-89.5 152.5t-126 108.5t-144.5 55v63q55 2 110.5 22.5t98.5 59.5t69.5 94t26.5 127q0 127 -66.5 184.5t-166.5 57.5q-96 0 -152.5 -65.5t-56.5 -180.5v-1196h-84z" />
<glyph unicode="&#xe0;" horiz-adv-x="872" d="M72 233q0 145 112.5 216t317.5 71h168v68q0 57 -20.5 93t-53.5 55.5t-75 25.5t-85 6q-150 0 -248 -59l-34 69q57 33 126.5 50.5t155.5 17.5q166 0 242 -68.5t76 -181.5v-596h-84v94q-53 -47 -129 -83t-174 -36q-61 0 -114.5 16.5t-93.5 49.5t-63.5 81t-23.5 111zM160 233 q0 -86 60.5 -133t146.5 -47q92 0 170.5 39t132.5 86v268h-160q-168 0 -259 -49t-91 -164zM241 1257h97l168 -266h-97z" />
<glyph unicode="&#xe1;" horiz-adv-x="872" d="M72 233q0 145 112.5 216t317.5 71h168v68q0 57 -20.5 93t-53.5 55.5t-75 25.5t-85 6q-150 0 -248 -59l-34 69q57 33 126.5 50.5t155.5 17.5q166 0 242 -68.5t76 -181.5v-596h-84v94q-53 -47 -129 -83t-174 -36q-61 0 -114.5 16.5t-93.5 49.5t-63.5 81t-23.5 111zM160 233 q0 -86 60.5 -133t146.5 -47q92 0 170.5 39t132.5 86v268h-160q-168 0 -259 -49t-91 -164zM350 991l168 266h96l-168 -266h-96z" />
<glyph unicode="&#xe2;" horiz-adv-x="872" d="M72 233q0 145 112.5 216t317.5 71h168v68q0 57 -20.5 93t-53.5 55.5t-75 25.5t-85 6q-150 0 -248 -59l-34 69q57 33 126.5 50.5t155.5 17.5q166 0 242 -68.5t76 -181.5v-596h-84v94q-53 -47 -129 -83t-174 -36q-61 0 -114.5 16.5t-93.5 49.5t-63.5 81t-23.5 111zM160 233 q0 -86 60.5 -133t146.5 -47q92 0 170.5 39t132.5 86v268h-160q-168 0 -259 -49t-91 -164zM193 991l207 254h65l207 -254h-100l-139 174l-140 -174h-100z" />
<glyph unicode="&#xe3;" horiz-adv-x="872" d="M72 233q0 145 112.5 216t317.5 71h168v68q0 57 -20.5 93t-53.5 55.5t-75 25.5t-85 6q-150 0 -248 -59l-34 69q57 33 126.5 50.5t155.5 17.5q166 0 242 -68.5t76 -181.5v-596h-84v94q-53 -47 -129 -83t-174 -36q-61 0 -114.5 16.5t-93.5 49.5t-63.5 81t-23.5 111zM160 233 q0 -86 60.5 -133t146.5 -47q92 0 170.5 39t132.5 86v268h-160q-168 0 -259 -49t-91 -164zM168 991q4 70 35 116t115 46q31 0 62.5 -12.5t60.5 -28.5q33 -18 60.5 -32.5t49.5 -14.5q33 0 48.5 22.5t17.5 61.5h84q-4 -72 -35 -117t-115 -45q-35 0 -67.5 14.5t-63.5 32.5 q-29 16 -54.5 28.5t-47.5 12.5q-33 0 -48.5 -22.5t-17.5 -61.5h-84z" />
<glyph unicode="&#xe4;" horiz-adv-x="872" d="M72 233q0 145 112.5 216t317.5 71h168v68q0 57 -20.5 93t-53.5 55.5t-75 25.5t-85 6q-150 0 -248 -59l-34 69q57 33 126.5 50.5t155.5 17.5q166 0 242 -68.5t76 -181.5v-596h-84v94q-53 -47 -129 -83t-174 -36q-61 0 -114.5 16.5t-93.5 49.5t-63.5 81t-23.5 111zM160 233 q0 -86 60.5 -133t146.5 -47q92 0 170.5 39t132.5 86v268h-160q-168 0 -259 -49t-91 -164zM224 991v172h94v-172h-94zM543 991v172h94v-172h-94z" />
<glyph unicode="&#xe5;" horiz-adv-x="872" d="M72 233q0 145 112.5 216t317.5 71h168v68q0 57 -20.5 93t-53.5 55.5t-75 25.5t-85 6q-150 0 -248 -59l-34 69q57 33 126.5 50.5t155.5 17.5q166 0 242 -68.5t76 -181.5v-596h-84v94q-53 -47 -129 -83t-174 -36q-61 0 -114.5 16.5t-93.5 49.5t-63.5 81t-23.5 111zM160 233 q0 -86 60.5 -133t146.5 -47q92 0 170.5 39t132.5 86v268h-160q-168 0 -259 -49t-91 -164zM238 1174q0 82 57.5 139t139.5 57t139 -57t57 -139t-57.5 -139.5t-138.5 -57.5q-82 0 -139.5 57.5t-57.5 139.5zM308 1174q0 -53 36.5 -90t90.5 -37q53 0 90 37t37 90t-37 89.5 t-90 36.5t-90 -36.5t-37 -89.5z" />
<glyph unicode="&#xe6;" horiz-adv-x="1490" d="M72 233q0 72 28.5 122.5t82 81t129 45t169.5 14.5h193v71q0 70 -21.5 110t-55.5 60.5t-76 25.5t-85 5q-150 0 -248 -59l-34 69q57 33 126.5 50.5t155.5 17.5q141 0 217 -49t86 -133q43 86 130 134t198 48q96 0 163.5 -37t111.5 -96.5t66 -135t26 -155.5h-678 q0 -78 22.5 -145.5t65.5 -116.5t104.5 -78t141.5 -29q92 0 150 32t116 91l59 -51q-23 -27 -52.5 -53.5t-69.5 -48t-91 -35t-117 -13.5q-119 0 -209 53.5t-131 125.5q-66 -72 -166 -125.5t-212 -53.5q-61 0 -114.5 16.5t-93.5 49.5t-63.5 81t-23.5 111zM160 233 q0 -86 60.5 -133t146.5 -47q55 0 107 16.5t96 41t79 55t58 59.5q-33 86 -33 197h-185q-156 0 -242.5 -40t-86.5 -149zM760 496h571q-4 47 -20.5 96t-49 88t-82 63.5t-116.5 24.5q-70 0 -122 -21.5t-90 -59.5t-60.5 -87t-30.5 -104z" />
<glyph unicode="&#xe7;" horiz-adv-x="876" d="M68 414q0 90 30.5 169t85 137t128 92t157.5 34q68 0 121 -14.5t94 -37t72.5 -51t54.5 -55.5l-68 -53q-49 61 -112.5 97t-149.5 36q-72 0 -132 -27.5t-103 -76t-66.5 -112t-23.5 -134.5q0 -74 23.5 -140.5t65.5 -116.5t99 -79t125 -29q98 0 168 45t123 123l65 -43 q-51 -78 -127.5 -134t-181.5 -67l-53 -73q78 8 128 -26t50 -91q0 -41 -16.5 -70.5t-43 -48t-60.5 -27t-70 -8.5q-51 0 -104.5 20.5t-82.5 45.5l39 51q23 -18 68 -33.5t82 -15.5q43 0 72.5 17.5t29.5 56.5q0 33 -23.5 53t-76.5 20q-23 0 -46.5 -4t-41.5 -12l-23 35l84 110 q-78 8 -144.5 46t-114.5 95.5t-74.5 133.5t-26.5 162z" />
<glyph unicode="&#xe8;" horiz-adv-x="909" d="M68 424q0 80 24.5 155.5t74.5 135t126 95.5t178 36q98 0 169 -37t117 -96.5t68.5 -135t26.5 -155.5h-696q0 -78 22.5 -145.5t64.5 -116.5t103.5 -78t140.5 -29q92 0 161 32t126 91l60 -51q-23 -27 -56 -53.5t-77 -48t-98 -35t-120 -13.5q-104 0 -183 37t-130 99.5 t-76.5 143.5t-25.5 169zM160 496h590q-4 47 -22.5 96t-54.5 88t-87 63.5t-119 24.5q-72 0 -126 -21.5t-91 -59.5t-59.5 -87t-30.5 -104zM252 1257h97l168 -266h-97z" />
<glyph unicode="&#xe9;" horiz-adv-x="909" d="M68 424q0 80 24.5 155.5t74.5 135t126 95.5t178 36q98 0 169 -37t117 -96.5t68.5 -135t26.5 -155.5h-696q0 -78 22.5 -145.5t64.5 -116.5t103.5 -78t140.5 -29q92 0 161 32t126 91l60 -51q-23 -27 -56 -53.5t-77 -48t-98 -35t-120 -13.5q-104 0 -183 37t-130 99.5 t-76.5 143.5t-25.5 169zM160 496h590q-4 47 -22.5 96t-54.5 88t-87 63.5t-119 24.5q-72 0 -126 -21.5t-91 -59.5t-59.5 -87t-30.5 -104zM393 991l168 266h96l-168 -266h-96z" />
<glyph unicode="&#xea;" horiz-adv-x="909" d="M68 424q0 80 24.5 155.5t74.5 135t126 95.5t178 36q98 0 169 -37t117 -96.5t68.5 -135t26.5 -155.5h-696q0 -78 22.5 -145.5t64.5 -116.5t103.5 -78t140.5 -29q92 0 161 32t126 91l60 -51q-23 -27 -56 -53.5t-77 -48t-98 -35t-120 -13.5q-104 0 -183 37t-130 99.5 t-76.5 143.5t-25.5 169zM160 496h590q-4 47 -22.5 96t-54.5 88t-87 63.5t-119 24.5q-72 0 -126 -21.5t-91 -59.5t-59.5 -87t-30.5 -104zM223 973l207 254h65l207 -254h-100l-139 174l-140 -174h-100z" />
<glyph unicode="&#xeb;" horiz-adv-x="909" d="M68 424q0 80 24.5 155.5t74.5 135t126 95.5t178 36q98 0 169 -37t117 -96.5t68.5 -135t26.5 -155.5h-696q0 -78 22.5 -145.5t64.5 -116.5t103.5 -78t140.5 -29q92 0 161 32t126 91l60 -51q-23 -27 -56 -53.5t-77 -48t-98 -35t-120 -13.5q-104 0 -183 37t-130 99.5 t-76.5 143.5t-25.5 169zM160 496h590q-4 47 -22.5 96t-54.5 88t-87 63.5t-119 24.5q-72 0 -126 -21.5t-91 -59.5t-59.5 -87t-30.5 -104zM254 991v172h94v-172h-94zM573 991v172h94v-172h-94z" />
<glyph unicode="&#xec;" horiz-adv-x="409" d="M-43 1257h97l168 -266h-97z" />
<glyph unicode="&#xed;" horiz-adv-x="409" d="M129 991l168 266h96l-168 -266h-96z" />
<glyph unicode="&#xee;" horiz-adv-x="409" d="M-65 973l207 254h65l207 -254h-100l-139 174l-140 -174h-100z" />
<glyph unicode="&#xef;" horiz-adv-x="350" d="M0 991v172h94v-172h-94zM133 0v821h84v-821h-84zM256 991v172h94v-172h-94z" />
<glyph unicode="&#xf0;" horiz-adv-x="1028" d="M68 432q0 86 35.5 162t97 131t142.5 88t169 33q98 0 185 -40t145 -118q-8 45 -27.5 107.5t-51.5 134t-77 148.5t-106 153l-275 -111l-33 66l258 104q-45 49 -96 96.5t-110 92.5l51 55q129 -96 231 -213l152 61l30 -65l-133 -55q76 -96 133.5 -201t95.5 -211.5t57.5 -212 t19.5 -203.5q0 -80 -29 -160.5t-85 -147.5t-142.5 -109t-202.5 -42q-90 0 -169 32t-137.5 92.5t-93 144.5t-34.5 188zM156 412q0 -78 27.5 -143.5t75.5 -114t113.5 -75t139.5 -26.5t139.5 26.5t113.5 75t75.5 114t27.5 143.5t-27.5 143.5t-75.5 112.5t-113.5 73.5 t-139.5 26.5t-139.5 -26.5t-113.5 -73.5t-75.5 -113t-27.5 -143z" />
<glyph unicode="&#xf1;" horiz-adv-x="917" d="M133 0v821h84v-135q39 72 111.5 116t165.5 44q72 0 129 -22.5t96 -61.5t59.5 -92.5t20.5 -114.5v-555h-84v543q0 98 -58.5 163.5t-167.5 65.5q-61 0 -111 -24.5t-86 -62.5t-55.5 -86t-19.5 -95v-504h-84zM194 991q4 70 35 116t115 46q31 0 62.5 -12.5t60.5 -28.5 q33 -18 60.5 -32.5t49.5 -14.5q33 0 48.5 22.5t17.5 61.5h84q-4 -72 -35 -117t-115 -45q-35 0 -67.5 14.5t-63.5 32.5q-29 16 -54.5 28.5t-47.5 12.5q-33 0 -48.5 -22.5t-17.5 -61.5h-84z" />
<glyph unicode="&#xf2;" horiz-adv-x="1003" d="M68 412q0 96 33.5 176t93 137t138.5 89t169 32t169 -32t138 -89t93 -137t34 -176t-34 -176t-93 -138.5t-138 -90.5t-169 -32t-169 32t-138.5 90.5t-93 138t-33.5 176.5zM156 412q0 -78 26.5 -143.5t72.5 -114t109.5 -75t137.5 -26.5t137 26.5t109.5 75t73 114t26.5 143.5 t-26.5 143.5t-73 112.5t-110 73.5t-136.5 26.5q-74 0 -137.5 -26.5t-109.5 -73.5t-72.5 -113t-26.5 -143zM280 1257h97l168 -266h-97z" />
<glyph unicode="&#xf3;" horiz-adv-x="1003" d="M68 412q0 96 33.5 176t93 137t138.5 89t169 32t169 -32t138 -89t93 -137t34 -176t-34 -176t-93 -138.5t-138 -90.5t-169 -32t-169 32t-138.5 90.5t-93 138t-33.5 176.5zM156 412q0 -78 26.5 -143.5t72.5 -114t109.5 -75t137.5 -26.5t137 26.5t109.5 75t73 114t26.5 143.5 t-26.5 143.5t-73 112.5t-110 73.5t-136.5 26.5q-74 0 -137.5 -26.5t-109.5 -73.5t-72.5 -113t-26.5 -143zM428 991l168 266h96l-168 -266h-96z" />
<glyph unicode="&#xf4;" horiz-adv-x="1003" d="M68 412q0 96 33.5 176t93 137t138.5 89t169 32t169 -32t138 -89t93 -137t34 -176t-34 -176t-93 -138.5t-138 -90.5t-169 -32t-169 32t-138.5 90.5t-93 138t-33.5 176.5zM156 412q0 -78 26.5 -143.5t72.5 -114t109.5 -75t137.5 -26.5t137 26.5t109.5 75t73 114t26.5 143.5 t-26.5 143.5t-73 112.5t-110 73.5t-136.5 26.5q-74 0 -137.5 -26.5t-109.5 -73.5t-72.5 -113t-26.5 -143zM254 973l207 254h65l207 -254h-100l-139 174l-140 -174h-100z" />
<glyph unicode="&#xf5;" horiz-adv-x="1003" d="M68 412q0 96 33.5 176t93 137t138.5 89t169 32t169 -32t138 -89t93 -137t34 -176t-34 -176t-93 -138.5t-138 -90.5t-169 -32t-169 32t-138.5 90.5t-93 138t-33.5 176.5zM156 412q0 -78 26.5 -143.5t72.5 -114t109.5 -75t137.5 -26.5t137 26.5t109.5 75t73 114t26.5 143.5 t-26.5 143.5t-73 112.5t-110 73.5t-136.5 26.5q-74 0 -137.5 -26.5t-109.5 -73.5t-72.5 -113t-26.5 -143zM227 991q4 70 35 116t115 46q31 0 62.5 -12.5t60.5 -28.5q33 -18 60.5 -32.5t49.5 -14.5q33 0 48.5 22.5t17.5 61.5h84q-4 -72 -35 -117t-115 -45q-35 0 -67.5 14.5 t-63.5 32.5q-29 16 -54.5 28.5t-47.5 12.5q-33 0 -48.5 -22.5t-17.5 -61.5h-84z" />
<glyph unicode="&#xf6;" horiz-adv-x="1003" d="M68 412q0 96 33.5 176t93 137t138.5 89t169 32t169 -32t138 -89t93 -137t34 -176t-34 -176t-93 -138.5t-138 -90.5t-169 -32t-169 32t-138.5 90.5t-93 138t-33.5 176.5zM156 412q0 -78 26.5 -143.5t72.5 -114t109.5 -75t137.5 -26.5t137 26.5t109.5 75t73 114t26.5 143.5 t-26.5 143.5t-73 112.5t-110 73.5t-136.5 26.5q-74 0 -137.5 -26.5t-109.5 -73.5t-72.5 -113t-26.5 -143zM283 991v172h94v-172h-94zM602 991v172h94v-172h-94z" />
<glyph unicode="&#xf7;" horiz-adv-x="1495" d="M0 662v172h86v-172h-86zM662 0v86h172v-86h-172zM662 662v172h172v-172h-172zM662 1409v86h172v-86h-172zM1409 662v172h86v-172h-86z" />
<glyph unicode="&#xf8;" horiz-adv-x="1003" d="M68 412q0 96 33.5 176t93 137t138.5 89t169 32q82 0 154.5 -26.5t129.5 -74.5l99 101l57 -49l-102 -105q45 -55 70.5 -125.5t25.5 -154.5q0 -96 -34 -176t-93 -138.5t-138 -90.5t-169 -32q-78 0 -148.5 25t-126.5 70l-92 -95l-53 54l90 92q-49 55 -76.5 129t-27.5 162z M156 412q0 -68 20.5 -126.5t54.5 -105.5l498 506q-94 82 -227 82q-74 0 -137.5 -26.5t-109.5 -73.5t-72.5 -113t-26.5 -143zM285 127q90 -74 217 -74q74 0 137 26.5t109.5 75t73 114t26.5 143.5q0 66 -17.5 120t-50.5 99z" />
<glyph unicode="&#xf9;" horiz-adv-x="917" d="M119 266v555h84v-542q0 -98 58 -164t167 -66q61 0 111.5 24.5t86.5 62.5t55 86t19 95v504h84v-821h-84v135q-39 -72 -111.5 -116t-164.5 -44q-72 0 -129 22.5t-96 61.5t-59.5 92.5t-20.5 114.5zM237 1239h97l168 -266h-97z" />
<glyph unicode="&#xfa;" horiz-adv-x="917" d="M119 266v555h84v-542q0 -98 58 -164t167 -66q61 0 111.5 24.5t86.5 62.5t55 86t19 95v504h84v-821h-84v135q-39 -72 -111.5 -116t-164.5 -44q-72 0 -129 22.5t-96 61.5t-59.5 92.5t-20.5 114.5zM381 973l168 266h96l-168 -266h-96z" />
<glyph unicode="&#xfb;" horiz-adv-x="917" d="M119 266v555h84v-542q0 -98 58 -164t167 -66q61 0 111.5 24.5t86.5 62.5t55 86t19 95v504h84v-821h-84v135q-39 -72 -111.5 -116t-164.5 -44q-72 0 -129 22.5t-96 61.5t-59.5 92.5t-20.5 114.5zM213 973l207 254h65l207 -254h-100l-139 174l-140 -174h-100z" />
<glyph unicode="&#xfc;" horiz-adv-x="917" d="M119 266v555h84v-542q0 -98 58 -164t167 -66q61 0 111.5 24.5t86.5 62.5t55 86t19 95v504h84v-821h-84v135q-39 -72 -111.5 -116t-164.5 -44q-72 0 -129 22.5t-96 61.5t-59.5 92.5t-20.5 114.5zM246 973v172h94v-172h-94zM565 973v172h94v-172h-94z" />
<glyph unicode="&#xfd;" horiz-adv-x="811" d="M35 821h90l293 -706l274 706h84l-409 -1040q-29 -74 -79 -121t-122 -47t-121 25v81q25 -16 48.5 -23t51.5 -7q59 0 95 41t59 96l72 178zM342 991l168 266h96l-168 -266h-96z" />
<glyph unicode="&#xfe;" horiz-adv-x="995" d="M133 -367v1862h84v-844q16 37 49 73t76 62.5t94 43t107 16.5q90 0 161.5 -35t120.5 -94.5t76 -137t27 -163.5q0 -104 -32 -185t-87 -138.5t-129 -87.5t-156 -30q-53 0 -102 16.5t-89 43t-70 62.5t-46 73v-537h-84zM217 408q0 -68 22.5 -131.5t64.5 -113.5t99.5 -80 t128.5 -30q139 0 223.5 95.5t84.5 261.5q0 72 -19.5 136t-57.5 113.5t-94.5 79t-131.5 29.5q-70 0 -128.5 -27.5t-101.5 -77t-66.5 -115t-23.5 -140.5z" />
<glyph unicode="&#xff;" horiz-adv-x="811" d="M35 821h90l293 -706l274 706h84l-409 -1040q-29 -74 -79 -121t-122 -47t-121 25v81q25 -16 48.5 -23t51.5 -7q59 0 95 41t59 96l72 178zM201 973v172h94v-172h-94zM520 973v172h94v-172h-94z" />
<glyph unicode="&#x152;" horiz-adv-x="2369" d="M92 748q0 164 57.5 305t157 244.5t234.5 163t290 59.5q209 0 377 -103.5t262 -277.5v356h756v-82h-663v-584h598v-81h-598v-666h702v-82h-795v358q-47 -86 -113.5 -156.5t-148.5 -120.5t-177 -78t-200 -28q-156 0 -290.5 59.5t-234 163t-157 245t-57.5 305.5zM188 748 q0 -145 49.5 -271.5t136.5 -218.5t204.5 -144.5t252.5 -52.5t252 52.5t203 144.5t135 218.5t49 271.5t-48 271t-134 218t-202.5 144.5t-254.5 52.5q-135 0 -252.5 -52.5t-204.5 -144.5t-136.5 -218t-49.5 -271z" />
<glyph unicode="&#x153;" horiz-adv-x="1658" d="M68 412q0 96 32.5 176t89 137t134 89t168.5 32q125 0 228 -62.5t148 -173.5q37 100 130.5 168t232.5 68q94 0 162.5 -37t113.5 -96.5t67.5 -135t27.5 -155.5h-689q0 -82 22.5 -149.5t65.5 -117t104.5 -76t141.5 -26.5q92 0 155.5 32t121.5 91l59 -51q-23 -27 -53.5 -53.5 t-72.5 -48t-95 -35t-119 -13.5q-143 0 -237.5 69t-135.5 175q-20 -53 -58 -98t-88 -78t-109.5 -50.5t-122.5 -17.5q-90 0 -168 32t-134.5 90.5t-89 138t-32.5 176.5zM156 412q0 -78 24.5 -143.5t68.5 -114t106.5 -75t136.5 -26.5t136 26.5t107 75t69.5 114t24.5 143.5 t-24.5 143.5t-68.5 112.5t-106.5 73.5t-137.5 26.5q-74 0 -136.5 -26.5t-106.5 -73.5t-68.5 -113t-24.5 -143zM918 496h581q-4 47 -22.5 96t-52 88t-83 63.5t-114.5 24.5q-72 0 -126 -21.5t-92 -59.5t-60.5 -87t-30.5 -104z" />
<glyph unicode="&#x178;" horiz-adv-x="1286" d="M57 1495h107l481 -696l479 696h105l-543 -782v-713h-92v715zM437 1597v172h94v-172h-94zM756 1597v172h94v-172h-94z" />
<glyph unicode="&#x2c6;" d="M211 991l207 254h65l207 -254h-100l-139 174l-140 -174h-100z" />
<glyph unicode="&#x2dc;" d="M184 991q4 70 35 116t115 46q31 0 62.5 -12.5t60.5 -28.5q33 -18 60.5 -32.5t49.5 -14.5q33 0 48.5 22.5t17.5 61.5h84q-4 -72 -35 -117t-115 -45q-35 0 -67.5 14.5t-63.5 32.5q-29 16 -54.5 28.5t-47.5 12.5q-33 0 -48.5 -22.5t-17.5 -61.5h-84z" />
<glyph unicode="&#x2000;" horiz-adv-x="952" />
<glyph unicode="&#x2001;" horiz-adv-x="1904" />
<glyph unicode="&#x2002;" horiz-adv-x="952" />
<glyph unicode="&#x2003;" horiz-adv-x="1904" />
<glyph unicode="&#x2004;" horiz-adv-x="634" />
<glyph unicode="&#x2005;" horiz-adv-x="476" />
<glyph unicode="&#x2006;" horiz-adv-x="317" />
<glyph unicode="&#x2007;" horiz-adv-x="317" />
<glyph unicode="&#x2008;" horiz-adv-x="238" />
<glyph unicode="&#x2009;" horiz-adv-x="380" />
<glyph unicode="&#x200a;" horiz-adv-x="105" />
<glyph unicode="&#x2010;" horiz-adv-x="675" d="M123 422v82h430v-82h-430z" />
<glyph unicode="&#x2011;" horiz-adv-x="675" d="M123 422v82h430v-82h-430z" />
<glyph unicode="&#x2012;" horiz-adv-x="675" d="M123 422v82h430v-82h-430z" />
<glyph unicode="&#x2013;" horiz-adv-x="839" d="M123 422v82h594v-82h-594z" />
<glyph unicode="&#x2014;" horiz-adv-x="1167" d="M123 422v82h921v-82h-921z" />
<glyph unicode="&#x2018;" horiz-adv-x="337" d="M123 1133v141q0 55 22.5 116.5t61.5 104.5h57q-37 -53 -43 -105.5t-6 -111.5v-145h-92z" />
<glyph unicode="&#x2019;" horiz-adv-x="337" d="M74 1133q37 53 43 105t6 112v145h92v-141q0 -55 -22.5 -116.5t-61.5 -104.5h-57z" />
<glyph unicode="&#x201a;" horiz-adv-x="337" d="M74 -190q37 53 43 105t6 112v145h92v-141q0 -55 -22.5 -116.5t-61.5 -104.5h-57z" />
<glyph unicode="&#x201c;" horiz-adv-x="573" d="M123 1133v141q0 55 22.5 116.5t61.5 104.5h57q-37 -53 -43 -105.5t-6 -111.5v-145h-92zM358 1133v141q0 55 22.5 116.5t61.5 104.5h58q-37 -53 -43 -105.5t-6 -111.5v-145h-93z" />
<glyph unicode="&#x201d;" horiz-adv-x="573" d="M74 1133q37 53 43 105t6 112v145h92v-141q0 -55 -22.5 -116.5t-61.5 -104.5h-57zM309 1133q37 53 43 105t6 112v145h93v-141q0 -55 -22.5 -116.5t-61.5 -104.5h-58z" />
<glyph unicode="&#x201e;" horiz-adv-x="573" d="M74 -190q37 53 43 105t6 112v145h92v-141q0 -55 -22.5 -116.5t-61.5 -104.5h-57zM309 -190q37 53 43 105t6 112v145h93v-141q0 -55 -22.5 -116.5t-61.5 -104.5h-58z" />
<glyph unicode="&#x2022;" horiz-adv-x="606" d="M143 776q0 66 47.5 113t112.5 47q66 0 113 -47t47 -113t-47 -113t-113 -47t-113 47.5t-47 112.5z" />
<glyph unicode="&#x2026;" horiz-adv-x="1034" d="M123 0v172h92v-172h-92zM471 0v172h92v-172h-92zM819 0v172h92v-172h-92z" />
<glyph unicode="&#x202f;" horiz-adv-x="380" />
<glyph unicode="&#x2039;" horiz-adv-x="413" d="M41 446l209 211h104l-200 -211l200 -210h-104z" />
<glyph unicode="&#x203a;" horiz-adv-x="413" d="M59 236l201 210l-201 211h105l209 -211l-209 -210h-105z" />
<glyph unicode="&#x205f;" horiz-adv-x="476" />
<glyph unicode="&#x2122;" horiz-adv-x="1615" d="M47 1430v65h512v-65h-219v-832h-72v832h-221zM719 598v897h84l309 -483l307 483h86v-897h-71v793l-304 -471h-36l-303 471v-793h-72z" />
<glyph unicode="&#x25fc;" horiz-adv-x="819" d="M0 0v819h819v-819h-819z" />
</font>
</defs>
</svg>
