<?xml version="1.0" standalone="no"?>
<!DOCTYPE svg PUBLIC "-//W3C//DTD SVG 1.1//EN" "http://www.w3.org/Graphics/SVG/1.1/DTD/svg11.dtd" >
<svg xmlns="http://www.w3.org/2000/svg">
<metadata></metadata>
<defs>
<font id="nobelbold" horiz-adv-x="1024" >
<font-face units-per-em="2048" ascent="1638" descent="-410" />
<missing-glyph horiz-adv-x="460" />
<glyph horiz-adv-x="2048" />
<glyph horiz-adv-x="2048" />
<glyph horiz-adv-x="682" />
<glyph d="M209 1305h153q6 -25 16.5 -50.5t29 -48t44 -37t60.5 -14.5t61.5 15.5t44 38t28.5 48t16 48.5h153q-12 -147 -95 -224t-208 -77t-208 76.5t-95 224.5z" />
<glyph d="M381 1014v266h258v-266h-258z" />
<glyph d="M248 1264q0 53 21.5 101t57 84t84 57.5t101.5 21.5t101.5 -21.5t84 -57.5t57 -84t21.5 -101t-21.5 -101.5t-57 -84.5t-84 -57.5t-101.5 -21.5t-101.5 21.5t-84 57.5t-57 84t-21.5 102zM403 1264q0 -47 31 -78t78 -31t78 31t31 78t-31 77.5t-78 30.5t-78 -30.5t-31 -77.5z " />
<glyph unicode="&#xa;" d="M119 1014l190 342h252l-190 -342h-252zM463 1014l190 342h252l-190 -342h-252z" />
<glyph d="M256 -201q0 57 49 114.5t158 111.5h135q-51 -35 -85 -66t-53.5 -57.5t-27.5 -50t-8 -44.5q0 -45 24.5 -62t53.5 -17q41 0 70.5 9t66.5 34l55 -76q-80 -66 -202 -66q-43 0 -85 11.5t-76 33t-54.5 53t-20.5 72.5z" />
<glyph d="M186 1315h232l92 -144l92 144h227l-211 -301h-221z" />
<glyph unicode="&#xd;" horiz-adv-x="460" />
<glyph horiz-adv-x="925" d="M-129 0l866 1495h318l-867 -1495h-317z" />
<glyph horiz-adv-x="1144" d="M35 647v236h110v364q0 123 64.5 198t193.5 75h166v-267h-51q-16 0 -26.5 -10t-16.5 -25.5t-9 -33t-3 -31.5v-270h117v-236h-117v-647h-318v647h-110zM725 0v883h317v-883h-317zM725 1026v291h317v-291h-317z" />
<glyph horiz-adv-x="1144" d="M35 647v236h110v364q0 123 64.5 198t193.5 75h166v-267h-51q-16 0 -26.5 -10t-16.5 -25.5t-9 -33t-3 -31.5v-270h117v-236h-117v-647h-318v647h-110zM725 0v1495h317v-1495h-317z" />
<glyph horiz-adv-x="1126" d="M-2 762l197 80v653h327v-518l207 84l105 -230l-312 -126v-429h533v-276h-860v569l-91 -37z" />
<glyph horiz-adv-x="665" d="M-2 762l176 72v661h318v-530l71 28l105 -229l-176 -72v-692h-318v561l-70 -29z" />
<glyph horiz-adv-x="1351" d="M59 0l689 1219h-615v276h1122l-688 -1219h672v-276h-1180zM356 1919h232l92 -144l92 144h227l-211 -301h-221z" />
<glyph horiz-adv-x="972" d="M18 0l400 592q6 10 12 18t12 15q6 8 13 14q-8 -2 -17 -2h-37h-323v246h866l-391 -590q-6 -8 -12 -16.5t-13 -16.5q-8 -8 -14 -18q10 0 21 2q10 0 20 1t20 1h318v-246h-875zM168 1315h232l92 -144l92 144h227l-211 -301h-221z" />
<glyph unicode=" "  horiz-adv-x="460" />
<glyph unicode="&#x09;" horiz-adv-x="460" />
<glyph unicode="&#xa0;" horiz-adv-x="460" />
<glyph unicode="!" horiz-adv-x="626" d="M154 0v299h319v-299h-319zM154 944v551h319v-551l-47 -534h-225z" />
<glyph unicode="&#x22;" horiz-adv-x="921" d="M102 1194v301h295v-301l-55 -287h-184zM524 1194v301h295v-301l-55 -287h-184z" />
<glyph unicode="#" horiz-adv-x="1404" d="M123 383v227h194l25 281h-219v227h239l33 377h256l-33 -377h234l33 377h256l-33 -377h174v-227h-195l-24 -281h219v-227h-240l-32 -383h-256l32 383h-233l-33 -383h-256l33 383h-174zM573 610h234l24 281h-233z" />
<glyph unicode="$" horiz-adv-x="1406" d="M66 272l198 193q63 -66 156.5 -121t204.5 -74v375q-98 18 -191.5 49t-164 81t-113.5 124t-43 182q0 92 38.5 166t107.5 126t163 83t203 39v143h176v-143q80 -8 148.5 -30.5t129 -54.5t113.5 -69.5t102 -78.5l-188 -197q-55 57 -136 100t-169 60v-320q102 -23 198.5 -54.5 t170 -83.5t117.5 -131t44 -194q0 -109 -44 -187.5t-117.5 -132.5t-170 -84t-198.5 -38v-205h-176v205q-166 14 -301.5 80.5t-257.5 191.5zM420 1081q0 -53 57.5 -83.5t147.5 -53.5v285q-111 -10 -158 -48t-47 -100zM801 266q41 6 81 16.5t71.5 29t51 45t19.5 65.5 q0 74 -53 116t-170 70v-342z" />
<glyph unicode="%" horiz-adv-x="1576" d="M76 1133q0 82 23.5 152.5t65.5 122.5t99.5 82t124.5 30q70 0 127 -31t97 -83t62.5 -120.5t22.5 -146.5q0 -84 -23.5 -155t-65.5 -124t-100 -82.5t-126 -29.5q-55 0 -109.5 23.5t-98.5 71.5t-71.5 120.5t-27.5 169.5zM133 0l1022 1495h289l-1022 -1495h-289zM287 1133 q0 -39 4 -76t15 -65.5t29.5 -46t47.5 -17.5q31 0 50.5 17.5t31.5 46t16 65.5t4 76q0 37 -5 74.5t-16 66.5t-29.5 47t-47.5 18t-48.5 -17t-30.5 -46t-16 -67t-5 -76zM893 360q0 82 23.5 153t65.5 123t99.5 82t124.5 30q70 0 127.5 -31t97 -83t62.5 -120.5t23 -146.5 q0 -84 -24 -155t-66 -124t-100 -83t-126 -30q-55 0 -109.5 24t-98.5 72t-71.5 120.5t-27.5 168.5zM1104 360q0 -39 4 -75.5t15.5 -65.5t29.5 -46t47 -17q31 0 50.5 17t31.5 46t16.5 65.5t4.5 75.5q0 37 -5.5 75t-16.5 66.5t-29.5 47t-47.5 18.5t-48 -17.5t-30.5 -46 t-16.5 -66.5t-5 -77z" />
<glyph unicode="&#x26;" horiz-adv-x="1413" d="M45 426q0 76 24.5 137.5t64.5 112.5t92.5 94t107.5 80q-33 39 -60.5 75t-48 72.5t-33 78.5t-12.5 95q0 78 34 142.5t89 110.5t128 71t151 25q80 0 152.5 -26t130 -73t91 -112.5t33.5 -145.5q0 -63 -22.5 -113.5t-59.5 -93.5t-85 -78.5t-101 -68.5l276 -346q47 47 88 93 t76 87l180 -203q-35 -43 -78.5 -91t-97.5 -97l203 -252h-352l-70 86q-84 -49 -178 -80t-199 -31q-98 0 -192 33t-168 92.5t-119 142.5t-45 183zM360 442q0 -49 21.5 -88t57.5 -66.5t80 -42t91 -14.5q43 0 87 15.5t87 42.5l-297 370q-55 -45 -91 -97t-36 -120zM467 1171 q0 -37 32.5 -82t71.5 -92q61 41 101.5 83.5t40.5 95.5t-37 84.5t-90 31.5q-47 0 -83 -36.5t-36 -84.5z" />
<glyph unicode="'" horiz-adv-x="512" d="M102 1194v301h295v-301l-55 -287h-184z" />
<glyph unicode="(" horiz-adv-x="741" d="M82 596q0 160 48 305.5t129 265t188.5 209.5t228.5 144v-273q-117 -131 -177.5 -283.5t-60.5 -367.5q0 -213 54.5 -376t183.5 -312v-275q-289 141 -441.5 385t-152.5 578z" />
<glyph unicode=")" horiz-adv-x="741" d="M66 -92q129 150 183 312.5t54 375.5q0 215 -60.5 367.5t-176.5 283.5v273q119 -53 227 -143.5t189 -210t129 -265t48 -305.5q0 -334 -152.5 -577.5t-440.5 -385.5v275z" />
<glyph unicode="*" horiz-adv-x="872" d="M51 1169l39 123l242 -37l39 240h127l37 -240l241 37l45 -121l-217 -114l107 -215l-103 -78l-174 172l-172 -170l-104 74l108 219z" />
<glyph unicode="+" horiz-adv-x="1110" d="M72 545v266h346v330h274v-330h346v-266h-346v-330h-274v330h-346z" />
<glyph unicode="," horiz-adv-x="512" d="M39 -213q31 47 47 109.5t16 128.5v284h295v-233q0 -115 -48 -213.5t-116 -190.5z" />
<glyph unicode="-" horiz-adv-x="778" d="M82 418v270h614v-270h-614z" />
<glyph unicode="." horiz-adv-x="512" d="M102 0v309h308v-309h-308z" />
<glyph unicode="/" horiz-adv-x="909" d="M41 0l520 1495h307l-518 -1495h-309z" />
<glyph unicode="0" horiz-adv-x="1316" d="M53 754q0 164 40 304t117 242.5t188.5 161t252.5 58.5t253 -58.5t188.5 -161t117.5 -242.5t41 -304q0 -170 -41 -312.5t-117.5 -246t-188 -162t-253.5 -58.5q-141 0 -252.5 58.5t-188.5 162t-117 246t-40 312.5zM393 754q0 -82 11.5 -170t40 -162t78.5 -122t128 -48 q82 0 133.5 47t79 121t37.5 163t10 171t-11 169t-41 157.5t-80 116.5t-128 46q-82 0 -132 -46t-77.5 -117.5t-38 -157.5t-10.5 -168z" />
<glyph unicode="1" horiz-adv-x="819" d="M41 952v242q63 8 120.5 25.5t106.5 51.5t92 87t80 137h240v-1495h-328v1065q-53 -53 -134 -78.5t-177 -34.5z" />
<glyph unicode="2" horiz-adv-x="1187" d="M47 0l629 850q23 31 39 57.5t27.5 54t16.5 57.5t5 68q0 68 -43 117t-117 49q-41 0 -78 -9t-66.5 -32.5t-47 -63.5t-17.5 -104v-32h-307v32q0 121 43 210t114.5 148.5t165 88.5t193.5 29q98 0 187.5 -28t156 -81t105.5 -135.5t39 -188.5q0 -115 -41 -198.5t-101 -161.5 l-346 -451h475v-276h-1032z" />
<glyph unicode="3" horiz-adv-x="1224" d="M33 197l174 204q70 -63 162 -101t198 -38q102 0 173 52.5t71 146.5q0 102 -72.5 141t-208.5 39h-92v266h129q104 0 155.5 38t51.5 136q0 70 -60.5 111t-146.5 41q-98 0 -165.5 -19.5t-133.5 -74.5l-153 215q57 45 112.5 76.5t112.5 52t120.5 29t137.5 8.5q94 0 184 -29 t161 -81t115 -126t44 -166q0 -113 -55.5 -196.5t-157.5 -122.5q117 -33 183.5 -124t66.5 -214q0 -106 -40 -195.5t-114 -154t-180.5 -100.5t-237.5 -36q-176 0 -308 60.5t-226 161.5z" />
<glyph unicode="4" horiz-adv-x="1210" d="M31 365v192l674 938h262v-885h172v-245h-172v-365h-328v365h-608zM324 610h315v445z" />
<glyph unicode="5" horiz-adv-x="1228" d="M61 158l177 221q66 -53 143.5 -85t159.5 -32q51 0 97 19.5t81 55.5t55.5 84t20.5 105q0 63 -20.5 110.5t-54.5 79.5t-75 47t-84 15q-66 0 -136.5 -39t-121.5 -116l-190 71l82 801h821v-266h-574l-28 -264q63 49 122.5 64t143.5 15q96 0 178 -35.5t140.5 -103t91 -164 t32.5 -215.5t-46 -220t-126 -175t-185.5 -115t-223.5 -41q-74 0 -142.5 14.5t-130 40t-115 58.5t-92.5 70z" />
<glyph unicode="6" horiz-adv-x="1228" d="M45 504q0 166 56.5 318.5t144.5 287.5t196.5 246.5t210.5 195.5l197 -229q-55 -41 -112.5 -93t-110 -107.5t-93 -112t-59.5 -103.5q33 27 63.5 42.5t61.5 24.5t64.5 12t74.5 3q96 0 179 -39t144.5 -104.5t96.5 -153.5t35 -188q0 -117 -43 -213t-122 -167t-187.5 -110 t-237.5 -39q-125 0 -227.5 41t-176 112t-114.5 167t-41 209zM373 498q0 -113 66.5 -184.5t178.5 -71.5q111 0 179.5 71.5t68.5 184.5q0 51 -19.5 95t-52 76.5t-78.5 50t-98 17.5q-111 0 -178 -67.5t-67 -171.5z" />
<glyph unicode="7" horiz-adv-x="1208" d="M119 1219v276h1050l-680 -1495h-344l600 1219h-626z" />
<glyph unicode="8" horiz-adv-x="1302" d="M61 432q0 137 72 227.5t193 145.5q-86 53 -138.5 117.5t-52.5 171.5q0 193 133 309.5t383 116.5t386.5 -117t136.5 -309q0 -106 -47.5 -171t-133.5 -118q121 -55 184.5 -147t63.5 -246q0 -100 -45 -181t-125 -137.5t-187.5 -87.5t-232.5 -31t-232.5 31t-187 90.5 t-125 143.5t-45.5 192zM379 461q0 -51 22.5 -91t61.5 -69t87 -44t101 -15q51 0 100.5 15t88.5 44t61.5 69t22.5 91t-22.5 90t-61.5 65.5t-88.5 39t-100.5 12.5q-53 0 -101 -12.5t-87 -39t-61.5 -65.5t-22.5 -90zM442 1094q0 -86 61.5 -133.5t147.5 -47.5t150.5 47.5 t64.5 133.5q0 41 -18.5 72.5t-48 53t-68.5 33t-80 11.5t-78.5 -11.5t-66.5 -33t-46.5 -53t-17.5 -72.5z" />
<glyph unicode="9" horiz-adv-x="1228" d="M33 991q0 117 43 213t121.5 167t187.5 110t238 39q125 0 227 -41t176 -112t115 -167t41 -209q0 -111 -31 -220t-81 -211.5t-113.5 -197t-131 -174t-133 -143t-119.5 -102.5l-196 229q55 41 112.5 93t109.5 107.5t93 112t60 103.5q-35 -27 -65 -42.5t-60.5 -24.5 t-64.5 -12t-75 -3q-96 0 -179 38t-144.5 104.5t-96 154.5t-34.5 188zM360 997q0 -53 19.5 -96t52.5 -75.5t78 -50t98 -17.5q111 0 178.5 67.5t67.5 171.5q0 113 -66.5 184.5t-179.5 71.5q-111 0 -179.5 -71.5t-68.5 -184.5z" />
<glyph unicode=":" horiz-adv-x="512" d="M102 0v309h308v-309h-308zM102 573v310h308v-310h-308z" />
<glyph unicode=";" horiz-adv-x="512" d="M39 -213q31 47 47 109.5t16 128.5v284h295v-233q0 -115 -48 -213.5t-116 -190.5zM102 573v310h308v-310h-308z" />
<glyph unicode="&#x3c;" horiz-adv-x="798" d="M78 526v277l596 405v-317l-361 -225l361 -228v-321z" />
<glyph unicode="=" horiz-adv-x="1069" d="M113 303v266h843v-266h-843zM113 795v266h843v-266h-843z" />
<glyph unicode="&#x3e;" horiz-adv-x="798" d="M125 123v317l360 226l-360 227v321l596 -409v-277z" />
<glyph unicode="?" horiz-adv-x="942" d="M31 1354q78 82 174 124t221 42q100 0 184 -28t145.5 -78t95.5 -120.5t34 -156.5q0 -59 -17.5 -111.5t-46 -102t-64.5 -95.5t-73 -89q-59 -74 -96 -144.5t-37 -148.5v-47h-295v47q0 106 39 194.5t100 166.5q31 41 61.5 79t55.5 74.5t40 70.5t15 69q0 66 -41 114t-100 48 q-80 0 -130 -34t-97 -81zM244 0v299h319v-299h-319z" />
<glyph unicode="@" horiz-adv-x="1728" d="M92 748q0 160 60.5 300t166 245.5t246 166t299.5 60.5q174 0 317.5 -55.5t244 -153t155.5 -226.5t55 -276q0 -131 -41 -225.5t-100 -155.5t-123.5 -90t-109.5 -29q-76 0 -132.5 25.5t-85.5 66.5q-59 -43 -123.5 -67.5t-142.5 -24.5q-80 0 -139 22.5t-99 61.5t-60.5 91.5 t-20.5 111.5q0 76 35.5 133t97 97t146.5 60.5t184 20.5h116q0 78 -36.5 103.5t-122.5 25.5q-160 0 -267 -47l-63 166q31 18 68.5 30.5t79.5 19.5t83 11.5t76 4.5q178 0 285.5 -58.5t107.5 -195.5v-471q0 -27 14.5 -37t34.5 -10q33 0 71 21.5t69.5 64.5t53 108.5t21.5 153.5 q0 125 -45 232.5t-129 187t-203.5 126t-269.5 46.5q-133 0 -250.5 -49.5t-205.5 -136.5t-138.5 -205.5t-50.5 -258.5q0 -139 50.5 -256.5t138.5 -203.5t205.5 -135.5t250.5 -49.5q57 0 123 10.5t137 45.5l50 -107q-86 -39 -163 -53.5t-149 -14.5q-160 0 -300 60.5 t-245.5 166t-166 246t-60.5 300.5zM678 598q0 -47 33.5 -72.5t119.5 -25.5q66 0 113 16t90 53v160h-106q-123 0 -186.5 -35t-63.5 -96z" />
<glyph unicode="A" horiz-adv-x="1454" d="M31 0l534 1495h316l542 -1495h-360l-115 377h-454l-117 -377h-346zM580 653h286l-110 365q-14 45 -23 80q-6 20 -10 41q-4 -18 -10 -39q-4 -16 -9.5 -39t-11.5 -43z" />
<glyph unicode="B" horiz-adv-x="1351" d="M154 0v1495h518q117 0 213 -27.5t164.5 -79t105.5 -126t37 -168.5q0 -113 -63.5 -198t-161.5 -122q63 -10 119.5 -41t96.5 -79t63.5 -107.5t23.5 -122.5q0 -100 -39 -179t-109.5 -133.5t-173 -83t-227.5 -28.5h-567zM481 276h240q117 0 164 44t47 122t-54.5 116 t-156.5 38h-240v-320zM481 872h160q229 1 229 183q0 94 -59 129t-170 35h-160v-347z" />
<glyph unicode="C" horiz-adv-x="1474" d="M82 756q0 168 59.5 308t162 241.5t240.5 158t296 56.5q166 0 294 -51.5t244 -170.5l-184 -215q-150 150 -354 150q-96 0 -174 -36t-132.5 -99.5t-84 -151.5t-29.5 -190q0 -231 108.5 -362.5t317.5 -131.5q70 0 124 14.5t98 37t81 53t74 65.5l188 -215 q-104 -113 -237.5 -177.5t-327.5 -64.5q-170 0 -311.5 54.5t-241.5 156t-155.5 245.5t-55.5 325z" />
<glyph unicode="D" horiz-adv-x="1466" d="M154 0v1495h452q160 0 301.5 -48t248 -143.5t167.5 -234.5t61 -319q0 -184 -65.5 -324.5t-174 -235t-248.5 -142.5t-290 -48h-452zM481 276h125q104 0 186 39t138.5 103.5t86.5 151t30 180.5q0 98 -32 184t-90.5 148.5t-139 99.5t-179.5 37h-125v-943z" />
<glyph unicode="E" horiz-adv-x="1171" d="M154 0v1495h870v-276h-543v-351h504v-276h-504v-316h574v-276h-901z" />
<glyph unicode="F" horiz-adv-x="1067" d="M154 0v1495h800v-276h-473v-357h443v-276h-443v-586h-327z" />
<glyph unicode="G" horiz-adv-x="1648" d="M82 754q0 174 60.5 315t164 241.5t241.5 155t294 54.5q199 0 339 -69t238 -175l-202 -199q-70 76 -165.5 116t-209.5 40q-94 0 -174 -39t-138.5 -104.5t-91 -152.5t-32.5 -183q0 -98 32.5 -187.5t92 -157t140.5 -107.5t177 -40q135 0 230.5 53.5t138.5 161.5h-381v277 h743q0 -184 -57.5 -329.5t-155.5 -245t-231.5 -152t-286.5 -52.5q-166 0 -307.5 56.5t-242.5 160t-158.5 247t-57.5 315.5z" />
<glyph unicode="H" horiz-adv-x="1482" d="M154 0v1495h327v-621h520v621h328v-1495h-328v598h-520v-598h-327z" />
<glyph unicode="I" horiz-adv-x="634" d="M154 0v1495h327v-1495h-327z" />
<glyph unicode="J" horiz-adv-x="882" d="M72 0v281h104q117 0 176.5 61t59.5 205v948h327v-1022q0 -104 -40 -191t-107.5 -149.5t-157.5 -97.5t-192 -35h-170z" />
<glyph unicode="K" horiz-adv-x="1458" d="M154 0v1495h327v-543l484 543h405l-582 -637l611 -858h-398l-436 612l-84 -92v-520h-327z" />
<glyph unicode="L" horiz-adv-x="1085" d="M154 0v1495h327v-1219h533v-276h-860z" />
<glyph unicode="M" horiz-adv-x="1802" d="M154 0v1495h321l404 -729q6 -10 11 -22.5l9 -22.5q4 -12 8 -23q4 10 8 23q4 10 8.5 22.5t10.5 22.5l381 729h334v-1495h-328v862v38t2 34t4 33q-4 -10 -8 -21q-4 -10 -9 -19t-10 -20l-333 -612h-125l-340 612q-10 16 -19 39q-4 10 -8 21q0 -16 2 -33q2 -16 3 -33.5 t1 -38.5v-862h-327z" />
<glyph unicode="N" horiz-adv-x="1609" d="M154 0v1495h282l660 -862q8 -10 15 -20.5t11 -20.5l11 -21q-2 12 -3 25q-2 10 -2 23.5v27.5v848h328v-1495h-282l-660 870q-8 10 -15 20.5t-12 20.5l-10 21q0 -12 2 -25q0 -10 1 -23.5t1 -27.5v-856h-327z" />
<glyph unicode="O" horiz-adv-x="1703" d="M82 754q0 162 55.5 301t156.5 242.5t243.5 163t316.5 59.5t316.5 -57.5t242.5 -159t154.5 -242.5t54.5 -307q0 -162 -55.5 -304.5t-156.5 -248t-243.5 -166t-316.5 -60.5t-315.5 61.5t-241.5 168t-155.5 248t-55.5 301.5zM420 754q0 -102 34.5 -192.5t93 -157 t136.5 -104.5t166 -38q100 0 181 41t137.5 109.5t86 158t29.5 183.5q0 98 -30.5 185t-87 152.5t-135.5 103.5t-177 38q-96 0 -176 -40t-137.5 -106.5t-89 -152.5t-31.5 -180z" />
<glyph unicode="P" horiz-adv-x="1247" d="M154 0v1495h495q125 0 226.5 -29.5t172 -86t109.5 -138.5t39 -186q0 -106 -38 -191.5t-108.5 -146t-172 -92t-228.5 -31.5h-168v-594h-327zM481 870h168q219 1 219 179q0 92 -54 131t-165 39h-168v-349z" />
<glyph unicode="Q" horiz-adv-x="1703" d="M82 754q0 162 55.5 301t156.5 242.5t243.5 163t316.5 59.5t316.5 -57.5t242.5 -159t154.5 -242.5t54.5 -307q0 -135 -39 -256t-110 -219q45 -27 85.5 -46.5t79.5 -29.5l-133 -240q-45 14 -104.5 49t-124.5 82q-90 -57 -196.5 -88t-229.5 -31q-174 0 -315.5 61.5 t-241.5 168t-155.5 248t-55.5 301.5zM420 754q0 -100 34.5 -189.5t93 -157t137.5 -106.5t165 -39q106 0 194 47q-45 55 -69 101l174 159q14 -20 31.5 -39.5t38.5 -42.5q65 122 65 267q0 94 -30.5 180t-88 152.5t-136.5 106.5t-175 40t-176 -40t-137.5 -106.5t-89 -152.5 t-31.5 -180z" />
<glyph unicode="R" horiz-adv-x="1329" d="M154 0v1495h536q117 0 212 -34t163 -93t103.5 -141t35.5 -178q0 -168 -93 -275.5t-241 -148.5l398 -625h-371l-416 707v-707h-327zM481 858h209q86 0 136.5 51.5t50.5 139.5q0 78 -54.5 124t-132.5 46h-209v-361z" />
<glyph unicode="S" horiz-adv-x="1214" d="M80 162l170 229q66 -53 156 -91t182 -38q113 0 151.5 37t38.5 104q0 55 -44 95.5t-107.5 70t-131 54t-114.5 51.5q-55 31 -104.5 65.5t-86 82.5t-57 111.5t-20.5 153.5q0 115 46 197t120.5 134t171 77t194.5 25q106 0 223 -31t209 -98l-147 -244q-49 37 -126 61.5 t-159 24.5q-57 0 -96 -14.5t-63.5 -36t-35 -47t-10.5 -48.5q0 -51 33 -85.5t85 -62.5t116.5 -51.5t130.5 -51.5q55 -25 108.5 -58t96.5 -81t69.5 -114.5t26.5 -158.5q0 -213 -140.5 -331t-383.5 -118q-156 0 -275 51.5t-227 135.5z" />
<glyph unicode="T" horiz-adv-x="1056" d="M72 1219v276h913v-276h-289v-1219h-327v1219h-297z" />
<glyph unicode="U" horiz-adv-x="1581" d="M143 606v889h330v-889q0 -76 22.5 -140.5t64.5 -110.5t98.5 -71.5t123.5 -25.5q70 0 129.5 25.5t104.5 71.5t70.5 110.5t25.5 140.5v889h326v-889q0 -154 -53.5 -271.5t-143.5 -197.5t-209 -121t-250 -41q-129 0 -244.5 41t-203.5 121t-139.5 198t-51.5 271z" />
<glyph unicode="V" horiz-adv-x="1351" d="M31 1495h336l290 -954q4 -16 8.5 -30.5t8.5 -27.5q4 -14 6 -26l8 28q6 25 17 56l288 954h328l-487 -1495h-314z" />
<glyph unicode="W" horiz-adv-x="1953" d="M72 1495h340l192 -799q4 -23 9 -49t10 -51q4 -29 6 -57q2 27 6 55q4 23 8 51.5t8 50.5l164 799h326l176 -799q4 -18 7 -45.5t7 -52.5q4 -29 8 -59q2 29 7 57q4 25 8 51.5t10 48.5l186 799h332l-393 -1495h-318l-161 786q-4 23 -10.5 63t-10.5 79q-6 45 -10 94 q-4 -51 -10 -96q-4 -39 -10.5 -78t-10.5 -62l-162 -786h-327z" />
<glyph unicode="X" horiz-adv-x="1431" d="M49 0l479 815l-405 680h362l228 -391l215 391h366l-401 -680l489 -815h-366l-303 528l-299 -528h-365z" />
<glyph unicode="Y" horiz-adv-x="1413" d="M31 1495h372l275 -518q6 -12 11 -26.5t9 -26.5q4 -14 9 -27q2 12 8 27q6 25 20 53l273 518h374l-516 -889v-606h-327v606z" />
<glyph unicode="Z" horiz-adv-x="1351" d="M59 0l689 1219h-615v276h1122l-688 -1219h672v-276h-1180z" />
<glyph unicode="[" horiz-adv-x="747" d="M154 -367v1862h532v-274h-221v-1313h221v-275h-532z" />
<glyph unicode="\" horiz-adv-x="909" d="M41 1495h307l520 -1495h-309z" />
<glyph unicode="]" horiz-adv-x="747" d="M61 -92h222v1313h-222v274h533v-1862h-533v275z" />
<glyph unicode="^" horiz-adv-x="1193" d="M61 756l375 739h318l379 -739h-322l-217 463l-215 -463h-318z" />
<glyph unicode="_" d="M0 -129h1024v-225h-1024v225z" />
<glyph unicode="`" d="M250 1356h293l157 -342h-227z" />
<glyph unicode="a" horiz-adv-x="1083" d="M45 250q0 102 57.5 166.5t147.5 101.5t200.5 52.5t219.5 19.5v31q0 47 -32 64t-99 17q-92 0 -169 -20t-147 -55l-98 190q88 49 195.5 69.5t228.5 20.5q219 0 328.5 -78.5t109.5 -267.5v-561h-317v68q-37 -25 -68 -43.5t-64.5 -28.5t-74.5 -15.5t-98 -5.5q-63 0 -122 19.5 t-103 55.5t-69.5 86t-25.5 114zM383 283q0 -39 31.5 -60.5t70.5 -21.5q59 0 102.5 14t82.5 49v148q-51 0 -102.5 -6.5t-92.5 -21.5t-66.5 -40t-25.5 -61z" />
<glyph unicode="b" horiz-adv-x="1150" d="M102 0v1495h318v-702q37 53 111.5 83.5t154.5 30.5q92 0 169 -39t131 -103.5t84 -149.5t30 -175q0 -92 -30 -177t-84 -148.5t-131 -101.5t-169 -38q-80 0 -154.5 31t-111.5 84v-90h-318zM420 444q0 -92 49 -150t133 -58q78 0 129 58t51 150t-51 147.5t-129 55.5 q-82 0 -132 -56t-50 -147z" />
<glyph unicode="c" horiz-adv-x="946" d="M51 438q0 96 36 181.5t100.5 150t153.5 101t196 36.5q113 0 199.5 -39t158.5 -125l-182 -170q-76 82 -176 82q-86 0 -138.5 -61.5t-52.5 -155.5q0 -41 13.5 -78.5t39 -67.5t60.5 -48.5t78 -18.5q61 0 99 23.5t75 66.5l213 -149q-80 -100 -169 -145.5t-218 -45.5 q-104 0 -193.5 36t-154 97.5t-101.5 146.5t-37 183z" />
<glyph unicode="d" horiz-adv-x="1150" d="M51 440q0 90 30 175t84 149.5t131 103.5t169 39q80 0 154.5 -30.5t111.5 -83.5v702h318v-1495h-318v90q-37 -53 -111.5 -84t-154.5 -31q-92 0 -169 38t-131 101.5t-84 148.5t-30 177zM369 444q0 -92 51 -150t129 -58q84 0 133 58t49 150q0 90 -50 146.5t-132 56.5 q-78 0 -129 -55t-51 -148z" />
<glyph unicode="e" horiz-adv-x="1032" d="M51 449q0 111 35 195.5t94.5 143t141 89t174.5 30.5q104 0 191 -35.5t149.5 -103.5t96.5 -164t34 -217h-619q8 -78 56.5 -132t142.5 -54q104 0 170.5 23.5t124.5 70.5l135 -172q-100 -84 -204.5 -116t-225.5 -32q-96 0 -186.5 27t-159 84t-109.5 146.5t-41 216.5z M350 555h291q-6 68 -46 107.5t-103 39.5q-68 0 -99 -42t-43 -105z" />
<glyph unicode="f" horiz-adv-x="622" d="M35 647v236h110v364q0 123 64.5 198t193.5 75h166v-267h-51q-33 0 -44 -29.5t-11 -70.5v-270h117v-236h-117v-647h-318v647h-110z" />
<glyph unicode="g" horiz-adv-x="1150" d="M51 442q0 92 30 177.5t84 148.5t131 101t169 38q80 0 154.5 -30.5t111.5 -83.5v90h318v-865q0 -201 -129 -305t-351 -104q-137 0 -251.5 32.5t-174.5 67.5l103 209q59 -35 136 -53.5t167 -18.5q106 0 144 48.5t38 113.5v92q-35 -43 -102.5 -78.5t-163.5 -35.5 q-92 0 -169 36.5t-131 100t-84 146.5t-30 173zM369 438q0 -92 51 -147t129 -55q82 0 132 56t50 146q0 92 -49 150.5t-133 58.5q-78 0 -129 -58.5t-51 -150.5z" />
<glyph unicode="h" horiz-adv-x="1103" d="M102 0v1495h318v-704q43 59 109.5 87.5t144.5 28.5q88 0 151.5 -29.5t104.5 -79.5t59.5 -119t18.5 -149v-530h-318v455q0 90 -26.5 138t-98.5 48q-70 0 -107.5 -47t-37.5 -129v-465h-318z" />
<glyph unicode="i" horiz-adv-x="522" d="M102 0v883h318v-883h-318zM102 1026v291h318v-291h-318z" />
<glyph unicode="j" horiz-adv-x="522" d="M-31 -100h78q33 0 44 26.5t11 73.5v883h318v-977q0 -123 -64.5 -198t-193.5 -75h-193v267zM102 1026v291h318v-291h-318z" />
<glyph unicode="k" horiz-adv-x="1114" d="M102 0v1495h318v-956l317 344h355l-359 -377l338 -506h-377l-184 281l-90 -97v-184h-318z" />
<glyph unicode="l" horiz-adv-x="522" d="M102 0v1495h318v-1495h-318z" />
<glyph unicode="m" horiz-adv-x="1650" d="M102 0v883h318v-92q45 66 105.5 91t138.5 25q104 0 167.5 -40t102.5 -105q47 59 116.5 102t180.5 43q88 0 150.5 -29.5t100.5 -79.5t55 -119t17 -149v-530h-317v455q0 90 -21.5 138t-93.5 48q-76 0 -105.5 -49t-29.5 -127v-465h-317v455q0 90 -21.5 138t-93.5 48 q-76 0 -105.5 -49t-29.5 -127v-465h-318z" />
<glyph unicode="n" horiz-adv-x="1103" d="M102 0v883h318v-92q43 59 109.5 87.5t144.5 28.5q88 0 151.5 -29.5t104.5 -79.5t59.5 -119t18.5 -149v-530h-318v455q0 90 -26.5 138t-98.5 48q-70 0 -107.5 -47t-37.5 -129v-465h-318z" />
<glyph unicode="o" horiz-adv-x="1054" d="M51 442q0 98 39 183.5t103.5 148t150.5 98t182 35.5t183.5 -34.5t153 -96t103.5 -147t38 -185.5q0 -98 -39 -184t-103.5 -148.5t-151.5 -99.5t-182 -37q-98 0 -184 35t-151.5 97.5t-103.5 148.5t-38 186zM360 442q0 -39 10.5 -76.5t32 -68.5t53 -50.5t72.5 -19.5t73 19.5 t52.5 50.5t30.5 69.5t10 77.5q0 37 -10 75t-30.5 67.5t-52.5 49t-75 19.5q-41 0 -71.5 -19.5t-52 -50t-32 -68.5t-10.5 -75z" />
<glyph unicode="p" horiz-adv-x="1150" d="M102 -367v1250h318v-90q37 53 111.5 83.5t154.5 30.5q92 0 169 -38t131 -101t84 -148.5t30 -177.5q0 -90 -30 -175t-84 -149.5t-131 -103.5t-169 -39q-80 0 -154.5 31t-111.5 84v-457h-318zM420 438q0 -90 50 -146t132 -56q78 0 129 55t51 147t-51 150.5t-129 58.5 q-84 0 -133 -58.5t-49 -150.5z" />
<glyph unicode="q" horiz-adv-x="1150" d="M51 442q0 92 30 177.5t84 148.5t131 101t169 38q80 0 154.5 -30.5t111.5 -83.5v90h318v-1250h-318v457q-37 -53 -111.5 -84t-154.5 -31q-92 0 -169 39t-131 103.5t-84 149.5t-30 175zM369 438q0 -92 51 -147t129 -55q82 0 132 56t50 146q0 92 -49 150.5t-133 58.5 q-78 0 -129 -58.5t-51 -150.5z" />
<glyph unicode="r" horiz-adv-x="868" d="M102 0v883h318v-117q33 55 92 98t137 43q59 0 112.5 -18.5t100.5 -65.5l-155 -268q-41 31 -71 43t-71 12q-78 0 -111.5 -52t-33.5 -124v-434h-318z" />
<glyph unicode="s" horiz-adv-x="847" d="M43 76l102 200q53 -33 110.5 -54t121.5 -21q51 0 76.5 13t25.5 36q0 35 -35.5 55.5t-89.5 38.5q-45 16 -94 36.5t-91 53.5t-68.5 81t-26.5 122q0 66 26.5 117t75.5 84.5t116.5 51t149.5 17.5q100 0 172 -19.5t150 -62.5l-90 -196q-59 33 -115.5 45t-109.5 12 q-37 0 -67 -9t-30 -38q0 -23 46 -42t112 -44q49 -18 99 -42t92 -58.5t69 -82.5t27 -114q0 -76 -31 -129t-83 -87t-119.5 -49.5t-139.5 -15.5q-104 0 -206.5 25t-174.5 76z" />
<glyph unicode="t" horiz-adv-x="704" d="M35 647v236h110v366h318v-366h149v-236h-149v-266q0 -51 25.5 -83t72.5 -32h78v-266h-199q-68 0 -122 24.5t-92 67.5t-59.5 102.5t-21.5 129.5v323h-110z" />
<glyph unicode="u" horiz-adv-x="1103" d="M96 352v531h318v-455q0 -90 26.5 -138t98.5 -48q70 0 107.5 47t37.5 129v465h317v-883h-317v92q-43 -59 -109.5 -88t-144.5 -29q-90 0 -152.5 30t-103.5 80t-59.5 118.5t-18.5 148.5z" />
<glyph unicode="v" horiz-adv-x="1044" d="M20 883h338l142 -363q6 -16 10 -36.5t8 -37.5l8 -40q2 20 9 40q6 35 20 74l141 363h328l-389 -883h-217z" />
<glyph unicode="w" horiz-adv-x="1556" d="M20 883h330l166 -441q4 -8 5 -17t5 -19q2 -10 6 -21l7 18q4 8 6 18.5t6 20.5l235 514l236 -514q4 -10 7 -20t7 -19q2 -8 4 -18q2 8 4 18q4 20 11 39l162 441h319l-358 -883h-197l-168 332q-6 10 -9 22.5t-7 22.5q-4 12 -6 24q-4 -14 -9 -26q-4 -10 -8 -22.5t-8 -22.5 l-168 -330h-199z" />
<glyph unicode="x" horiz-adv-x="995" d="M25 0l305 453l-273 430h336l76 -138q6 -14 12 -24t11 -21l10 -20q2 8 8 18q4 10 9 21.5t13 25.5l70 138h340l-276 -432l305 -451h-340l-90 150q-4 8 -11.5 20t-15.5 27q-8 14 -18 32q-8 -12 -17 -26q-6 -12 -14 -26.5t-14 -24.5l-93 -152h-333z" />
<glyph unicode="y" horiz-adv-x="987" d="M20 883h334l121 -402q6 -20 11.5 -38.5t9.5 -34.5q4 -18 8 -37q2 16 8 35q4 16 9 35.5t11 39.5l105 402h330l-371 -1080q-31 -88 -89 -141t-163 -53h-184v260h67q47 0 84 24.5t37 63.5q0 31 -6 59.5t-18 63.5z" />
<glyph unicode="z" horiz-adv-x="972" d="M18 0l400 592q6 10 12 18t12 15q6 8 13 14q-8 -2 -17 -2h-37h-323v246h866l-391 -590q-6 -8 -12 -16.5t-13 -16.5q-8 -8 -14 -18q10 0 21 2q10 0 20 1t20 1h318v-246h-875z" />
<glyph unicode="{" horiz-adv-x="716" d="M41 457v237q57 8 90 28.5t49.5 54.5t20.5 82t4 114q0 227 117.5 368.5t345.5 178.5v-246q-35 -27 -60.5 -52.5t-42 -57t-25 -70.5t-8.5 -93q0 -84 -5 -148.5t-24.5 -115.5t-57 -91t-101.5 -71q63 -33 101 -71.5t57.5 -90t24.5 -116t5 -145.5q0 -53 8.5 -92.5t25 -71 t42 -57t60.5 -52.5v-246q-227 37 -345 178.5t-118 368.5q0 63 -4 111.5t-20.5 82.5t-49.5 54.5t-90 28.5z" />
<glyph unicode="|" horiz-adv-x="577" d="M133 -367v1862h311v-1862h-311z" />
<glyph unicode="}" horiz-adv-x="716" d="M49 -121q35 27 60.5 52.5t42 57t24.5 70.5t8 93q0 82 5.5 147.5t24.5 116.5t57 91t102 71q-66 33 -103 71.5t-56 90t-24.5 116t-5.5 145.5q0 53 -8 92.5t-24.5 71t-42 57t-60.5 52.5v246q227 -37 345 -178.5t118 -368.5q0 -66 4 -113t20.5 -81t49 -54t90.5 -29v-237 q-57 -10 -90 -30.5t-49.5 -54.5t-20.5 -82t-4 -112q0 -227 -118 -368.5t-345 -178.5v246z" />
<glyph unicode="~" horiz-adv-x="1146" d="M82 532q0 84 15.5 164t47 141.5t84 99.5t125.5 38q61 0 117.5 -23.5t103.5 -54.5q51 -31 91.5 -58.5t66.5 -27.5q33 0 45.5 49t12.5 111h274q0 -84 -16.5 -164t-49 -142.5t-85 -100.5t-121.5 -38q-63 0 -116.5 21.5t-101.5 50.5q-53 33 -94 62.5t-67 29.5 q-33 0 -45.5 -49t-12.5 -109h-274z" />
<glyph unicode="&#xa1;" horiz-adv-x="626" d="M154 0v551l47 534h225l47 -534v-551h-319zM154 1196v299h319v-299h-319z" />
<glyph unicode="&#xa2;" horiz-adv-x="952" d="M51 438q0 92 33 173t92.5 144.5t140 103.5t179.5 46v109h98v-109q92 -10 166 -49t135 -113l-182 -170q-51 57 -119 74v-416q35 10 61.5 31t55.5 53l213 -149q-72 -88 -149 -133t-181 -56v-139h-98v139q-96 6 -178 44t-141.5 99.5t-92.5 142.5t-33 175zM346 438 q0 -72 40 -132t110 -77v422q-68 -16 -109 -73.5t-41 -139.5z" />
<glyph unicode="&#xa3;" horiz-adv-x="1546" d="M88 221q0 59 25.5 105.5t67.5 77t96.5 47t109.5 16.5q63 0 117.5 -6t101.5 -23q-8 41 -32.5 83t-53.5 77h-373v92h289q-23 25 -44 49.5t-44 51.5h-201v92h140q-29 53 -46.5 112.5t-17.5 134.5q0 94 49.5 167t128 122t178 75t197.5 26q119 0 223.5 -27t182.5 -82t124 -142 t46 -206h-332q0 111 -68.5 161t-175.5 50q-41 0 -79 -14.5t-68.5 -38t-49 -55t-18.5 -66.5q0 -66 27.5 -117t68.5 -100h439v-92h-361q43 -49 74 -101h287v-92h-240q18 -49 29.5 -108.5t11.5 -133.5v-10q47 -23 88 -38t90 -15q51 0 68.5 23.5t17.5 58.5v63h277v-121 q0 -158 -72 -250t-190 -92q-98 0 -190.5 42t-182.5 96q-61 -66 -158.5 -102t-220.5 -36q-59 0 -119.5 16.5t-109 47.5t-78 77t-29.5 105zM297 221q0 -41 37 -57.5t78 -16.5q59 0 103 26t69 71q-49 27 -95.5 42t-89.5 15q-39 0 -70.5 -16.5t-31.5 -63.5z" />
<glyph unicode="&#xa4;" horiz-adv-x="1495" d="M0 492v512h250v-512h-250zM492 0v250h512v-250h-512zM492 492v512h512v-512h-512zM492 1245v250h512v-250h-512zM1245 492v512h250v-512h-250z" />
<glyph unicode="&#xa5;" horiz-adv-x="1413" d="M31 1495h372l275 -518q6 -12 11 -26.5t9 -26.5q4 -14 9 -27q2 12 8 27q6 25 20 53l273 518h374l-512 -879h293v-157h-297v-125h297v-158h-297v-176h-327v176h-293v158h293v125h-293v157h286z" />
<glyph unicode="&#xa6;" horiz-adv-x="1495" d="M0 492v512h250v-512h-250zM492 0v250h512v-250h-512zM492 492v512h512v-512h-512zM492 1245v250h512v-250h-512zM1245 492v512h250v-512h-250z" />
<glyph unicode="&#xa7;" horiz-adv-x="1462" d="M92 547q0 63 19.5 115.5t50.5 95.5t70.5 77.5t82.5 61.5q-41 43 -62.5 102.5t-21.5 139.5q0 84 37 154.5t102.5 120.5t154.5 78t196 28q90 0 163.5 -11.5t137 -32t119 -49t106.5 -63.5l-151 -246q-72 51 -170.5 88t-216.5 37q-82 0 -120 -25.5t-38 -60.5q0 -20 5 -36.5 t22.5 -31t48 -27.5t82.5 -28l301 -84q162 -45 261 -130.5t99 -237.5q0 -63 -19.5 -116.5t-50 -96.5t-70.5 -77t-83 -61q41 -43 62.5 -102t21.5 -139q0 -84 -37 -155t-102.5 -121t-154.5 -77.5t-196 -27.5q-90 0 -163.5 11t-137 31.5t-119 49.5t-106.5 63l152 246 q72 -51 170 -88t217 -37q82 0 119.5 26t37.5 60q0 20 -5 37t-22.5 31t-48 27.5t-81.5 27.5l-301 84q-162 45 -261.5 131t-99.5 238zM410 598q0 -33 10 -56.5t34.5 -42t66.5 -34.5t104 -33l274 -76q63 41 108.5 85t45.5 89q0 33 -10.5 56.5t-35 42t-66.5 35t-103 32.5 l-275 76q-63 -41 -108 -85t-45 -89z" />
<glyph unicode="&#xa8;" d="M164 1014v266h258v-266h-258zM602 1014v266h258v-266h-258z" />
<glyph unicode="&#xa9;" horiz-adv-x="1728" d="M92 748q0 160 60.5 300t166 245.5t246 166t299.5 60.5q160 0 300.5 -60.5t246 -166t165.5 -245.5t60 -300t-60 -300.5t-165.5 -246t-246 -166t-300.5 -60.5t-300 60.5t-245.5 166t-166 246t-60.5 300.5zM217 745q0 -135 51 -251.5t138.5 -204.5t205 -138.5t252.5 -50.5 t253 50.5t205 138.5t138 204.5t51 251.5t-51 253t-138 205t-205 138.5t-253 51.5t-252.5 -51.5t-205 -138.5t-138.5 -204.5t-51 -253.5zM428 768q0 90 33 171t92 142.5t141 98.5t178 37q123 0 201 -38t131 -104l-143 -133q-41 39 -78 55.5t-106 16.5q-59 0 -104.5 -21.5 t-75 -57.5t-45 -80t-15.5 -87q0 -61 20.5 -112.5t53 -88.5t75.5 -56t86 -19q76 0 122 20t89 70l140 -125q-53 -72 -144.5 -120t-210.5 -48q-82 0 -160.5 31.5t-141 93t-100.5 150.5t-38 204z" />
<glyph unicode="&#xaa;" horiz-adv-x="923" d="M129 522v166h643v-166h-643zM129 1028q0 61 28.5 107.5t78 78t117 48t145.5 16.5h102q0 51 -29.5 70.5t-105.5 19.5q-66 0 -116 -8t-95 -29l-53 137q47 27 117.5 39.5t127.5 12.5q168 0 247 -56.5t79 -167.5v-477h-176v49q-90 -70 -213 -69q-129 0 -191.5 67.5 t-62.5 161.5zM311 1028q0 -37 33 -54.5t82 -17.5q53 0 88 11.5t82 44.5v118h-109q-78 0 -127 -23.5t-49 -78.5z" />
<glyph unicode="&#xab;" horiz-adv-x="921" d="M82 311v279l311 227v-268l-133 -98l133 -99v-268zM508 311v279l311 227v-268l-133 -98l133 -99v-268z" />
<glyph unicode="&#xac;" horiz-adv-x="1495" d="M0 492v512h250v-512h-250zM492 0v250h512v-250h-512zM492 492v512h512v-512h-512zM492 1245v250h512v-250h-512zM1245 492v512h250v-512h-250z" />
<glyph unicode="&#xad;" horiz-adv-x="1495" d="M0 492v512h250v-512h-250zM492 0v250h512v-250h-512zM492 492v512h512v-512h-512zM492 1245v250h512v-250h-512zM1245 492v512h250v-512h-250z" />
<glyph unicode="&#xae;" horiz-adv-x="1728" d="M92 748q0 160 60.5 300t166 245.5t246 166t299.5 60.5q160 0 300.5 -60.5t246 -166t165.5 -245.5t60 -300t-60 -300.5t-165.5 -246t-246 -166t-300.5 -60.5t-300 60.5t-245.5 166t-166 246t-60.5 300.5zM217 745q0 -135 51 -251.5t138.5 -204.5t205 -138.5t252.5 -50.5 t253 50.5t205 138.5t138 204.5t51 251.5t-51 253t-138 205t-205 138.5t-253 51.5t-252.5 -51.5t-205 -138.5t-138.5 -204.5t-51 -253.5zM573 317v897h353q61 0 114.5 -20t91 -56t59 -84t21.5 -104q0 -109 -56 -176t-148 -84l249 -373h-235l-244 390v-390h-205zM778 821h107 q53 0 86 32t33 91q0 47 -33 73.5t-82 26.5h-111v-223z" />
<glyph unicode="&#xaf;" d="M205 1075v135h614v-135h-614z" />
<glyph unicode="&#xb0;" horiz-adv-x="872" d="M51 1135q0 80 30 149.5t82 121.5t122.5 83t150.5 31t149.5 -31t122 -83t83 -121.5t30.5 -149.5t-30.5 -151t-83 -123t-122 -81.5t-149.5 -29.5t-150.5 29.5t-122.5 81.5t-82 123t-30 151zM244 1135q0 -39 15 -74t42 -61.5t61.5 -42t73.5 -15.5t74 15.5t61.5 42t42 61.5 t15.5 74t-15.5 73.5t-42 61t-61.5 42t-74 15.5t-73.5 -15.5t-61.5 -42t-42 -61t-15 -73.5z" />
<glyph unicode="&#xb1;" horiz-adv-x="1728" d="M35 647v236h110v364q0 123 64.5 198t193.5 75h166v-267h-51q-16 0 -26.5 -10t-16.5 -25.5t-9 -33t-3 -31.5v-270h117v-236h-117v-647h-318v647h-110zM618 647v236h111v364q0 123 64.5 198t193.5 75h166v-267h-51q-16 0 -26.5 -10t-16.5 -25.5t-9 -33t-3 -31.5v-270h116 v-236h-116v-647h-318v647h-111zM1309 0v1495h317v-1495h-317z" />
<glyph unicode="&#xb2;" horiz-adv-x="1495" d="M0 492v512h250v-512h-250zM492 0v250h512v-250h-512zM492 492v512h512v-512h-512zM492 1245v250h512v-250h-512zM1245 492v512h250v-512h-250z" />
<glyph unicode="&#xb3;" horiz-adv-x="1495" d="M0 492v512h250v-512h-250zM492 0v250h512v-250h-512zM492 492v512h512v-512h-512zM492 1245v250h512v-250h-512zM1245 492v512h250v-512h-250z" />
<glyph unicode="&#xb4;" d="M328 1014l157 342h293l-223 -342h-227z" />
<glyph unicode="&#xb5;" horiz-adv-x="1495" d="M0 492v512h250v-512h-250zM492 0v250h512v-250h-512zM492 492v512h512v-512h-512zM492 1245v250h512v-250h-512zM1245 492v512h250v-512h-250z" />
<glyph unicode="&#xb6;" horiz-adv-x="1617" d="M55 952q0 106 37 204.5t109.5 173.5t179 120t246.5 45h837v-1862h-272v1588h-152v-1588h-272v791h-182q-123 0 -221.5 46t-167 120t-105.5 169t-37 193zM367 965q0 -119 67.5 -193t190.5 -74h143v523h-131q-133 0 -201.5 -70t-68.5 -186z" />
<glyph unicode="&#xb7;" horiz-adv-x="512" d="M102 565v309h308v-309h-308z" />
<glyph unicode="&#xb8;" d="M279 -301l65 88q63 -41 141 -41q29 0 49.5 13.5t20.5 41.5q0 25 -21.5 32t-46.5 7q-16 0 -38.5 -2t-38.5 -8l-43 70l98 129h135l-68 -86q84 4 134.5 -34t50.5 -95q0 -41 -19.5 -75t-51.5 -57.5t-71.5 -36t-82.5 -12.5q-63 0 -116.5 18.5t-96.5 47.5z" />
<glyph unicode="&#xb9;" horiz-adv-x="1495" d="M0 492v512h250v-512h-250zM492 0v250h512v-250h-512zM492 492v512h512v-512h-512zM492 1245v250h512v-250h-512zM1245 492v512h250v-512h-250z" />
<glyph unicode="&#xba;" horiz-adv-x="995" d="M137 522v166h719v-166h-719zM137 1165q0 68 25.5 132.5t72 113.5t112 79t145.5 30t146.5 -29t115.5 -77t75.5 -110.5t26.5 -132.5q0 -78 -27.5 -145.5t-75.5 -118.5t-114 -79.5t-143 -28.5q-76 0 -141.5 25.5t-113.5 73.5t-76 115.5t-28 151.5zM330 1165q0 -88 44 -137 t115 -49q90 0 132.5 52t42.5 130q0 86 -48.5 133t-123.5 47q-72 0 -117 -52t-45 -124z" />
<glyph unicode="&#xbb;" horiz-adv-x="921" d="M102 84v268l134 99l-134 98v268l312 -227v-279zM528 84v268l134 99l-134 98v268l312 -227v-279z" />
<glyph unicode="&#xbc;" horiz-adv-x="1495" d="M0 492v512h250v-512h-250zM492 0v250h512v-250h-512zM492 492v512h512v-512h-512zM492 1245v250h512v-250h-512zM1245 492v512h250v-512h-250z" />
<glyph unicode="&#xbd;" horiz-adv-x="1495" d="M0 492v512h250v-512h-250zM492 0v250h512v-250h-512zM492 492v512h512v-512h-512zM492 1245v250h512v-250h-512zM1245 492v512h250v-512h-250z" />
<glyph unicode="&#xbe;" horiz-adv-x="1495" d="M0 492v512h250v-512h-250zM492 0v250h512v-250h-512zM492 492v512h512v-512h-512zM492 1245v250h512v-250h-512zM1245 492v512h250v-512h-250z" />
<glyph unicode="&#xbf;" horiz-adv-x="942" d="M57 358q0 57 17.5 110.5t46.5 103t64.5 95.5t72.5 89q59 74 96 144.5t37 148.5v47h295v-47q0 -106 -39 -194.5t-100 -166.5q-31 -41 -61.5 -79t-55 -74.5t-40 -71.5t-15.5 -68q0 -66 41 -114t100 -48q80 0 130 34t97 81l168 -207q-78 -82 -174 -124t-221 -42 q-100 0 -184 28t-145.5 78t-95.5 120.5t-34 156.5zM379 1196v299h319v-299h-319z" />
<glyph unicode="&#xc0;" horiz-adv-x="1454" d="M31 0l534 1495h316l542 -1495h-360l-115 377h-454l-117 -377h-346zM387 1960h293l157 -342h-227zM580 653h286l-110 365q-14 45 -23 80q-6 20 -10 41q-4 -18 -10 -39q-4 -16 -9.5 -39t-11.5 -43z" />
<glyph unicode="&#xc1;" horiz-adv-x="1454" d="M31 0l534 1495h316l542 -1495h-360l-115 377h-454l-117 -377h-346zM580 653h286l-110 365q-14 45 -23 80q-6 20 -10 41q-4 -18 -10 -39q-4 -16 -9.5 -39t-11.5 -43zM615 1618l157 342h293l-223 -342h-227z" />
<glyph unicode="&#xc2;" horiz-adv-x="1454" d="M31 0l534 1495h316l542 -1495h-360l-115 377h-454l-117 -377h-346zM401 1618l211 301h222l211 -301h-232l-92 143l-92 -143h-228zM580 653h286l-110 365q-14 45 -23 80q-6 20 -10 41q-4 -18 -10 -39q-4 -16 -9.5 -39t-11.5 -43z" />
<glyph unicode="&#xc3;" horiz-adv-x="1454" d="M31 0l534 1495h316l542 -1495h-360l-115 377h-454l-117 -377h-346zM328 1618q0 117 69.5 185.5t192.5 68.5q35 0 71 -12.5t70 -28.5q35 -14 65 -25.5t56 -11.5q35 0 59.5 16.5t24.5 57.5h170q0 -119 -69.5 -186.5t-192.5 -67.5q-35 0 -71 12t-70 27q-35 16 -66 27t-55 11 q-35 0 -59.5 -16t-24.5 -57h-170zM580 653h286l-110 365q-14 45 -23 80q-6 20 -10 41q-4 -18 -10 -39q-4 -16 -9.5 -39t-11.5 -43z" />
<glyph unicode="&#xc4;" horiz-adv-x="1454" d="M31 0l534 1495h316l542 -1495h-360l-115 377h-454l-117 -377h-346zM82 1208v287h258v-287h-258zM580 653h286l-110 365q-14 45 -23 80q-6 20 -10 41q-4 -18 -10 -39q-4 -16 -9.5 -39t-11.5 -43zM1106 1208v287h258v-287h-258z" />
<glyph unicode="&#xc5;" horiz-adv-x="1454" d="M31 0l524 1466q-43 37 -69.5 89.5t-26.5 111.5q0 53 21.5 101.5t57 84t84 57t101.5 21.5t101 -21.5t84 -57t57.5 -84t21.5 -101.5q0 -59 -26.5 -111.5t-69.5 -89.5l532 -1466h-360l-115 377h-454l-117 -377h-346zM580 653h286l-110 365q-14 45 -23 80q-6 20 -10 41 q-4 -18 -10 -39q-4 -16 -9.5 -39t-11.5 -43zM614 1667q0 -47 31 -77.5t78 -30.5t77.5 30.5t30.5 77.5t-30.5 78t-77.5 31t-78 -31t-31 -78z" />
<glyph unicode="&#xc6;" horiz-adv-x="1951" d="M20 0l775 1495h1009v-276h-542v-351h503v-276h-503v-316h573v-276h-870v387h-416l-201 -387h-328zM676 653h289v568z" />
<glyph unicode="&#xc7;" horiz-adv-x="1474" d="M82 756q0 168 59.5 308t162 241.5t240.5 158t296 56.5q166 0 294 -51.5t244 -170.5l-184 -215q-150 150 -354 150q-96 0 -174 -36t-132.5 -99.5t-84 -151.5t-29.5 -190q0 -231 108.5 -362.5t317.5 -131.5q70 0 124 14.5t98 37t81 53t74 65.5l188 -215 q-104 -113 -237.5 -177.5t-325.5 -64.5l-27 -32q84 4 134.5 -34t50.5 -95q0 -41 -19.5 -75t-51.5 -57.5t-72 -36t-83 -12.5q-63 0 -116.5 18.5t-96.5 47.5l66 88q63 -41 141 -41q29 0 49.5 13.5t20.5 41.5q0 25 -21.5 32t-46.5 7q-16 0 -38.5 -2t-39.5 -8l-43 70l64 84 q-145 18 -262 80.5t-201 162t-129 232.5t-45 297z" />
<glyph unicode="&#xc8;" horiz-adv-x="1171" d="M154 0v1495h870v-276h-543v-351h504v-276h-504v-316h574v-276h-901zM289 1960h293l157 -342h-227z" />
<glyph unicode="&#xc9;" horiz-adv-x="1171" d="M154 0v1495h870v-276h-543v-351h504v-276h-504v-316h574v-276h-901zM426 1618l157 342h293l-223 -342h-227z" />
<glyph unicode="&#xca;" horiz-adv-x="1171" d="M154 0v1495h870v-276h-543v-351h504v-276h-504v-316h574v-276h-901zM260 1618l211 301h222l211 -301h-232l-92 143l-92 -143h-228z" />
<glyph unicode="&#xcb;" horiz-adv-x="1171" d="M154 0v1495h870v-276h-543v-351h504v-276h-504v-316h574v-276h-901zM232 1618v266h258v-266h-258zM670 1618v266h258v-266h-258z" />
<glyph unicode="&#xcc;" horiz-adv-x="634" d="M-10 1960h293l157 -342h-227zM154 0v1495h327v-1495h-327z" />
<glyph unicode="&#xcd;" horiz-adv-x="634" d="M154 0v1495h327v-1495h-327zM203 1618l157 342h293l-223 -342h-227z" />
<glyph unicode="&#xce;" horiz-adv-x="634" d="M-3 1618l211 301h222l211 -301h-232l-92 143l-92 -143h-228zM154 0v1495h327v-1495h-327z" />
<glyph unicode="&#xcf;" horiz-adv-x="634" d="M-29 1618v266h258v-266h-258zM154 0v1495h327v-1495h-327zM409 1618v266h258v-266h-258z" />
<glyph unicode="&#xd0;" horiz-adv-x="1527" d="M51 592v270h164v633h453q160 0 301 -48t247.5 -143.5t168 -234.5t61.5 -319q0 -184 -65.5 -324.5t-174 -235t-249 -142.5t-289.5 -48h-453v592h-164zM543 276h125q104 0 186 39t138.5 103.5t86 151t29.5 180.5q0 98 -32 184t-90 148.5t-139 99.5t-179 37h-125v-357h225 v-270h-225v-316z" />
<glyph unicode="&#xd1;" horiz-adv-x="1609" d="M154 0v1495h282l660 -862q8 -10 15 -20.5t11 -20.5l11 -21q-2 12 -3 25q-2 10 -2 23.5v27.5v848h328v-1495h-282l-660 870q-8 10 -15 20.5t-12 20.5l-10 21q0 -12 2 -25q0 -10 1 -23.5t1 -27.5v-856h-327zM404 1618q0 117 69.5 185.5t192.5 68.5q35 0 71 -12.5t70 -28.5 q35 -14 65 -25.5t56 -11.5q35 0 59.5 16.5t24.5 57.5h170q0 -119 -69.5 -186.5t-192.5 -67.5q-35 0 -71 12t-70 27q-35 16 -66 27t-55 11q-35 0 -59.5 -16t-24.5 -57h-170z" />
<glyph unicode="&#xd2;" horiz-adv-x="1703" d="M82 754q0 162 55.5 301t156.5 242.5t243.5 163t316.5 59.5t316.5 -57.5t242.5 -159t154.5 -242.5t54.5 -307q0 -162 -55.5 -304.5t-156.5 -248t-243.5 -166t-316.5 -60.5t-315.5 61.5t-241.5 168t-155.5 248t-55.5 301.5zM420 754q0 -102 34.5 -192.5t93 -157 t136.5 -104.5t166 -38q100 0 181 41t137.5 109.5t86 158t29.5 183.5q0 98 -30.5 185t-87 152.5t-135.5 103.5t-177 38q-96 0 -176 -40t-137.5 -106.5t-89 -152.5t-31.5 -180zM516 1960h293l157 -342h-227z" />
<glyph unicode="&#xd3;" horiz-adv-x="1703" d="M82 754q0 162 55.5 301t156.5 242.5t243.5 163t316.5 59.5t316.5 -57.5t242.5 -159t154.5 -242.5t54.5 -307q0 -162 -55.5 -304.5t-156.5 -248t-243.5 -166t-316.5 -60.5t-315.5 61.5t-241.5 168t-155.5 248t-55.5 301.5zM420 754q0 -102 34.5 -192.5t93 -157 t136.5 -104.5t166 -38q100 0 181 41t137.5 109.5t86 158t29.5 183.5q0 98 -30.5 185t-87 152.5t-135.5 103.5t-177 38q-96 0 -176 -40t-137.5 -106.5t-89 -152.5t-31.5 -180zM688 1618l157 342h293l-223 -342h-227z" />
<glyph unicode="&#xd4;" horiz-adv-x="1703" d="M82 754q0 162 55.5 301t156.5 242.5t243.5 163t316.5 59.5t316.5 -57.5t242.5 -159t154.5 -242.5t54.5 -307q0 -162 -55.5 -304.5t-156.5 -248t-243.5 -166t-316.5 -60.5t-315.5 61.5t-241.5 168t-155.5 248t-55.5 301.5zM420 754q0 -102 34.5 -192.5t93 -157 t136.5 -104.5t166 -38q100 0 181 41t137.5 109.5t86 158t29.5 183.5q0 98 -30.5 185t-87 152.5t-135.5 103.5t-177 38q-96 0 -176 -40t-137.5 -106.5t-89 -152.5t-31.5 -180zM530 1618l211 301h222l211 -301h-232l-92 143l-92 -143h-228z" />
<glyph unicode="&#xd5;" horiz-adv-x="1703" d="M82 754q0 162 55.5 301t156.5 242.5t243.5 163t316.5 59.5t316.5 -57.5t242.5 -159t154.5 -242.5t54.5 -307q0 -162 -55.5 -304.5t-156.5 -248t-243.5 -166t-316.5 -60.5t-315.5 61.5t-241.5 168t-155.5 248t-55.5 301.5zM420 754q0 -102 34.5 -192.5t93 -157 t136.5 -104.5t166 -38q100 0 181 41t137.5 109.5t86 158t29.5 183.5q0 98 -30.5 185t-87 152.5t-135.5 103.5t-177 38q-96 0 -176 -40t-137.5 -106.5t-89 -152.5t-31.5 -180zM457 1618q0 117 69.5 185.5t192.5 68.5q35 0 71 -12.5t70 -28.5q35 -14 65 -25.5t56 -11.5 q35 0 59.5 16.5t24.5 57.5h170q0 -119 -69.5 -186.5t-192.5 -67.5q-35 0 -71 12t-70 27q-35 16 -66 27t-55 11q-35 0 -59.5 -16t-24.5 -57h-170z" />
<glyph unicode="&#xd6;" horiz-adv-x="1703" d="M82 754q0 135 40 255.5t114 219.5h-154v266h258v-154q100 84 229 131.5t285 47.5t284 -45t226 -127v147h258v-266h-145q72 -96 108.5 -216t36.5 -259q0 -162 -55.5 -304.5t-156.5 -248t-243.5 -166t-316.5 -60.5t-315.5 61.5t-241.5 168t-155.5 248t-55.5 301.5zM420 754 q0 -100 34.5 -189.5t93 -157t137.5 -106.5t165 -39q100 0 181 41t137.5 109.5t86 158t29.5 183.5t-30.5 180t-88 152.5t-136.5 106.5t-175 40t-176 -40t-137.5 -106.5t-89 -152.5t-31.5 -180z" />
<glyph unicode="&#xd7;" horiz-adv-x="1495" d="M0 492v512h250v-512h-250zM492 0v250h512v-250h-512zM492 492v512h512v-512h-512zM492 1245v250h512v-250h-512zM1245 492v512h250v-512h-250z" />
<glyph unicode="&#xd8;" horiz-adv-x="1703" d="M82 754q0 162 55.5 301t156.5 242.5t243.5 163t316.5 59.5q154 0 280 -44t224 -124l151 147l125 -110l-159 -156q72 -98 109.5 -218t37.5 -261q0 -162 -55.5 -304.5t-156.5 -248t-243.5 -166t-316.5 -60.5q-147 0 -271 45.5t-223 124.5l-151 -149l-121 115l158 153 q-78 100 -119 225t-41 265zM420 754q0 -70 17.5 -133.5t45.5 -120.5l643 626q-53 49 -121.5 78t-150.5 29q-96 0 -176 -40t-137.5 -106.5t-89 -152.5t-31.5 -180zM586 369q57 -51 123.5 -79t140.5 -28q100 0 181 41t137.5 109.5t86 158t29.5 183.5q0 127 -57 237z" />
<glyph unicode="&#xd9;" horiz-adv-x="1581" d="M143 606v889h330v-889q0 -76 22.5 -140.5t64.5 -110.5t98.5 -71.5t123.5 -25.5q70 0 129.5 25.5t104.5 71.5t70.5 110.5t25.5 140.5v889h326v-889q0 -154 -53.5 -271.5t-143.5 -197.5t-209 -121t-250 -41q-129 0 -244.5 41t-203.5 121t-139.5 198t-51.5 271zM490 1940 h293l157 -342h-227z" />
<glyph unicode="&#xda;" horiz-adv-x="1581" d="M143 606v889h330v-889q0 -76 22.5 -140.5t64.5 -110.5t98.5 -71.5t123.5 -25.5q70 0 129.5 25.5t104.5 71.5t70.5 110.5t25.5 140.5v889h326v-889q0 -154 -53.5 -271.5t-143.5 -197.5t-209 -121t-250 -41q-129 0 -244.5 41t-203.5 121t-139.5 198t-51.5 271zM645 1598 l157 342h293l-223 -342h-227z" />
<glyph unicode="&#xdb;" horiz-adv-x="1581" d="M143 606v889h330v-889q0 -76 22.5 -140.5t64.5 -110.5t98.5 -71.5t123.5 -25.5q70 0 129.5 25.5t104.5 71.5t70.5 110.5t25.5 140.5v889h326v-889q0 -154 -53.5 -271.5t-143.5 -197.5t-209 -121t-250 -41q-129 0 -244.5 41t-203.5 121t-139.5 198t-51.5 271zM471 1618 l211 301h222l211 -301h-232l-92 143l-92 -143h-228z" />
<glyph unicode="&#xdc;" horiz-adv-x="1581" d="M143 606v889h330v-889q0 -76 22.5 -140.5t64.5 -110.5t98.5 -71.5t123.5 -25.5q70 0 129.5 25.5t104.5 71.5t70.5 110.5t25.5 140.5v889h326v-889q0 -154 -53.5 -271.5t-143.5 -197.5t-209 -121t-250 -41q-129 0 -244.5 41t-203.5 121t-139.5 198t-51.5 271zM575 1167 v328h166v-328h-166zM844 1167v328h166v-328h-166z" />
<glyph unicode="&#xdd;" horiz-adv-x="1413" d="M31 1495h372l275 -518q6 -12 11 -26.5t9 -26.5q4 -14 9 -27q2 12 8 27q6 25 20 53l273 518h374l-516 -889v-606h-327v606zM570 1618l157 342h293l-223 -342h-227z" />
<glyph unicode="&#xde;" horiz-adv-x="1247" d="M154 0v1495h327v-281h168q125 0 226.5 -29.5t172 -86t109.5 -138.5t39 -186q0 -106 -38 -191t-108.5 -145.5t-172 -92.5t-228.5 -32h-168v-313h-327zM481 590h168q219 0 219 178q0 92 -54 131t-165 39h-168v-348z" />
<glyph unicode="&#xdf;" horiz-adv-x="1132" d="M102 0v1133q0 86 37 157.5t100.5 121.5t148.5 79t181 29t177 -27t138.5 -76t89.5 -117.5t32 -152.5q0 -111 -56.5 -189.5t-142.5 -113.5q49 -18 98 -51t88 -84.5t63.5 -122t24.5 -168.5t-31.5 -180t-88 -140.5t-136.5 -90.5t-178 -32q-31 0 -63.5 6.5t-57.5 14.5v248 q35 -16 101 -17q82 0 113.5 49.5t31.5 141.5q0 49 -14.5 101t-46 98.5t-81.5 81t-124 51.5v184q92 0 141 52t49 130q0 152 -135 152q-41 0 -67.5 -12.5t-43 -33t-23.5 -44t-7 -48.5v-1130h-318z" />
<glyph unicode="&#xe0;" horiz-adv-x="1083" d="M45 250q0 102 57.5 166.5t147.5 101.5t200.5 52.5t219.5 19.5v31q0 47 -32 64t-99 17q-92 0 -169 -20t-147 -55l-98 190q88 49 195.5 69.5t228.5 20.5q219 0 328.5 -78.5t109.5 -267.5v-561h-317v68q-37 -25 -68 -43.5t-64.5 -28.5t-74.5 -15.5t-98 -5.5q-63 0 -122 19.5 t-103 55.5t-69.5 86t-25.5 114zM244 1356h293l157 -342h-227zM383 283q0 -39 31.5 -60.5t70.5 -21.5q59 0 102.5 14t82.5 49v148q-51 0 -102.5 -6.5t-92.5 -21.5t-66.5 -40t-25.5 -61z" />
<glyph unicode="&#xe1;" horiz-adv-x="1083" d="M45 250q0 102 57.5 166.5t147.5 101.5t200.5 52.5t219.5 19.5v31q0 47 -32 64t-99 17q-92 0 -169 -20t-147 -55l-98 190q88 49 195.5 69.5t228.5 20.5q219 0 328.5 -78.5t109.5 -267.5v-561h-317v68q-37 -25 -68 -43.5t-64.5 -28.5t-74.5 -15.5t-98 -5.5q-63 0 -122 19.5 t-103 55.5t-69.5 86t-25.5 114zM383 283q0 -39 31.5 -60.5t70.5 -21.5q59 0 102.5 14t82.5 49v148q-51 0 -102.5 -6.5t-92.5 -21.5t-66.5 -40t-25.5 -61zM404 1014l157 342h293l-223 -342h-227z" />
<glyph unicode="&#xe2;" horiz-adv-x="1083" d="M45 250q0 102 57.5 166.5t147.5 101.5t200.5 52.5t219.5 19.5v31q0 47 -32 64t-99 17q-92 0 -169 -20t-147 -55l-98 190q88 49 195.5 69.5t228.5 20.5q219 0 328.5 -78.5t109.5 -267.5v-561h-317v68q-37 -25 -68 -43.5t-64.5 -28.5t-74.5 -15.5t-98 -5.5q-63 0 -122 19.5 t-103 55.5t-69.5 86t-25.5 114zM221 1014l211 301h222l211 -301h-232l-92 143l-92 -143h-228zM383 283q0 -39 31.5 -60.5t70.5 -21.5q59 0 102.5 14t82.5 49v148q-51 0 -102.5 -6.5t-92.5 -21.5t-66.5 -40t-25.5 -61z" />
<glyph unicode="&#xe3;" horiz-adv-x="1083" d="M45 250q0 102 57.5 166.5t147.5 101.5t200.5 52.5t219.5 19.5v31q0 47 -32 64t-99 17q-92 0 -169 -20t-147 -55l-98 190q88 49 195.5 69.5t228.5 20.5q219 0 328.5 -78.5t109.5 -267.5v-561h-317v68q-37 -25 -68 -43.5t-64.5 -28.5t-74.5 -15.5t-98 -5.5q-63 0 -122 19.5 t-103 55.5t-69.5 86t-25.5 114zM164 1014q0 117 69.5 185.5t192.5 68.5q35 0 71 -12.5t70 -28.5q35 -14 65 -25.5t56 -11.5q35 0 59.5 16.5t24.5 57.5h170q0 -119 -69.5 -186.5t-192.5 -67.5q-35 0 -71 12t-70 27q-35 16 -66 27t-55 11q-35 0 -59.5 -16t-24.5 -57h-170z M383 283q0 -39 31.5 -60.5t70.5 -21.5q59 0 102.5 14t82.5 49v148q-51 0 -102.5 -6.5t-92.5 -21.5t-66.5 -40t-25.5 -61z" />
<glyph unicode="&#xe4;" horiz-adv-x="1083" d="M45 250q0 102 57.5 166.5t147.5 101.5t200.5 52.5t219.5 19.5v31q0 47 -32 64t-99 17q-92 0 -169 -20t-147 -55l-98 190q88 49 195.5 69.5t228.5 20.5q219 0 328.5 -78.5t109.5 -267.5v-561h-317v68q-37 -25 -68 -43.5t-64.5 -28.5t-74.5 -15.5t-98 -5.5q-63 0 -122 19.5 t-103 55.5t-69.5 86t-25.5 114zM197 1014v266h258v-266h-258zM383 283q0 -39 31.5 -60.5t70.5 -21.5q59 0 102.5 14t82.5 49v148q-51 0 -102.5 -6.5t-92.5 -21.5t-66.5 -40t-25.5 -61zM635 1014v266h258v-266h-258z" />
<glyph unicode="&#xe5;" horiz-adv-x="1083" d="M45 250q0 102 57.5 166.5t147.5 101.5t200.5 52.5t219.5 19.5v31q0 47 -32 64t-99 17q-92 0 -169 -20t-147 -55l-98 190q88 49 195.5 69.5t228.5 20.5q219 0 328.5 -78.5t109.5 -267.5v-561h-317v68q-37 -25 -68 -43.5t-64.5 -28.5t-74.5 -15.5t-98 -5.5q-63 0 -122 19.5 t-103 55.5t-69.5 86t-25.5 114zM285 1264q0 53 21.5 101t57 84t84 57.5t101.5 21.5t101.5 -21.5t84 -57.5t57 -84t21.5 -101t-21.5 -101.5t-57 -84.5t-84 -57.5t-101.5 -21.5t-101.5 21.5t-84 57.5t-57 84t-21.5 102zM383 283q0 -39 31.5 -60.5t70.5 -21.5q59 0 102.5 14 t82.5 49v148q-51 0 -102.5 -6.5t-92.5 -21.5t-66.5 -40t-25.5 -61zM440 1264q0 -47 31 -78t78 -31t78 31t31 78t-31 77.5t-78 30.5t-78 -30.5t-31 -77.5z" />
<glyph unicode="&#xe6;" horiz-adv-x="1642" d="M45 250q0 102 58.5 166.5t150.5 101.5t203.5 52.5t220.5 19.5v31q0 47 -36 64t-103 17q-92 0 -169 -20t-147 -55l-98 190q88 49 195.5 69.5t228.5 20.5q100 0 181 -20.5t128 -65.5q47 39 112.5 62.5t135.5 23.5q104 0 191 -35.5t149.5 -103.5t96.5 -164t34 -217h-627 q6 -76 59.5 -131t147.5 -55q104 0 171 23.5t124 70.5l135 -172q-100 -84 -204.5 -116t-225.5 -32q-117 0 -223.5 40t-175.5 126q-47 -45 -88 -76.5t-86 -51t-98.5 -29t-120.5 -9.5q-63 0 -122 19.5t-103 55.5t-69.5 86t-25.5 114zM383 283q0 -39 31.5 -60.5t70.5 -21.5 q59 0 106.5 14t86.5 49v148q-51 0 -103.5 -6.5t-95.5 -21.5t-69.5 -40t-26.5 -61zM952 555h299q-6 68 -46 107.5t-103 39.5q-68 0 -103.5 -40.5t-46.5 -106.5z" />
<glyph unicode="&#xe7;" horiz-adv-x="946" d="M51 438q0 96 36 181.5t100.5 150t153.5 101t196 36.5q113 0 199.5 -39t158.5 -125l-182 -170q-76 82 -176 82q-86 0 -138.5 -61.5t-52.5 -155.5q0 -41 13.5 -78.5t39 -67.5t60.5 -48.5t78 -18.5q61 0 99 23.5t75 66.5l213 -149q-78 -96 -161 -141t-204 -50l-27 -32 q84 4 134.5 -34t50.5 -95q0 -41 -19.5 -75t-51.5 -57.5t-71.5 -36t-82.5 -12.5q-63 0 -116.5 18.5t-96.5 47.5l65 88q63 -41 141 -41q29 0 49.5 13.5t20.5 41.5q0 25 -21.5 32t-46.5 7q-16 0 -38.5 -2t-38.5 -8l-43 70l65 86q-84 16 -153.5 57t-121 100.5t-79 134 t-27.5 160.5z" />
<glyph unicode="&#xe8;" horiz-adv-x="1032" d="M51 449q0 111 35 195.5t94.5 143t141 89t174.5 30.5q104 0 191 -35.5t149.5 -103.5t96.5 -164t34 -217h-619q8 -78 56.5 -132t142.5 -54q104 0 170.5 23.5t124.5 70.5l135 -172q-100 -84 -204.5 -116t-225.5 -32q-96 0 -186.5 27t-159 84t-109.5 146.5t-41 216.5z M193 1356h293l157 -342h-227zM350 555h291q-6 68 -46 107.5t-103 39.5q-68 0 -99 -42t-43 -105z" />
<glyph unicode="&#xe9;" horiz-adv-x="1032" d="M51 449q0 111 35 195.5t94.5 143t141 89t174.5 30.5q104 0 191 -35.5t149.5 -103.5t96.5 -164t34 -217h-619q8 -78 56.5 -132t142.5 -54q104 0 170.5 23.5t124.5 70.5l135 -172q-100 -84 -204.5 -116t-225.5 -32q-96 0 -186.5 27t-159 84t-109.5 146.5t-41 216.5z M350 555h291q-6 68 -46 107.5t-103 39.5q-68 0 -99 -42t-43 -105zM383 1014l157 342h293l-223 -342h-227z" />
<glyph unicode="&#xea;" horiz-adv-x="1032" d="M51 449q0 111 35 195.5t94.5 143t141 89t174.5 30.5q104 0 191 -35.5t149.5 -103.5t96.5 -164t34 -217h-619q8 -78 56.5 -132t142.5 -54q104 0 170.5 23.5t124.5 70.5l135 -172q-100 -84 -204.5 -116t-225.5 -32q-96 0 -186.5 27t-159 84t-109.5 146.5t-41 216.5z M180 1014l211 301h222l211 -301h-232l-92 143l-92 -143h-228zM350 555h291q-6 68 -46 107.5t-103 39.5q-68 0 -99 -42t-43 -105z" />
<glyph unicode="&#xeb;" horiz-adv-x="1032" d="M51 449q0 111 35 195.5t94.5 143t141 89t174.5 30.5q104 0 191 -35.5t149.5 -103.5t96.5 -164t34 -217h-619q8 -78 56.5 -132t142.5 -54q104 0 170.5 23.5t124.5 70.5l135 -172q-100 -84 -204.5 -116t-225.5 -32q-96 0 -186.5 27t-159 84t-109.5 146.5t-41 216.5z M152 1014v266h258v-266h-258zM350 555h291q-6 68 -46 107.5t-103 39.5q-68 0 -99 -42t-43 -105zM590 1014v266h258v-266h-258z" />
<glyph unicode="&#xec;" horiz-adv-x="460" d="M-63 1356h293l157 -342h-227z" />
<glyph unicode="&#xed;" horiz-adv-x="460" d="M144 1014l157 342h293l-223 -342h-227z" />
<glyph unicode="&#xee;" horiz-adv-x="460" d="M-60 1014l211 301h222l211 -301h-232l-92 143l-92 -143h-228z" />
<glyph unicode="&#xef;" horiz-adv-x="522" d="M-76 1014v266h258v-266h-258zM102 0v883h318v-883h-318zM336 1014v266h258v-266h-258z" />
<glyph unicode="&#xf0;" horiz-adv-x="1056" d="M51 442q0 98 29 183.5t83 148t130 98t172 35.5q63 0 117.5 -22.5t89.5 -61.5q-12 66 -46 134.5t-85 136.5l-248 -101l-88 181l196 77q-72 70 -145 121l184 162q55 -37 109.5 -81t107.5 -97l170 67l86 -180l-118 -47q92 -135 151.5 -304t59.5 -386q0 -127 -39 -225.5 t-105.5 -166t-152.5 -103.5t-181 -36q-98 0 -184 35t-151.5 97.5t-103.5 148.5t-38 186zM360 442q0 -39 10.5 -76.5t32 -68.5t53 -50.5t72.5 -19.5t73 19.5t52.5 50.5t30.5 69.5t10 77.5q0 37 -10 75t-30.5 67.5t-52.5 49t-75 19.5q-41 0 -71.5 -19.5t-52 -50t-32 -68.5 t-10.5 -75z" />
<glyph unicode="&#xf1;" horiz-adv-x="1103" d="M102 0v883h318v-92q43 59 109.5 87.5t144.5 28.5q88 0 151.5 -29.5t104.5 -79.5t59.5 -119t18.5 -149v-530h-318v455q0 90 -26.5 138t-98.5 48q-70 0 -107.5 -47t-37.5 -129v-465h-318zM168 1014q0 117 69.5 185.5t192.5 68.5q35 0 71 -12.5t70 -28.5q35 -14 65 -25.5 t56 -11.5q35 0 59.5 16.5t24.5 57.5h170q0 -119 -69.5 -186.5t-192.5 -67.5q-35 0 -71 12t-70 27q-35 16 -66 27t-55 11q-35 0 -59.5 -16t-24.5 -57h-170z" />
<glyph unicode="&#xf2;" horiz-adv-x="1054" d="M51 442q0 98 39 183.5t103.5 148t150.5 98t182 35.5t183.5 -34.5t153 -96t103.5 -147t38 -185.5q0 -98 -39 -184t-103.5 -148.5t-151.5 -99.5t-182 -37q-98 0 -184 35t-151.5 97.5t-103.5 148.5t-38 186zM201 1356h293l157 -342h-227zM360 442q0 -39 10.5 -76.5t32 -68.5 t53 -50.5t72.5 -19.5t73 19.5t52.5 50.5t30.5 69.5t10 77.5q0 37 -10 75t-30.5 67.5t-52.5 49t-75 19.5q-41 0 -71.5 -19.5t-52 -50t-32 -68.5t-10.5 -75z" />
<glyph unicode="&#xf3;" horiz-adv-x="1054" d="M51 442q0 98 39 183.5t103.5 148t150.5 98t182 35.5t183.5 -34.5t153 -96t103.5 -147t38 -185.5q0 -98 -39 -184t-103.5 -148.5t-151.5 -99.5t-182 -37q-98 0 -184 35t-151.5 97.5t-103.5 148.5t-38 186zM360 442q0 -39 10.5 -76.5t32 -68.5t53 -50.5t72.5 -19.5t73 19.5 t52.5 50.5t30.5 69.5t10 77.5q0 37 -10 75t-30.5 67.5t-52.5 49t-75 19.5q-41 0 -71.5 -19.5t-52 -50t-32 -68.5t-10.5 -75zM381 1014l157 342h293l-223 -342h-227z" />
<glyph unicode="&#xf4;" horiz-adv-x="1054" d="M51 442q0 98 39 183.5t103.5 148t150.5 98t182 35.5t183.5 -34.5t153 -96t103.5 -147t38 -185.5q0 -98 -39 -184t-103.5 -148.5t-151.5 -99.5t-182 -37q-98 0 -184 35t-151.5 97.5t-103.5 148.5t-38 186zM202 1014l211 301h222l211 -301h-232l-92 143l-92 -143h-228z M360 442q0 -39 10.5 -76.5t32 -68.5t53 -50.5t72.5 -19.5t73 19.5t52.5 50.5t30.5 69.5t10 77.5q0 37 -10 75t-30.5 67.5t-52.5 49t-75 19.5q-41 0 -71.5 -19.5t-52 -50t-32 -68.5t-10.5 -75z" />
<glyph unicode="&#xf5;" horiz-adv-x="1054" d="M51 442q0 98 39 183.5t103.5 148t150.5 98t182 35.5t183.5 -34.5t153 -96t103.5 -147t38 -185.5q0 -98 -39 -184t-103.5 -148.5t-151.5 -99.5t-182 -37q-98 0 -184 35t-151.5 97.5t-103.5 148.5t-38 186zM133 1014q0 117 69.5 185.5t192.5 68.5q35 0 71 -12.5t70 -28.5 q35 -14 65 -25.5t56 -11.5q35 0 59.5 16.5t24.5 57.5h170q0 -119 -69.5 -186.5t-192.5 -67.5q-35 0 -71 12t-70 27q-35 16 -66 27t-55 11q-35 0 -59.5 -16t-24.5 -57h-170zM360 442q0 -39 10.5 -76.5t32 -68.5t53 -50.5t72.5 -19.5t73 19.5t52.5 50.5t30.5 69.5t10 77.5 q0 37 -10 75t-30.5 67.5t-52.5 49t-75 19.5q-41 0 -71.5 -19.5t-52 -50t-32 -68.5t-10.5 -75z" />
<glyph unicode="&#xf6;" horiz-adv-x="1054" d="M51 442q0 98 39 183.5t103.5 148t150.5 98t182 35.5t183.5 -34.5t153 -96t103.5 -147t38 -185.5q0 -98 -39 -184t-103.5 -148.5t-151.5 -99.5t-182 -37q-98 0 -184 35t-151.5 97.5t-103.5 148.5t-38 186zM168 1014v266h258v-266h-258zM360 442q0 -39 10.5 -76.5t32 -68.5 t53 -50.5t72.5 -19.5t73 19.5t52.5 50.5t30.5 69.5t10 77.5q0 37 -10 75t-30.5 67.5t-52.5 49t-75 19.5q-41 0 -71.5 -19.5t-52 -50t-32 -68.5t-10.5 -75zM606 1014v266h258v-266h-258z" />
<glyph unicode="&#xf7;" horiz-adv-x="1495" d="M0 492v512h250v-512h-250zM492 0v250h512v-250h-512zM492 492v512h512v-512h-512zM492 1245v250h512v-250h-512zM1245 492v512h250v-512h-250z" />
<glyph unicode="&#xf8;" horiz-adv-x="1054" d="M45 72l96 94q-43 57 -66.5 128t-23.5 148q0 98 39 183.5t103.5 148t150.5 98t182 35.5q78 0 152 -23.5t133 -64.5l102 101l115 -101l-110 -106q41 -55 63.5 -123t22.5 -146q0 -98 -39 -184t-103.5 -148.5t-151.5 -99.5t-182 -37q-156 0 -276 86l-96 -94zM360 442 q0 -39 10.5 -76.5t32 -68.5t53 -50.5t72.5 -19.5t73 19.5t52.5 50.5t30.5 69.5t10 77.5q0 37 -10 75t-30.5 67.5t-52.5 49t-75 19.5q-41 0 -71.5 -19.5t-52 -50t-32 -68.5t-10.5 -75z" />
<glyph unicode="&#xf9;" horiz-adv-x="1103" d="M96 352v531h318v-455q0 -90 26.5 -138t98.5 -48q70 0 107.5 47t37.5 129v465h317v-883h-317v92q-43 -59 -109.5 -88t-144.5 -29q-90 0 -152.5 30t-103.5 80t-59.5 118.5t-18.5 148.5zM242 1356h293l157 -342h-227z" />
<glyph unicode="&#xfa;" horiz-adv-x="1103" d="M96 352v531h318v-455q0 -90 26.5 -138t98.5 -48q70 0 107.5 47t37.5 129v465h317v-883h-317v92q-43 -59 -109.5 -88t-144.5 -29q-90 0 -152.5 30t-103.5 80t-59.5 118.5t-18.5 148.5zM410 1014l157 342h293l-223 -342h-227z" />
<glyph unicode="&#xfb;" horiz-adv-x="1103" d="M96 352v531h318v-455q0 -90 26.5 -138t98.5 -48q70 0 107.5 47t37.5 129v465h317v-883h-317v92q-43 -59 -109.5 -88t-144.5 -29q-90 0 -152.5 30t-103.5 80t-59.5 118.5t-18.5 148.5zM225 1014l211 301h222l211 -301h-232l-92 143l-92 -143h-228z" />
<glyph unicode="&#xfc;" horiz-adv-x="1103" d="M96 352v531h318v-455q0 -90 26.5 -138t98.5 -48q70 0 107.5 47t37.5 129v465h317v-883h-317v92q-43 -59 -109.5 -88t-144.5 -29q-90 0 -152.5 30t-103.5 80t-59.5 118.5t-18.5 148.5zM199 1014v266h258v-266h-258zM637 1014v266h258v-266h-258z" />
<glyph unicode="&#xfd;" horiz-adv-x="987" d="M20 883h334l121 -402q6 -20 11.5 -38.5t9.5 -34.5q4 -18 8 -37q2 16 8 35q4 16 9 35.5t11 39.5l105 402h330l-371 -1080q-31 -88 -89 -141t-163 -53h-184v260h67q47 0 84 24.5t37 63.5q0 31 -6 59.5t-18 63.5zM369 1014l157 342h293l-223 -342h-227z" />
<glyph unicode="&#xfe;" horiz-adv-x="1150" d="M102 -367v1862h318v-702q37 53 111.5 83.5t154.5 30.5q92 0 169 -38t131 -101t84 -148.5t30 -177.5q0 -90 -30 -175t-84 -149.5t-131 -103.5t-169 -39q-80 0 -154.5 31t-111.5 84v-457h-318zM420 438q0 -90 50 -143t132 -53q78 0 129 52t51 144t-51 147.5t-129 55.5 q-84 0 -133 -55.5t-49 -147.5z" />
<glyph unicode="&#xff;" horiz-adv-x="987" d="M20 883h334l121 -402q6 -20 11.5 -38.5t9.5 -34.5q4 -18 8 -37q2 16 8 35q4 16 9 35.5t11 39.5l105 402h330l-371 -1080q-31 -88 -89 -141t-163 -53h-184v260h67q47 0 84 24.5t37 63.5q0 31 -6 59.5t-18 63.5zM148 1014v266h258v-266h-258zM586 1014v266h258v-266h-258z " />
<glyph unicode="&#x152;" horiz-adv-x="2281" d="M82 754q0 162 55.5 301t156.5 242.5t243.5 163t316.5 59.5q127 0 246 -48.5t194 -128.5v152h840v-276h-553v-351h514v-276h-514v-316h584v-276h-871v160q-31 -39 -80 -73t-109.5 -58.5t-126 -39t-128.5 -14.5q-174 0 -315.5 61.5t-241.5 168t-155.5 248t-55.5 301.5z M420 754q0 -102 34.5 -192.5t93 -157t136.5 -104.5t166 -38q100 0 181 41t137.5 109.5t86 158t29.5 183.5q0 98 -30.5 185t-87 152.5t-135.5 103.5t-177 38q-96 0 -176 -40t-137.5 -106.5t-89 -152.5t-31.5 -180z" />
<glyph unicode="&#x153;" horiz-adv-x="1673" d="M51 442q0 98 39 183.5t103.5 148t150.5 98t182 35.5q98 0 182.5 -41t125.5 -106q18 31 51 57.5t73.5 47t87 31.5t91.5 11q104 0 191 -35.5t149.5 -103.5t96.5 -164t34 -217h-619q8 -78 56.5 -132t142.5 -54q104 0 170.5 23.5t124.5 70.5l135 -172q-100 -84 -204.5 -116 t-225.5 -32q-49 0 -101.5 11.5t-99.5 32t-86 49t-63 63.5q-20 -31 -54 -59.5t-76 -50t-89.5 -34t-90.5 -12.5q-98 0 -184 35t-151.5 97.5t-103.5 148.5t-38 186zM360 442q0 -39 10.5 -76.5t32 -68.5t53 -50.5t72.5 -19.5t73 19.5t52.5 50.5t30.5 69.5t10 77.5q0 37 -10 75 t-30.5 67.5t-52.5 49t-75 19.5q-41 0 -71.5 -19.5t-52 -50t-32 -68.5t-10.5 -75zM1012 555h291q-6 68 -46 107.5t-104 39.5q-68 0 -98.5 -42t-42.5 -105z" />
<glyph unicode="&#x178;" horiz-adv-x="1413" d="M31 1495h372l275 -518q6 -12 11 -26.5t9 -26.5q4 -14 9 -27q2 12 8 27q6 25 20 53l273 518h374l-516 -889v-606h-327v606zM357 1618v266h258v-266h-258zM795 1618v266h258v-266h-258z" />
<glyph unicode="&#x2c6;" d="M190 1014l211 301h222l211 -301h-232l-92 143l-92 -143h-228z" />
<glyph unicode="&#x2dc;" d="M123 1014q0 117 69.5 185.5t192.5 68.5q35 0 71 -12.5t70 -28.5q35 -14 65 -25.5t56 -11.5q35 0 59.5 16.5t24.5 57.5h170q0 -119 -69.5 -186.5t-192.5 -67.5q-35 0 -71 12t-70 27q-35 16 -66 27t-55 11q-35 0 -59.5 -16t-24.5 -57h-170z" />
<glyph unicode="&#x2000;" horiz-adv-x="980" />
<glyph unicode="&#x2001;" horiz-adv-x="1960" />
<glyph unicode="&#x2002;" horiz-adv-x="980" />
<glyph unicode="&#x2003;" horiz-adv-x="1960" />
<glyph unicode="&#x2004;" horiz-adv-x="653" />
<glyph unicode="&#x2005;" horiz-adv-x="490" />
<glyph unicode="&#x2006;" horiz-adv-x="326" />
<glyph unicode="&#x2007;" horiz-adv-x="326" />
<glyph unicode="&#x2008;" horiz-adv-x="245" />
<glyph unicode="&#x2009;" horiz-adv-x="392" />
<glyph unicode="&#x200a;" horiz-adv-x="108" />
<glyph unicode="&#x2010;" horiz-adv-x="778" d="M82 418v270h614v-270h-614z" />
<glyph unicode="&#x2011;" horiz-adv-x="778" d="M82 418v270h614v-270h-614z" />
<glyph unicode="&#x2012;" horiz-adv-x="778" d="M82 418v270h614v-270h-614z" />
<glyph unicode="&#x2013;" horiz-adv-x="942" d="M82 418v270h778v-270h-778z" />
<glyph unicode="&#x2014;" horiz-adv-x="1331" d="M82 418v270h1167v-270h-1167z" />
<glyph unicode="&#x2018;" horiz-adv-x="512" d="M102 932v184q0 115 48.5 213t115.5 191l195 -115q-31 -47 -47.5 -109.5t-16.5 -128.5v-235h-295z" />
<glyph unicode="&#x2019;" horiz-adv-x="512" d="M39 1022q31 47 47 109.5t16 128.5v235h295v-184q0 -115 -48 -213.5t-116 -190.5z" />
<glyph unicode="&#x201a;" horiz-adv-x="512" d="M39 -238q31 47 47 109.5t16 128.5v236h295v-185q0 -115 -48 -213t-116 -190z" />
<glyph unicode="&#x201c;" horiz-adv-x="921" d="M102 932v184q0 115 48.5 213t115.5 191l195 -115q-31 -47 -47.5 -109.5t-16.5 -128.5v-235h-295zM524 932v184q0 115 48.5 213t115.5 191l195 -115q-31 -47 -47.5 -109.5t-16.5 -128.5v-235h-295z" />
<glyph unicode="&#x201d;" horiz-adv-x="921" d="M39 1022q31 47 47 109.5t16 128.5v235h295v-184q0 -115 -48 -213.5t-116 -190.5zM461 1022q31 47 47 109.5t16 128.5v235h295v-184q0 -115 -48 -213.5t-116 -190.5z" />
<glyph unicode="&#x201e;" horiz-adv-x="921" d="M39 -238q31 47 47 109.5t16 128.5v236h295v-185q0 -115 -48 -213t-116 -190zM461 -238q31 47 47 109.5t16 128.5v236h295v-185q0 -115 -48 -213t-116 -190z" />
<glyph unicode="&#x2022;" horiz-adv-x="782" d="M51 778q0 70 26.5 131.5t73 107.5t109 72.5t131.5 26.5q70 0 132.5 -26.5t109.5 -72.5t73.5 -107.5t26.5 -131.5q0 -72 -26.5 -134t-73.5 -109.5t-109.5 -74t-132.5 -26.5t-132 26.5t-108.5 74t-73 110t-26.5 133.5z" />
<glyph unicode="&#x2026;" horiz-adv-x="1495" d="M102 0v309h308v-309h-308zM594 0v309h307v-309h-307zM1085 0v309h308v-309h-308z" />
<glyph unicode="&#x202f;" horiz-adv-x="392" />
<glyph unicode="&#x2039;" horiz-adv-x="495" d="M82 311v279l311 227v-268l-133 -98l133 -99v-268z" />
<glyph unicode="&#x203a;" horiz-adv-x="495" d="M102 84v268l134 99l-134 98v268l312 -227v-279z" />
<glyph unicode="&#x205f;" horiz-adv-x="490" />
<glyph unicode="&#x2122;" horiz-adv-x="1677" d="M66 1339v156h495v-156h-170v-741h-164v741h-161zM657 598v897h146l317 -438l307 438h152v-897h-164v637l-260 -383h-70l-264 371v-625h-164z" />
</font>
</defs>
</svg>
