<svg width="109" height="109" viewBox="0 0 109 109" fill="none" xmlns="http://www.w3.org/2000/svg">
<g clip-path="url(#clip0)">
<path d="M82.0801 66.3602C81.5537 64.5776 80.9149 63.0262 80.1648 61.7087C79.4151 60.3899 78.3413 59.1035 76.9413 57.8452C75.543 56.5876 74.2852 55.5747 73.1699 54.8048C72.0552 54.0341 70.524 53.1726 68.5771 52.2189C66.632 51.2655 65.0907 50.5561 63.9562 50.0895C62.8202 49.6236 61.177 48.9848 59.0275 48.1737C57.1217 47.4442 55.7028 46.8865 54.7692 46.5015C53.8367 46.1161 52.6104 45.569 51.0896 44.8589C49.5695 44.1498 48.4339 43.5209 47.6836 42.9738C46.9334 42.4267 46.1328 41.7577 45.281 40.9671C44.4292 40.1764 43.8312 39.3349 43.4862 38.4428C43.1422 37.5506 42.9696 36.5771 42.9696 35.5227C42.9696 32.7658 44.1857 30.5145 46.6187 28.7713C49.052 27.0282 52.1951 26.1561 56.0478 26.1561C57.75 26.1561 59.4856 26.389 61.2483 26.8558C63.0111 27.3226 64.5219 27.8484 65.7791 28.4368C67.0374 29.0253 68.223 29.6742 69.3386 30.3835C70.4539 31.0934 71.2443 31.6303 71.7111 31.9952C72.1775 32.3604 72.473 32.6035 72.5933 32.7254C73.1213 33.1308 73.6673 33.2725 74.2351 33.1513C74.8432 33.1108 75.31 32.7859 75.6351 32.1782L80.563 23.2974C81.0494 22.4867 80.9488 21.7161 80.2589 20.9858C80.0152 20.7425 79.7123 20.4589 79.3447 20.1342C78.9809 19.8095 78.1898 19.2217 76.9722 18.3697C75.7559 17.5184 74.4684 16.758 73.1108 16.0888C71.7518 15.4202 69.9873 14.7406 67.8176 14.0516C65.6491 13.3615 63.4081 12.8956 61.096 12.6525V1.94644C61.096 1.37908 60.9139 0.9125 60.55 0.54733C60.1852 0.183011 59.7186 0 59.15 0H50.9377C50.4106 0 49.9545 0.192386 49.5693 0.577796C49.1841 0.963206 48.9915 1.41914 48.9915 1.94644V12.8954C42.6247 14.1115 37.4543 16.8285 33.4803 21.0459C29.5066 25.2634 27.5191 30.1694 27.5191 35.766C27.5191 37.4285 27.6921 39.01 28.0368 40.5096C28.3811 42.0106 28.8072 43.359 29.3143 44.5551C29.8209 45.752 30.541 46.9276 31.4735 48.0836C32.4061 49.2392 33.2883 50.2329 34.1194 51.0638C34.951 51.8945 36.0358 52.7565 37.3736 53.6483C38.7122 54.541 39.8578 55.2613 40.8109 55.8084C41.7643 56.3539 43.0314 56.9845 44.6124 57.6924C46.1939 58.4025 47.4413 58.9392 48.3538 59.305C49.2663 59.6696 50.5131 60.1771 52.0952 60.8245C54.2848 61.6761 55.9071 62.3353 56.9613 62.8019C58.0164 63.2684 59.3541 63.9172 60.9771 64.7485C62.5987 65.579 63.7843 66.3396 64.5351 67.0292C65.2853 67.7189 65.9642 68.5704 66.5729 69.5839C67.1816 70.5974 67.4865 71.672 67.4865 72.808C67.4865 76.0117 66.2395 78.4848 63.7449 80.2271C61.2513 81.9714 58.3611 82.8432 55.0769 82.8432C53.5778 82.8432 52.0763 82.6819 50.5764 82.3577C45.3046 81.302 40.3778 78.7675 35.7955 74.7532L35.6738 74.6315C35.3087 74.1867 34.8218 74.0039 34.2142 74.0855C33.5653 74.1665 33.0987 74.41 32.8151 74.8163L26.5497 83.0273C25.9412 83.8381 25.9823 84.6693 26.6716 85.5208C26.8746 85.7643 27.2293 86.1302 27.736 86.6159C28.2439 87.1036 29.1868 87.8627 30.5649 88.8988C31.9433 89.9333 33.4438 90.9053 35.0662 91.8188C36.6884 92.7309 38.746 93.6328 41.2405 94.5252C43.7349 95.4162 46.3194 96.0445 48.996 96.4092V107.054C48.996 107.582 49.1888 108.038 49.5738 108.423C49.9592 108.809 50.4151 109.001 50.9422 109.001H59.1545C59.7231 109.001 60.1897 108.819 60.5542 108.454C60.9188 108.09 61.1003 107.623 61.1003 107.054V96.4095C67.5491 95.3553 72.7904 92.5875 76.8248 88.1064C80.8595 83.6253 82.8776 78.2826 82.8776 72.0788C82.8754 70.0516 82.6123 68.1456 82.0801 66.3602Z" fill="#ED222A"/>
</g>
<defs>
<clipPath id="clip0">
<rect width="109" height="109" fill="white"/>
</clipPath>
</defs>
</svg>
