<svg width="25" height="24" viewBox="0 0 25 24" fill="none" xmlns="http://www.w3.org/2000/svg">
<path d="M3.34117 0.923096H20.9709C22.252 0.923096 23.2906 1.95628 23.2906 3.23077V20.7692C23.2906 22.0438 22.252 23.0769 20.9709 23.0769H3.34117C2.06004 23.0769 1.02148 22.0438 1.02148 20.7693V3.23077C1.02148 1.95628 2.06004 0.923096 3.34117 0.923096Z" fill="#2196F3"/>
<path d="M18.1878 7.38455H20.0436C20.2998 7.38455 20.5075 7.1779 20.5075 6.923V4.15377C20.5075 3.89891 20.2997 3.69226 20.0435 3.69226H18.1877C15.3693 3.69226 13.0844 5.96528 13.0844 8.76917V11.0768H10.7647C10.5085 11.0768 10.3008 11.2835 10.3008 11.5384V14.3076C10.3008 14.5625 10.5085 14.7692 10.7647 14.7692H13.0844V23.0769H16.7959V14.7692H19.1156C19.3152 14.7691 19.4924 14.6419 19.5555 14.4535L20.4833 11.6843C20.5643 11.4424 20.4329 11.1811 20.1898 11.1005C20.1426 11.0849 20.0932 11.0769 20.0435 11.0768H16.7959V8.76917C16.796 8.00447 17.4191 7.38455 18.1878 7.38455Z" fill="#FAFAFA"/>
</svg>
