<svg width="109" height="45" viewBox="0 0 109 45" fill="none" xmlns="http://www.w3.org/2000/svg">
<path d="M0.376534 17H3.42731V11.0918H9.53962V8.33105H3.42731V4.15234H10.7427V1.38086H0.376534V17ZM19.4224 6.25781V11.4678C19.4224 13.5518 18.2945 14.5938 17.0377 14.5938C15.6949 14.5938 15.1148 13.9492 15.1148 11.9834V6.25781H12.2359V12.7354C12.2359 16.001 13.8687 17.1826 16.189 17.1826C17.4029 17.1826 18.5416 16.6885 19.3795 15.6895H19.4224V17H22.3013V6.25781H19.4224ZM25.2554 17H28.1343V0.811523H25.2554V17ZM31.5826 17H34.4615V8.65332H36.857V6.26855H34.4615V4.63574C34.4615 3.58301 34.8697 3.18555 35.5465 3.18555C35.9547 3.18555 36.5455 3.35742 37.1578 3.6582L37.7379 1.40234C37.2545 1.08008 36.2554 0.628906 34.9556 0.628906C32.8287 0.628906 31.5826 1.91797 31.5826 4.4209V6.26855H30.4439V8.65332H31.5826V17ZM40.3804 4.75391C41.358 4.75391 42.1744 3.96973 42.1744 2.99219C42.1744 2.03613 41.358 1.24121 40.3804 1.24121C39.3922 1.24121 38.5972 2.03613 38.5972 2.99219C38.5972 3.96973 39.3922 4.75391 40.3804 4.75391ZM38.941 17H41.8199V6.25781H38.941V17ZM44.9996 17H47.8785V0.811523H44.9996V17ZM51.0582 17H53.9371V0.811523H51.0582V17ZM70.0611 6.0752C68.525 6.0752 67.2037 6.6875 66.3228 7.81543H66.2906C65.6461 6.62305 64.5289 6.0752 63.1002 6.0752C61.9078 6.0752 60.7369 6.63379 59.8883 7.68652H59.856V6.25781H56.9771V17H59.856V11.6289C59.856 9.70605 60.8336 8.66406 62.1226 8.66406C63.4654 8.66406 64.0347 9.73828 64.0347 11.457V17.0107H66.9029V11.6289C66.9029 9.70605 67.8912 8.66406 69.0943 8.66406C70.4586 8.66406 70.9742 9.73828 70.9742 11.457V17.0107H73.8531V10.7588C73.8531 7.48242 72.4029 6.0752 70.0718 6.0752H70.0611ZM86.6363 11.543C86.6363 8.38477 84.5201 6.0752 81.3619 6.0752C78.3111 6.0752 76.0338 8.35254 76.0338 11.6182C76.0338 14.9697 78.4185 17.1826 81.566 17.1826C83.7252 17.1826 85.2935 16.3125 86.2066 15.1523L84.3375 13.4121C83.7467 14.1318 82.898 14.6367 81.7701 14.626C80.3951 14.6152 79.3746 13.8418 79.0308 12.5635H86.5611C86.6148 12.3701 86.6363 11.876 86.6363 11.5322V11.543ZM81.4586 8.61035C82.7047 8.61035 83.4888 9.35156 83.7789 10.4902H79.0416C79.3746 9.24414 80.2877 8.61035 81.4586 8.61035ZM95.2945 6.0752C93.9732 6.0752 92.7271 6.62305 91.8463 7.6543H91.814V6.26855H88.9351V17.0107H91.814V11.6074C91.814 9.69531 92.7916 8.6748 94.2525 8.6748C95.5845 8.6748 96.315 9.30859 96.315 11.3604V17.0215H99.1939V10.6406C99.1939 7.33203 97.5933 6.08594 95.2945 6.08594V6.0752ZM105.306 17.1826C106.746 17.1826 107.455 16.8926 108.142 16.5166L107.401 14.2178C106.918 14.4648 106.38 14.5938 106.047 14.5938C105.371 14.5938 105.102 14.1426 105.102 13.2188V8.65332H108.024V6.26855H105.102V2.44434L102.223 2.75586V6.25781H100.956V8.64258H102.223V13.6055C102.223 16.0225 103.448 17.1826 105.295 17.1826H105.306ZM7.1861 31.0684C5.9947 31.0684 4.96931 31.5078 4.23689 32.3477H4.18806V26.2832H1.57087V41H4.07087V39.8184H4.1197C4.80329 40.6973 5.81892 41.166 7.11774 41.166C9.81306 41.166 11.7857 39.1738 11.7857 36.1562C11.7857 33.1875 9.80329 31.0781 7.1861 31.0781V31.0684ZM6.62946 38.832C5.19392 38.832 4.0611 37.7676 4.0611 36.166C4.0611 34.6035 5.13532 33.4316 6.63923 33.4316C8.03571 33.4316 9.12946 34.4961 9.12946 36.166C9.12946 37.748 8.10407 38.832 6.62946 38.832ZM19.6959 31.2344L17.4595 37.2891H17.4302L15.0377 31.2344H12.3033L16.2095 40.3945L14.4713 44.9551H17.147L22.4107 31.2344H19.6959Z" fill="#0060A1"/>
<path d="M28.8756 41H32.2349V35.668H37.2349V41H40.6041V26.8008H37.2349V32.6895H32.2349V26.8008H28.8756V41ZM52.0982 41H55.5943L50.3697 26.8008H47.1666L41.9615 41H45.4576L46.2779 38.4707H51.2681L52.0982 41ZM47.1959 35.6387L48.7486 30.8438H48.7974L50.3502 35.6387H47.1959ZM58.2213 41H61.5513V29.7891H65.3013V26.8008H54.4713V29.7891H58.2213V41ZM66.942 41H76.6392V38.0312H70.2232V35.4531H74.9693V32.5137H70.2232V29.7891H76.2291V26.8008H66.9517L66.942 41ZM84.9986 41.1758C87.5279 41.1758 89.5103 39.9844 90.7213 38.4609L88.2701 36.3613C87.5181 37.3086 86.2877 37.9922 85.0084 37.9922C82.7037 37.9922 81.1998 36.1953 81.1998 33.9492C81.1998 31.332 82.9283 29.7988 85.0084 29.7988C86.4049 29.7988 87.5865 30.6191 88.2799 31.4395L90.731 29.3496C89.149 27.4258 86.9517 26.6055 85.0084 26.6055C80.3306 26.6055 77.6939 29.8867 77.6939 33.9492C77.6939 38.6562 81.0924 41.1855 85.0084 41.1855L84.9986 41.1758ZM99.1197 41.1953C103.358 41.1953 106.415 38.2363 106.415 33.9004C106.415 29.5449 103.358 26.5957 99.1197 26.5957C94.7838 26.5957 91.815 29.6328 91.815 33.9004C91.815 38.168 94.7838 41.1953 99.1197 41.1953ZM99.1197 38.0703C96.8638 38.0703 95.2916 36.2344 95.2916 33.9004C95.2916 31.5664 96.8638 29.7207 99.1197 29.7207C101.327 29.7207 102.919 31.5273 102.919 33.9004C102.919 36.2637 101.327 38.0703 99.1197 38.0703Z" fill="#ED222A"/>
</svg>
