<svg width="140" height="43" viewBox="0 0 140 43" fill="none" xmlns="http://www.w3.org/2000/svg">
<path d="M13.0078 16H10.3008V9.0498H3.30762V16H0.589844V0.359375H3.30762V6.86914H10.3008V0.359375H13.0078V16ZM25.1787 12.3584H19.1201L17.8525 16H15.0273L20.9355 0.359375H23.374L29.293 16H26.457L25.1787 12.3584ZM19.8828 10.167H24.416L22.1494 3.67871L19.8828 10.167ZM41.0879 2.55078H36.2109V16H33.5146V2.55078H28.6807V0.359375H41.0879V2.55078ZM52.292 9.01758H45.8682V13.8301H53.377V16H43.1504V0.359375H53.3018V2.55078H45.8682V6.86914H52.292V9.01758ZM67.5244 10.9082C67.3669 12.5768 66.751 13.8802 65.6768 14.8184C64.6025 15.7493 63.1738 16.2148 61.3906 16.2148C60.1445 16.2148 59.0452 15.9212 58.0928 15.334C57.1475 14.7396 56.417 13.8981 55.9014 12.8096C55.3857 11.721 55.1172 10.457 55.0957 9.01758V7.55664C55.0957 6.08138 55.3571 4.78158 55.8799 3.65723C56.4027 2.53288 57.151 1.66634 58.125 1.05762C59.1061 0.448893 60.2376 0.144531 61.5195 0.144531C63.2454 0.144531 64.6348 0.613607 65.6875 1.55176C66.7402 2.48991 67.3525 3.81478 67.5244 5.52637H64.8174C64.6885 4.40202 64.359 3.59277 63.8291 3.09863C63.3063 2.59733 62.5365 2.34668 61.5195 2.34668C60.3379 2.34668 59.4284 2.77995 58.791 3.64648C58.1608 4.50586 57.8385 5.76986 57.8242 7.43848V8.82422C57.8242 10.5143 58.125 11.8034 58.7266 12.6914C59.3353 13.5794 60.2233 14.0234 61.3906 14.0234C62.4577 14.0234 63.2598 13.7835 63.7969 13.3037C64.334 12.8239 64.6742 12.0254 64.8174 10.9082H67.5244ZM82.4453 8.58789C82.4453 10.1204 82.1803 11.4668 81.6504 12.627C81.1204 13.7799 80.3613 14.668 79.373 15.291C78.3919 15.9069 77.2604 16.2148 75.9785 16.2148C74.7109 16.2148 73.5794 15.9069 72.584 15.291C71.5957 14.668 70.8294 13.7835 70.2852 12.6377C69.748 11.4919 69.4759 10.1706 69.4688 8.67383V7.79297C69.4688 6.26758 69.7373 4.92122 70.2744 3.75391C70.8187 2.58659 71.5814 1.69499 72.5625 1.0791C73.5508 0.456055 74.6823 0.144531 75.957 0.144531C77.2318 0.144531 78.3597 0.452474 79.3408 1.06836C80.3291 1.67708 81.0918 2.55794 81.6289 3.71094C82.166 4.85677 82.4382 6.19238 82.4453 7.71777V8.58789ZM79.7275 7.77148C79.7275 6.03841 79.3981 4.70996 78.7393 3.78613C78.0876 2.8623 77.1602 2.40039 75.957 2.40039C74.7826 2.40039 73.8623 2.8623 73.1963 3.78613C72.5374 4.7028 72.2008 6.0026 72.1865 7.68555V8.58789C72.1865 10.3066 72.5195 11.6351 73.1855 12.5732C73.8587 13.5114 74.7897 13.9805 75.9785 13.9805C77.1816 13.9805 78.1055 13.5221 78.75 12.6055C79.4017 11.6888 79.7275 10.3496 79.7275 8.58789V7.77148ZM9.60254 35.3721H3.30762V42H0.589844V26.3594H10.5264V28.5508H3.30762V33.2021H9.60254V35.3721ZM24.126 26.3594V36.8115C24.126 38.473 23.5924 39.7907 22.5254 40.7646C21.4655 41.7314 20.0511 42.2148 18.2822 42.2148C16.4919 42.2148 15.0703 41.7386 14.0176 40.7861C12.9648 39.8265 12.4385 38.498 12.4385 36.8008V26.3594H15.1455V36.8223C15.1455 37.8678 15.4105 38.6663 15.9404 39.2178C16.4704 39.7692 17.251 40.0449 18.2822 40.0449C20.3734 40.0449 21.4189 38.9421 21.4189 36.7363V26.3594H24.126ZM29.7549 39.8301H36.8555V42H27.0371V26.3594H29.7549V39.8301ZM47.9521 35.3721H41.6572V42H38.9395V26.3594H48.876V28.5508H41.6572V33.2021H47.9521V35.3721ZM53.9033 42H51.1963V26.3594H53.9033V42ZM59.9619 39.8301H67.0625V42H57.2441V26.3594H59.9619V39.8301ZM71.8643 39.8301H78.9648V42H69.1465V26.3594H71.8643V39.8301ZM84.5723 26.3594L89.084 38.3477L93.585 26.3594H97.0977V42H94.3906V36.8438L94.6592 29.9473L90.04 42H88.0957L83.4873 29.958L83.7559 36.8438V42H81.0488V26.3594H84.5723ZM109.462 35.0176H103.038V39.8301H110.547V42H100.32V26.3594H110.472V28.5508H103.038V32.8691H109.462V35.0176ZM125.167 42H122.449L115.478 30.9033V42H112.76V26.3594H115.478L122.471 37.499V26.3594H125.167V42ZM139.357 28.5508H134.48V42H131.784V28.5508H126.95V26.3594H139.357V28.5508Z" fill="#EC1C24"/>
</svg>
