<svg width="97" height="36" viewBox="0 0 97 36" fill="none" xmlns="http://www.w3.org/2000/svg">
<path d="M9.55078 14H7.70508V9.26123H2.93701V14H1.08398V3.33594H2.93701V7.77441H7.70508V3.33594H9.55078V14ZM17.8491 11.5171H13.7183L12.854 14H10.9277L14.9561 3.33594H16.6187L20.6543 14H18.7207L17.8491 11.5171ZM14.2383 10.0229H17.3291L15.7837 5.59912L14.2383 10.0229ZM28.6963 4.83008H25.3711V14H23.5327V4.83008H20.2368V3.33594H28.6963V4.83008ZM36.3354 9.23926H31.9556V12.5205H37.0752V14H30.1025V3.33594H37.0239V4.83008H31.9556V7.77441H36.3354V9.23926ZM46.7212 10.5283C46.6138 11.666 46.1938 12.5547 45.4614 13.1943C44.729 13.8291 43.7549 14.1465 42.5391 14.1465C41.6895 14.1465 40.9399 13.9463 40.2905 13.5459C39.646 13.1406 39.1479 12.5669 38.7964 11.8247C38.4448 11.0825 38.2617 10.2207 38.2471 9.23926V8.24316C38.2471 7.2373 38.4253 6.35107 38.7817 5.58447C39.1382 4.81787 39.6484 4.22705 40.3125 3.81201C40.9814 3.39697 41.7529 3.18945 42.627 3.18945C43.8037 3.18945 44.751 3.50928 45.4688 4.14893C46.1865 4.78857 46.604 5.69189 46.7212 6.85889H44.8755C44.7876 6.09229 44.563 5.54053 44.2017 5.20361C43.8452 4.86182 43.3203 4.69092 42.627 4.69092C41.8213 4.69092 41.2012 4.98633 40.7666 5.57715C40.3369 6.16309 40.1172 7.0249 40.1074 8.1626V9.10742C40.1074 10.2598 40.3125 11.1387 40.7227 11.7441C41.1377 12.3496 41.7432 12.6523 42.5391 12.6523C43.2666 12.6523 43.8135 12.4888 44.1797 12.1616C44.5459 11.8345 44.7778 11.29 44.8755 10.5283H46.7212ZM56.8945 8.94629C56.8945 9.99121 56.7139 10.9092 56.3525 11.7002C55.9912 12.4863 55.4736 13.0918 54.7998 13.5166C54.1309 13.9365 53.3594 14.1465 52.4854 14.1465C51.6211 14.1465 50.8496 13.9365 50.1709 13.5166C49.4971 13.0918 48.9746 12.4888 48.6035 11.7075C48.2373 10.9263 48.0518 10.0254 48.0469 9.00488V8.4043C48.0469 7.36426 48.23 6.44629 48.5962 5.65039C48.9673 4.85449 49.4873 4.24658 50.1562 3.82666C50.8301 3.40186 51.6016 3.18945 52.4707 3.18945C53.3398 3.18945 54.1089 3.39941 54.7778 3.81934C55.4517 4.23438 55.9717 4.83496 56.3379 5.62109C56.7041 6.40234 56.8896 7.31299 56.8945 8.35303V8.94629ZM55.0415 8.38965C55.0415 7.20801 54.8169 6.30225 54.3677 5.67236C53.9233 5.04248 53.291 4.72754 52.4707 4.72754C51.6699 4.72754 51.0425 5.04248 50.5884 5.67236C50.1392 6.29736 49.9097 7.18359 49.8999 8.33105V8.94629C49.8999 10.1182 50.127 11.0239 50.5811 11.6636C51.04 12.3032 51.6748 12.623 52.4854 12.623C53.3057 12.623 53.9355 12.3105 54.375 11.6855C54.8193 11.0605 55.0415 10.1475 55.0415 8.94629V8.38965ZM7.229 27.481H2.93701V32H1.08398V21.3359H7.85889V22.8301H2.93701V26.0015H7.229V27.481ZM17.1313 21.3359V28.4624C17.1313 29.5952 16.7676 30.4937 16.04 31.1577C15.3174 31.8169 14.353 32.1465 13.147 32.1465C11.9263 32.1465 10.957 31.8218 10.2393 31.1724C9.52148 30.5181 9.1626 29.6123 9.1626 28.4551V21.3359H11.0083V28.4697C11.0083 29.1826 11.189 29.7271 11.5503 30.103C11.9116 30.479 12.4438 30.667 13.147 30.667C14.5728 30.667 15.2856 29.915 15.2856 28.4111V21.3359H17.1313ZM20.9692 30.5205H25.8105V32H19.1162V21.3359H20.9692V30.5205ZM33.3765 27.481H29.0845V32H27.2314V21.3359H34.0063V22.8301H29.0845V26.0015H33.3765V27.481ZM37.4341 32H35.5884V21.3359H37.4341V32ZM41.5649 30.5205H46.4062V32H39.7119V21.3359H41.5649V30.5205ZM49.6802 30.5205H54.5215V32H47.8271V21.3359H49.6802V30.5205ZM58.3447 21.3359L61.4209 29.5098L64.4897 21.3359H66.8848V32H65.0391V28.4844L65.2222 23.7822L62.0728 32H60.7471L57.605 23.7896L57.7881 28.4844V32H55.9424V21.3359H58.3447ZM75.3149 27.2393H70.9351V30.5205H76.0547V32H69.082V21.3359H76.0034V22.8301H70.9351V25.7744H75.3149V27.2393ZM86.0229 32H84.1699L79.4165 24.4341V32H77.5635V21.3359H79.4165L84.1846 28.9312V21.3359H86.0229V32ZM95.6982 22.8301H92.373V32H90.5347V22.8301H87.2388V21.3359H95.6982V22.8301Z" fill="white"/>
</svg>
