<svg width="47" height="48" viewBox="0 0 47 48" fill="none" xmlns="http://www.w3.org/2000/svg">
<path fill-rule="evenodd" clip-rule="evenodd" d="M9.39441 36.2698L11.6588 26.6733L11.821 25.9882L11.9883 25.2765L13.8814 17.252L15.8791 16.6519L12.4171 38.6597C11.3286 37.9726 10.3153 37.1697 9.39441 36.2645V36.2698ZM27.2638 40.5503L26.6886 22.3663L28.9686 21.9308L29.6956 29.8491L30.5427 39.1164C29.4999 39.7064 28.4014 40.1885 27.2638 40.5556V40.5503ZM25.2557 7.09253L22.3533 7.91041V14.8144L21.1504 14.9206L20.0366 41.2832C21.4045 41.4218 22.7834 41.4022 24.147 41.2248L24.0476 14.3576L25.4805 14.6975L25.2557 7.09253ZM19.8797 11.6014L17.4688 12.2015L16.8099 19.7799L14.8645 39.9608C15.8145 40.3708 16.798 40.696 17.8036 40.9327L19.8797 11.6014Z" fill="white"/>
<path fill-rule="evenodd" clip-rule="evenodd" d="M29.5011 13.3534C30.5687 16.2246 31.1608 19.2476 31.2547 22.3057L31.5549 22.3891C31.4778 19.3186 30.9035 16.2803 29.8539 13.3899L29.517 13.3378L29.5011 13.3534ZM28.3583 10.6579C28.7374 11.4261 29.0885 12.2133 29.4115 13.0198L29.7486 13.0719C29.334 11.9767 28.8521 10.9076 28.3057 9.87058L28.3583 10.6579ZM19.6847 3.55658C24.6507 3.5564 29.4325 5.41946 33.0664 8.77046C30.8009 7.05796 28.1563 5.90346 25.3512 5.40228C25.8957 6.06886 26.4022 6.76514 26.868 7.48783L26.4519 7.39399C25.9817 6.66915 25.4682 5.97273 24.9142 5.30844C23.9941 5.16856 23.0645 5.09882 22.1336 5.09987C19.6526 5.09785 17.1979 5.60378 14.9239 6.58584C13.3672 9.44729 12.3147 12.5505 11.8116 15.7623L11.4851 15.9239C11.964 12.7312 12.9786 9.64024 14.4869 6.77875C12.144 7.86495 10.0642 9.43685 8.38834 11.388C6.71244 13.3392 5.47955 15.6241 4.77315 18.088C4.06675 20.552 3.90335 23.1374 4.29396 25.6693C4.68458 28.2012 5.62006 30.6204 7.03717 32.7632C8.45429 34.9061 10.32 36.7224 12.5078 38.0893C14.6956 39.4562 17.1544 40.3418 19.718 40.686C22.2815 41.0302 24.8899 40.8251 27.3665 40.0846C29.843 39.344 32.1298 38.0853 34.0723 36.3936C31.8381 38.7523 29.0465 40.5242 25.949 41.5496C22.8514 42.5751 19.5449 42.822 16.327 42.2682C13.1091 41.7143 10.0807 40.3771 7.51443 38.3768C4.94814 36.3765 2.92438 33.7759 1.62532 30.809C0.326269 27.8421 -0.207377 24.6021 0.0724321 21.3803C0.352241 18.1585 1.43681 15.0561 3.22836 12.3524C5.01991 9.64857 7.46229 7.42819 10.3358 5.89099C13.2093 4.35378 16.4238 3.54801 19.6899 3.54614L19.6847 3.55658ZM11.1533 20.168C11.1507 22.272 11.3803 24.37 11.8379 26.4246L12.0012 25.7521C11.372 22.5859 11.2848 19.3376 11.7432 16.1429L11.4166 16.3097C11.2423 17.5886 11.1543 18.8775 11.1533 20.168Z" fill="white"/>
<path d="M19.7604 11.8218L22.3229 12.2392V15.0397L21.0847 15.1454L19.9381 41.375C19.1592 41.2984 18.386 41.1731 17.6233 40.9998L19.6259 13.6553V13.3489L19.7604 11.8218Z" fill="white"/>
<path d="M16.4248 16.5493L17.6233 17.034L15.4002 40.1919C14.5427 39.8197 13.7147 39.3804 12.9237 38.8778L16.4248 16.5493Z" fill="white"/>
<path d="M10.5697 32.9419C8.95372 32.6632 7.38242 32.3209 5.87012 31.9182C5.96168 32.0076 6.05721 32.097 6.15674 32.1863C7.55797 32.5426 9.00666 32.848 10.492 33.1003L10.5697 32.9419Z" fill="#FFFDFD"/>
<path d="M17.5916 14.4575C15.6639 14.9194 13.7957 15.5682 12.0187 16.3927H11.9883L11.8667 16.4483L11.7299 16.5131C9.13019 17.7566 6.75919 19.364 4.703 21.2771C4.703 21.1428 4.70304 21.004 4.74357 20.8697C6.85088 18.9565 9.27317 17.3568 11.9224 16.1288L11.9832 16.1011H12.0288C13.8155 15.2832 15.6921 14.6407 17.627 14.1843L17.5916 14.4575Z" fill="#FFFAFA"/>
<path d="M23.3644 0.000116255C29.6115 -0.0195697 35.6107 2.46158 40.0429 6.89801C44.4751 11.3344 46.9774 17.3629 46.9996 23.6581C46.9996 46.2786 18.3642 55.7312 4.703 38.1915C8.82939 42.2625 14.3804 44.5327 20.1552 44.5109H20.3862C23.6361 44.5772 26.8571 43.8839 29.7964 42.4853C32.7356 41.0868 35.3134 39.021 37.3274 36.45C39.3414 33.8791 40.7369 30.8729 41.4045 27.6672C42.072 24.4616 41.9934 21.1437 41.1748 17.9738C37.772 15.6912 33.9294 14.1582 29.8982 13.4751L29.7353 13.4486H29.6513H29.5621L28.6219 13.3163L29.3361 21.9803L30.9118 39.1124C32.0388 38.48 33.0953 37.7277 34.0632 36.8684L31.6682 22.663H31.5789L31.4633 22.6313L29.3047 22.0279L27.0147 22.4619L27.5925 40.5838C26.5767 40.906 25.5342 41.1363 24.4778 41.2718L24.378 14.4966L25.8171 14.8353L25.5703 7.23513L28.1281 7.80144L28.3067 9.97139V10.2043L28.543 13.0517C28.8932 13.094 29.2433 13.1416 29.5935 13.1946H29.6618H29.7353C33.7618 13.8448 37.6095 15.3337 41.033 17.5663C39.7603 13.1106 37.0817 9.19406 33.4028 6.40938C29.7239 3.62471 25.2448 2.12353 20.6436 2.13305H20.1184C15.6463 2.11973 11.2759 3.47636 7.5865 6.0231C11.9313 2.12781 17.5488 -0.0165959 23.3644 0.000116255Z" fill="white"/>
</svg>
