<svg width="59" height="60" viewBox="0 0 59 60" fill="none" xmlns="http://www.w3.org/2000/svg">
<g clip-path="url(#clip0)">
<path d="M12.4436 31.9677L28.0826 58.5283C28.6496 59.4914 30.0408 59.4961 30.6144 58.5371L46.4762 32.018C48.5709 28.5159 49.677 24.5115 49.677 20.4308C49.677 9.28716 40.6433 0.253418 29.4997 0.253418C18.356 0.253418 9.32227 9.28716 9.32227 20.4308V20.5146C9.32227 24.5424 10.4 28.4969 12.4436 31.9677Z" fill="#FF0031"/>
<path d="M29.4987 0.253418C29.4265 0.253418 29.355 0.255377 29.2832 0.256068V59.2494C29.7938 59.2722 30.3145 59.0367 30.6134 58.5369L46.4752 32.018C48.5699 28.5159 49.6761 24.5115 49.6761 20.4308C49.6761 9.28716 40.6423 0.253418 29.4987 0.253418Z" fill="#BE2342"/>
<path d="M29.341 30.3207C34.5786 30.3207 38.8246 26.0747 38.8246 20.8371C38.8246 15.5995 34.5786 11.3535 29.341 11.3535C24.1034 11.3535 19.8574 15.5995 19.8574 20.8371C19.8574 26.0747 24.1034 30.3207 29.341 30.3207Z" fill="white"/>
<path d="M29.3401 11.3535C29.321 11.3535 29.3022 11.3549 29.2832 11.355V30.3192C29.3022 30.3193 29.321 30.3207 29.3401 30.3207C34.5777 30.3207 38.8237 26.0747 38.8237 20.8371C38.8237 15.5995 34.5777 11.3535 29.3401 11.3535Z" fill="#FFF5F5"/>
</g>
<defs>
<clipPath id="clip0">
<rect width="59" height="59" fill="white" transform="translate(0 0.253418)"/>
</clipPath>
</defs>
</svg>
