<svg width="160" height="48" viewBox="0 0 160 48" fill="none" xmlns="http://www.w3.org/2000/svg">
    <path fill-rule="evenodd" clip-rule="evenodd" d="M9.39453 36.2701L11.659 26.6735L11.8211 25.9884L11.9884 25.2768L13.8815 17.2522L15.8793 16.6521L12.4172 38.6599C11.3287 37.9729 10.3154 37.1699 9.39453 36.2647V36.2701ZM27.2639 40.5505L26.6887 22.3665L28.9687 21.931L29.6957 29.8494L30.5428 39.1166C29.5001 39.7066 28.4016 40.1888 27.2639 40.5558V40.5505ZM25.2558 7.09277L22.3534 7.91065V14.8146L21.1506 14.9208L20.0367 41.2834C21.4046 41.422 22.7836 41.4024 24.1471 41.225L24.0478 14.3579L25.4807 14.6978L25.2558 7.09277ZM19.8798 11.6016L17.4689 12.2017L16.81 19.7802L14.8646 39.961C15.8147 40.371 16.7981 40.6962 17.8037 40.9329L19.8798 11.6016Z" fill="white"/>
    <path fill-rule="evenodd" clip-rule="evenodd" d="M29.5011 13.3532C30.5687 16.2244 31.1608 19.2473 31.2547 22.3054L31.5549 22.3889C31.4778 19.3184 30.9035 16.28 29.8539 13.3897L29.517 13.3376L29.5011 13.3532ZM28.3583 10.6576C28.7374 11.4258 29.0885 12.2131 29.4115 13.0195L29.7486 13.0717C29.334 11.9765 28.8521 10.9073 28.3057 9.87034L28.3583 10.6576ZM19.6847 3.55634C24.6507 3.55616 29.4325 5.41922 33.0664 8.77022C30.8009 7.05771 28.1563 5.90321 25.3512 5.40204C25.8957 6.06862 26.4022 6.76489 26.868 7.48759L26.4519 7.39374C25.9817 6.66891 25.4682 5.97249 24.9142 5.30819C23.9941 5.16831 23.0645 5.09858 22.1336 5.09962C19.6526 5.0976 17.1979 5.60353 14.9239 6.5856C13.3672 9.44705 12.3147 12.5503 11.8116 15.762L11.4851 15.9236C11.964 12.731 12.9786 9.64 14.4869 6.77851C12.144 7.86471 10.0642 9.43661 8.38834 11.3878C6.71244 13.339 5.47955 15.6239 4.77315 18.0878C4.06675 20.5517 3.90335 23.1372 4.29396 25.6691C4.68458 28.2009 5.62006 30.6202 7.03717 32.763C8.45429 34.9058 10.32 36.7222 12.5078 38.0891C14.6956 39.456 17.1544 40.3415 19.718 40.6857C22.2815 41.03 24.8899 40.8249 27.3665 40.0843C29.843 39.3438 32.1298 38.085 34.0723 36.3933C31.8381 38.7521 29.0465 40.5239 25.949 41.5494C22.8514 42.5748 19.5449 42.8218 16.327 42.2679C13.1091 41.7141 10.0807 40.3768 7.51443 38.3765C4.94814 36.3763 2.92438 33.7757 1.62532 30.8088C0.326269 27.8419 -0.207377 24.6018 0.0724321 21.38C0.352241 18.1583 1.43681 15.0559 3.22836 12.3521C5.01991 9.64833 7.46229 7.42795 10.3358 5.89074C13.2093 4.35354 16.4238 3.54776 19.6899 3.5459L19.6847 3.55634ZM11.1533 20.1677C11.1507 22.2718 11.3803 24.3697 11.8379 26.4244L12.0012 25.7518C11.372 22.5857 11.2848 19.3374 11.7432 16.1426L11.4166 16.3095C11.2423 17.5883 11.1543 18.8773 11.1533 20.1677Z" fill="white"/>
    <path d="M19.7602 11.8218L22.3227 12.2392V15.0397L21.0845 15.1454L19.9379 41.375C19.1589 41.2984 18.3857 41.1731 17.623 40.9998L19.6256 13.6553V13.3489L19.7602 11.8218Z" fill="white"/>
    <path d="M16.4249 16.5493L17.6234 17.034L15.4004 40.1919C14.5428 39.8197 13.7148 39.3804 12.9238 38.8778L16.4249 16.5493Z" fill="white"/>
    <path d="M10.5688 32.9422C8.95274 32.6634 7.38145 32.3211 5.86914 31.9185C5.9607 32.0078 6.05623 32.0972 6.15576 32.1866C7.557 32.5428 9.00568 32.8482 10.491 33.1006L10.5688 32.9422Z" fill="#FFFDFD"/>
    <path d="M17.5917 14.4572C15.664 14.9192 13.7958 15.5679 12.0189 16.3925H11.9884L11.8669 16.448L11.7301 16.5129C9.13031 17.7564 6.75932 19.3638 4.70312 21.2769C4.70312 21.1426 4.70316 21.0037 4.74369 20.8694C6.851 18.9562 9.27329 17.3565 11.9225 16.1286L11.9834 16.1008H12.0289C13.8156 15.2829 15.6922 14.6404 17.6271 14.1841L17.5917 14.4572Z" fill="#FFFAFA"/>
    <path d="M23.3645 0.000116255C29.6116 -0.0195697 35.6109 2.46158 40.043 6.89801C44.4752 11.3344 46.9775 17.3629 46.9997 23.6581C46.9997 46.2786 18.3643 55.7312 4.70312 38.1915C8.82951 42.2625 14.3805 44.5327 20.1553 44.5109H20.3864C23.6362 44.5772 26.8572 43.8839 29.7965 42.4853C32.7358 41.0868 35.3135 39.021 37.3275 36.45C39.3415 33.8791 40.737 30.8729 41.4046 27.6672C42.0721 24.4616 41.9935 21.1437 41.1749 17.9738C37.7722 15.6912 33.9295 14.1582 29.8983 13.4751L29.7354 13.4486H29.6515H29.5622L28.622 13.3163L29.3363 21.9803L30.9119 39.1124C32.0389 38.48 33.0954 37.7277 34.0633 36.8684L31.6684 22.663H31.579L31.4635 22.6313L29.3048 22.0279L27.0148 22.4619L27.5926 40.5838C26.5768 40.906 25.5343 41.1363 24.4779 41.2718L24.3781 14.4966L25.8173 14.8353L25.5704 7.23513L28.1282 7.80144L28.3068 9.97139V10.2043L28.5432 13.0517C28.8933 13.094 29.2435 13.1416 29.5936 13.1946H29.662H29.7354C33.7619 13.8448 37.6096 15.3337 41.0331 17.5663C39.7604 13.1106 37.0819 9.19406 33.4029 6.40938C29.724 3.62471 25.2449 2.12353 20.6437 2.13305H20.1185C15.6464 2.11973 11.2761 3.47636 7.58662 6.0231C11.9315 2.12781 17.549 -0.0165959 23.3645 0.000116255Z" fill="white"/>
    <path d="M72.5508 20H70.7051V15.2612H65.937V20H64.084V9.33594H65.937V13.7744H70.7051V9.33594H72.5508V20ZM80.8491 17.5171H76.7183L75.854 20H73.9277L77.9561 9.33594H79.6187L83.6543 20H81.7207L80.8491 17.5171ZM77.2383 16.0229H80.3291L78.7837 11.5991L77.2383 16.0229ZM91.6963 10.8301H88.3711V20H86.5327V10.8301H83.2368V9.33594H91.6963V10.8301ZM99.3354 15.2393H94.9556V18.5205H100.075V20H93.1025V9.33594H100.024V10.8301H94.9556V13.7744H99.3354V15.2393ZM109.721 16.5283C109.614 17.666 109.194 18.5547 108.461 19.1943C107.729 19.8291 106.755 20.1465 105.539 20.1465C104.689 20.1465 103.94 19.9463 103.291 19.5459C102.646 19.1406 102.148 18.5669 101.796 17.8247C101.445 17.0825 101.262 16.2207 101.247 15.2393V14.2432C101.247 13.2373 101.425 12.3511 101.782 11.5845C102.138 10.8179 102.648 10.2271 103.312 9.81201C103.981 9.39697 104.753 9.18945 105.627 9.18945C106.804 9.18945 107.751 9.50928 108.469 10.1489C109.187 10.7886 109.604 11.6919 109.721 12.8589H107.875C107.788 12.0923 107.563 11.5405 107.202 11.2036C106.845 10.8618 106.32 10.6909 105.627 10.6909C104.821 10.6909 104.201 10.9863 103.767 11.5771C103.337 12.1631 103.117 13.0249 103.107 14.1626V15.1074C103.107 16.2598 103.312 17.1387 103.723 17.7441C104.138 18.3496 104.743 18.6523 105.539 18.6523C106.267 18.6523 106.813 18.4888 107.18 18.1616C107.546 17.8345 107.778 17.29 107.875 16.5283H109.721ZM119.895 14.9463C119.895 15.9912 119.714 16.9092 119.353 17.7002C118.991 18.4863 118.474 19.0918 117.8 19.5166C117.131 19.9365 116.359 20.1465 115.485 20.1465C114.621 20.1465 113.85 19.9365 113.171 19.5166C112.497 19.0918 111.975 18.4888 111.604 17.7075C111.237 16.9263 111.052 16.0254 111.047 15.0049V14.4043C111.047 13.3643 111.23 12.4463 111.596 11.6504C111.967 10.8545 112.487 10.2466 113.156 9.82666C113.83 9.40186 114.602 9.18945 115.471 9.18945C116.34 9.18945 117.109 9.39941 117.778 9.81934C118.452 10.2344 118.972 10.835 119.338 11.6211C119.704 12.4023 119.89 13.313 119.895 14.353V14.9463ZM118.042 14.3896C118.042 13.208 117.817 12.3022 117.368 11.6724C116.923 11.0425 116.291 10.7275 115.471 10.7275C114.67 10.7275 114.042 11.0425 113.588 11.6724C113.139 12.2974 112.91 13.1836 112.9 14.3311V14.9463C112.9 16.1182 113.127 17.0239 113.581 17.6636C114.04 18.3032 114.675 18.623 115.485 18.623C116.306 18.623 116.936 18.3105 117.375 17.6855C117.819 17.0605 118.042 16.1475 118.042 14.9463V14.3896ZM70.229 33.481H65.937V38H64.084V27.3359H70.8589V28.8301H65.937V32.0015H70.229V33.481ZM80.1313 27.3359V34.4624C80.1313 35.5952 79.7676 36.4937 79.04 37.1577C78.3174 37.8169 77.353 38.1465 76.147 38.1465C74.9263 38.1465 73.957 37.8218 73.2393 37.1724C72.5215 36.5181 72.1626 35.6123 72.1626 34.4551V27.3359H74.0083V34.4697C74.0083 35.1826 74.189 35.7271 74.5503 36.103C74.9116 36.479 75.4438 36.667 76.147 36.667C77.5728 36.667 78.2856 35.915 78.2856 34.4111V27.3359H80.1313ZM83.9692 36.5205H88.8105V38H82.1162V27.3359H83.9692V36.5205ZM96.3765 33.481H92.0845V38H90.2314V27.3359H97.0063V28.8301H92.0845V32.0015H96.3765V33.481ZM100.434 38H98.5884V27.3359H100.434V38ZM104.565 36.5205H109.406V38H102.712V27.3359H104.565V36.5205ZM112.68 36.5205H117.521V38H110.827V27.3359H112.68V36.5205ZM121.345 27.3359L124.421 35.5098L127.49 27.3359H129.885V38H128.039V34.4844L128.222 29.7822L125.073 38H123.747L120.605 29.7896L120.788 34.4844V38H118.942V27.3359H121.345ZM138.315 33.2393H133.935V36.5205H139.055V38H132.082V27.3359H139.003V28.8301H133.935V31.7744H138.315V33.2393ZM149.023 38H147.17L142.417 30.4341V38H140.563V27.3359H142.417L147.185 34.9312V27.3359H149.023V38ZM158.698 28.8301H155.373V38H153.535V28.8301H150.239V27.3359H158.698V28.8301Z" fill="white"/>
</svg>
