<svg width="149" height="12" viewBox="0 0 149 12" fill="none" xmlns="http://www.w3.org/2000/svg">
<path d="M0 11.3983V0.253418H2.51068V4.67226H7.40217V0.292513H9.91284V11.4374H7.40217V6.5884H2.51068V11.4374H0V11.3983Z" fill="#EC1C24"/>
<path d="M24.4567 11.3983H21.7296L20.6474 8.85648H15.7126L14.6737 11.3983H12.0332L16.8814 0.253418H19.4787L24.4567 11.3983ZM19.8682 7.01855L18.18 2.87344L16.4485 7.01855H19.8682Z" fill="#EC1C24"/>
<path d="M30.2576 11.3983V2.13045H26.5781V0.253418H36.4477V2.13045H32.7682V11.3983H30.2576Z" fill="#EC1C24"/>
<path d="M40.084 11.3983V0.253418H49.2609V2.13045H42.5947V4.59405H48.828V6.47109H42.5947V9.48215H49.5206V11.3592H40.084V11.3983Z" fill="#EC1C24"/>
<path d="M60.9483 7.25267L63.2858 7.91745C62.9395 9.0906 62.3335 9.95091 61.511 10.5375C60.6886 11.1241 59.6064 11.3978 58.3077 11.3978C56.7061 11.3978 55.4075 10.9285 54.3686 9.95091C53.3297 8.97329 52.8535 7.64372 52.8535 5.9622C52.8535 4.16338 53.373 2.79471 54.4119 1.77799C55.4508 0.800363 56.7927 0.291992 58.4809 0.291992C59.9527 0.291992 61.1214 0.683041 62.0305 1.46514C62.5932 1.9344 62.9828 2.59918 63.2425 3.45949L60.8617 3.96786C60.7318 3.42039 60.4288 2.95113 59.996 2.63829C59.5631 2.32545 59.0003 2.16904 58.351 2.16904C57.442 2.16904 56.7494 2.44276 56.1867 3.02934C55.6239 3.61591 55.3642 4.51533 55.3642 5.80579C55.3642 7.17446 55.6239 8.15208 56.1867 8.69955C56.7494 9.28612 57.442 9.55986 58.3077 9.55986C58.957 9.55986 59.5198 9.36434 59.9527 9.01239C60.4288 8.62135 60.7751 8.07388 60.9483 7.25267Z" fill="#EC1C24"/>
<path d="M65.5801 5.92362C65.5801 4.82869 65.7532 3.89017 66.1428 3.14717C66.4025 2.59971 66.7921 2.09134 67.2683 1.66118C67.7445 1.23103 68.2639 0.918191 68.8267 0.683562C69.5625 0.409828 70.4283 0.253418 71.4239 0.253418C73.1987 0.253418 74.5839 0.761776 75.6661 1.7394C76.705 2.71702 77.2678 4.08569 77.2678 5.84541C77.2678 7.56602 76.7483 8.93469 75.7094 9.91231C74.6705 10.8899 73.242 11.3983 71.5105 11.3983C69.7357 11.3983 68.3072 10.929 67.2683 9.95142C66.0995 8.97379 65.5801 7.60513 65.5801 5.92362ZM68.0475 5.84541C68.0475 7.05766 68.3505 7.99618 68.9998 8.62185C69.6058 9.24753 70.4283 9.56037 71.3806 9.56037C72.333 9.56037 73.1554 9.24753 73.7615 8.62185C74.3675 7.99618 74.6705 7.05765 74.6705 5.8063C74.6705 4.55494 74.3675 3.65553 73.7615 3.02985C73.1554 2.40418 72.3762 2.13045 71.3806 2.13045C70.385 2.13045 69.5625 2.44328 68.9565 3.06896C68.3505 3.65553 68.0475 4.59405 68.0475 5.84541Z" fill="#EC1C24"/>
<path d="M89.9076 7.25359V5.45477H95.1454V9.7563C94.6259 10.1865 93.89 10.5775 92.9377 10.9294C91.9854 11.2814 90.9898 11.4378 89.9942 11.4378C88.7388 11.4378 87.6566 11.2032 86.7043 10.7339C85.752 10.2647 85.0594 9.59988 84.5832 8.70047C84.1071 7.84016 83.8906 6.86254 83.8906 5.84582C83.8906 4.71178 84.1504 3.73415 84.6698 2.87385C85.1893 2.01354 85.9684 1.34875 86.964 0.879497C87.7432 0.527553 88.6955 0.332031 89.821 0.332031C91.2928 0.332031 92.4616 0.60577 93.3273 1.19234C94.1498 1.73981 94.7125 2.5219 94.9289 3.49953L92.5048 3.89057C92.3317 3.34311 92.0287 2.95205 91.5525 2.63921C91.0764 2.32638 90.5136 2.16996 89.821 2.16996C88.7821 2.16996 87.9164 2.4828 87.3103 3.06937C86.7043 3.65594 86.358 4.55535 86.358 5.7676C86.358 7.05806 86.661 7.99659 87.3103 8.66137C87.9597 9.28705 88.7821 9.63899 89.7777 9.63899C90.2972 9.63899 90.7733 9.56078 91.2928 9.36525C91.8122 9.16973 92.2451 8.9742 92.5914 8.70047V7.3318H89.9076V7.25359Z" fill="#EC1C24"/>
<path d="M97.3965 11.3983V0.253418H102.678C104.019 0.253418 104.972 0.370728 105.578 0.566252C106.184 0.761776 106.66 1.11372 107.006 1.62209C107.353 2.13045 107.526 2.71702 107.526 3.38181C107.526 4.20301 107.266 4.90689 106.703 5.45436C106.141 6.00183 105.318 6.35377 104.236 6.47109C104.799 6.74482 105.232 7.05766 105.578 7.4096C105.924 7.76154 106.4 8.34812 107.006 9.20843L108.521 11.3983H105.535L103.716 8.97379C103.067 8.11349 102.634 7.56602 102.418 7.33139C102.201 7.09676 101.942 6.94034 101.682 6.86213C101.422 6.78393 100.989 6.74481 100.427 6.74481H99.9072V11.3983H97.3965ZM99.9072 4.9851H101.769C102.981 4.9851 103.716 4.94599 104.019 4.86779C104.322 4.78958 104.539 4.63315 104.712 4.39852C104.885 4.16389 104.972 3.89017 104.972 3.57733C104.972 3.18628 104.842 2.91254 104.625 2.67791C104.409 2.44328 104.106 2.28686 103.673 2.24776C103.457 2.20865 102.851 2.20866 101.855 2.20866H99.9072V4.9851Z" fill="#EC1C24"/>
<path d="M110.557 5.92362C110.557 4.82869 110.73 3.89017 111.119 3.14717C111.379 2.59971 111.769 2.09134 112.245 1.66118C112.721 1.23103 113.24 0.918191 113.803 0.683562C114.539 0.409828 115.405 0.253418 116.4 0.253418C118.175 0.253418 119.604 0.761776 120.643 1.7394C121.725 2.71702 122.244 4.08569 122.244 5.84541C122.244 7.60512 121.725 8.93469 120.643 9.91231C119.604 10.8899 118.175 11.3983 116.4 11.3983C114.626 11.3983 113.197 10.8899 112.158 9.91231C111.119 8.93469 110.557 7.64423 110.557 5.92362ZM113.067 5.84541C113.067 7.05766 113.37 7.99618 114.02 8.62185C114.626 9.24753 115.448 9.56037 116.4 9.56037C117.353 9.56037 118.175 9.24753 118.781 8.62185C119.387 7.99618 119.69 7.05765 119.69 5.8063C119.69 4.55494 119.387 3.65553 118.781 3.02985C118.175 2.40418 117.396 2.13045 116.357 2.13045C115.362 2.13045 114.539 2.44328 113.933 3.06896C113.37 3.65553 113.067 4.59405 113.067 5.84541Z" fill="#EC1C24"/>
<path d="M124.971 0.291992H127.439V6.19684C127.439 7.13535 127.482 7.76104 127.525 8.03477C127.612 8.46493 127.872 8.85597 128.261 9.1297C128.651 9.40344 129.214 9.52075 129.863 9.52075C130.555 9.52075 131.075 9.40344 131.421 9.1297C131.767 8.85597 131.984 8.54313 132.07 8.19119C132.157 7.80014 132.157 7.21356 132.157 6.35325V0.291992H134.624V6.04042C134.624 7.36999 134.538 8.2694 134.408 8.81687C134.278 9.36434 134.018 9.8336 133.672 10.1855C133.326 10.5766 132.85 10.8503 132.244 11.085C131.638 11.3196 130.858 11.3978 129.906 11.3978C128.737 11.3978 127.872 11.2805 127.266 11.0458C126.66 10.8112 126.183 10.4984 125.837 10.1073C125.491 9.71628 125.274 9.32523 125.144 8.89507C124.971 8.26939 124.885 7.33089 124.885 6.11863V0.291992H124.971Z" fill="#EC1C24"/>
<path d="M138.52 11.3983V0.253418H142.545C144.06 0.253418 145.056 0.29252 145.532 0.409835C146.225 0.566254 146.831 0.957298 147.307 1.50477C147.783 2.05223 148.043 2.79523 148.043 3.65553C148.043 4.32032 147.913 4.90689 147.61 5.37614C147.35 5.8454 147.004 6.19735 146.571 6.47109C146.138 6.74482 145.705 6.90124 145.272 6.97944C144.666 7.09676 143.801 7.13586 142.675 7.13586H141.03V11.3201H138.52V11.3983ZM141.03 2.16955V5.33705H142.415C143.411 5.33705 144.06 5.29793 144.407 5.18062C144.753 5.0633 145.013 4.86778 145.186 4.63315C145.359 4.39852 145.489 4.08569 145.489 3.77285C145.489 3.38181 145.359 3.02986 145.099 2.75613C144.84 2.48239 144.493 2.32597 144.104 2.24776C143.801 2.20865 143.195 2.16955 142.286 2.16955H141.03Z" fill="#EC1C24"/>
</svg>
