<svg width="38" height="39" viewBox="0 0 38 39" fill="none" xmlns="http://www.w3.org/2000/svg">
<path fill-rule="evenodd" clip-rule="evenodd" d="M7.5957 29.3245L9.42653 21.5656L9.55763 21.0117L9.69285 20.4364L11.2235 13.9484L12.8387 13.4632L10.0396 31.2568C9.15951 30.7013 8.34025 30.0521 7.5957 29.3202V29.3245ZM22.0433 32.7853L21.5783 18.0834L23.4217 17.7313L24.0094 24.1333L24.6943 31.626C23.8512 32.103 22.9631 32.4929 22.0433 32.7896V32.7853ZM20.4197 5.73438L18.0731 6.39564V11.9776L17.1006 12.0634L16.2 33.3779C17.306 33.49 18.4209 33.4741 19.5233 33.3307L19.443 11.6083L20.6015 11.8831L20.4197 5.73438ZM16.0732 9.37981L14.124 9.86501L13.5912 15.9923L12.0183 32.3087C12.7865 32.6402 13.5816 32.9031 14.3946 33.0945L16.0732 9.37981Z" fill="white"/>
<path fill-rule="evenodd" clip-rule="evenodd" d="M23.852 10.7965C24.7151 13.1179 25.1938 15.562 25.2698 18.0345L25.5125 18.1019C25.4502 15.6194 24.9859 13.1629 24.1372 10.826L23.8648 10.7839L23.852 10.7965ZM22.928 8.61711C23.2345 9.23819 23.5184 9.87471 23.7795 10.5267L24.0521 10.5689C23.7168 9.68339 23.3272 8.819 22.8855 7.98057L22.928 8.61711ZM15.9153 2.87563C19.9304 2.87548 23.7965 4.38179 26.7346 7.09111C24.9028 5.70653 22.7647 4.7731 20.4967 4.3679C20.937 4.90684 21.3465 5.46978 21.7231 6.05409L21.3867 5.97821C21.0065 5.39218 20.5913 4.82911 20.1434 4.29202C19.3995 4.17893 18.6479 4.12255 17.8952 4.12339C15.8894 4.12176 13.9047 4.53081 12.0661 5.32482C10.8075 7.63833 9.95658 10.1474 9.54978 12.7441L9.28585 12.8747C9.67305 10.2934 10.4933 7.79434 11.7128 5.48079C9.81858 6.35899 8.13704 7.62989 6.78207 9.20744C5.42708 10.785 4.43028 12.6324 3.85915 14.6245C3.28802 16.6166 3.1559 18.7069 3.47172 20.754C3.78754 22.8011 4.54388 24.7571 5.68963 26.4895C6.83539 28.222 8.34382 29.6906 10.1127 30.7957C11.8815 31.9009 13.8695 32.6168 15.9422 32.8952C18.0149 33.1735 20.1238 33.0077 22.1261 32.4089C24.1284 31.8102 25.9773 30.7925 27.5478 29.4247C25.7414 31.3318 23.4845 32.7643 20.98 33.5934C18.4756 34.4225 15.8023 34.6222 13.2006 34.1744C10.5989 33.7266 8.15038 32.6454 6.0755 31.0282C4.00063 29.4109 2.36439 27.3083 1.31409 24.9095C0.263792 22.5108 -0.167667 19.8911 0.0585622 17.2863C0.284791 14.6815 1.16168 12.1732 2.61016 9.98711C4.05865 7.80107 6.03335 6.00587 8.35662 4.76302C10.6799 3.52018 13.2788 2.86869 15.9195 2.86719L15.9153 2.87563ZM9.01755 16.3061C9.01549 18.0073 9.20111 19.7035 9.57109 21.3647L9.70311 20.8209C9.19439 18.2611 9.12387 15.6348 9.49448 13.0518L9.23044 13.1867C9.08953 14.2207 9.01841 15.2628 9.01755 16.3061Z" fill="white"/>
<path d="M15.976 9.55811L18.0477 9.89562V12.1599L17.0466 12.2453L16.1196 33.4522C15.4898 33.3903 14.8647 33.2889 14.248 33.1489L15.8671 11.0406V10.7928L15.976 9.55811Z" fill="white"/>
<path d="M13.2799 13.3804L14.2489 13.7723L12.4515 32.4957C11.7582 32.1948 11.0888 31.8395 10.4492 31.4332L13.2799 13.3804Z" fill="white"/>
<path d="M8.54578 26.6338C7.23922 26.4084 5.96881 26.1317 4.74609 25.8062C4.82012 25.8784 4.89736 25.9507 4.97783 26.0229C6.11075 26.3109 7.28202 26.5579 8.48296 26.7619L8.54578 26.6338Z" fill="#FFFDFD"/>
<path d="M14.2233 11.6891C12.6647 12.0626 11.1543 12.5871 9.71759 13.2538H9.69299L9.59469 13.2987L9.48409 13.3511C7.38217 14.3565 5.46519 15.6561 3.80273 17.2029C3.80273 17.0943 3.80277 16.982 3.83554 16.8735C5.53931 15.3266 7.49776 14.0332 9.63969 13.0404L9.68889 13.018H9.72569C11.1703 12.3567 12.6875 11.8372 14.2519 11.4683L14.2233 11.6891Z" fill="#FFFAFA"/>
<path d="M18.8907 9.39938e-05C23.9415 -0.0158223 28.792 1.99021 32.3755 5.57712C35.9589 9.16402 37.982 14.0381 38 19.1278C38 37.4168 14.8479 45.0593 3.80273 30.8783C7.13896 34.1697 11.627 36.0052 16.296 35.9876H16.4828C19.1103 36.0412 21.7145 35.4806 24.091 34.3499C26.4674 33.2191 28.5516 31.5489 30.1799 29.4703C31.8083 27.3916 32.9366 24.9611 33.4763 22.3693C34.016 19.7775 33.9524 17.0949 33.2906 14.532C30.5394 12.6865 27.4326 11.447 24.1733 10.8948L24.0416 10.8734H23.9737H23.9016L23.1414 10.7664L23.7189 17.7713L24.9929 31.6229C25.904 31.1115 26.7582 30.5032 27.5408 29.8085L25.6044 18.3233H25.5322L25.4388 18.2976L23.6935 17.8098L21.842 18.1607L22.3091 32.8124C21.4878 33.073 20.645 33.2592 19.7909 33.3687L19.7102 11.7206L20.8738 11.9945L20.6742 5.84968L22.7422 6.30755L22.8866 8.06198V8.25026L23.0777 10.5524C23.3608 10.5867 23.6439 10.6252 23.927 10.668H23.9822H24.0416C27.2971 11.1937 30.408 12.3975 33.1759 14.2025C32.1469 10.6001 29.9813 7.4335 27.0069 5.18206C24.0324 2.93062 20.411 1.7169 16.6909 1.72459H16.2662C12.6505 1.71382 9.11702 2.81067 6.13407 4.86974C9.64692 1.72036 14.1887 -0.013418 18.8907 9.39938e-05Z" fill="white"/>
</svg>
