<svg width="99" height="99" viewBox="0 0 99 99" fill="none" xmlns="http://www.w3.org/2000/svg">
<path fill-rule="evenodd" clip-rule="evenodd" d="M20.0859 75.3441L24.8476 55.4623L25.1939 54.0391L25.5402 52.5728L29.5226 35.9686L33.7215 34.7179L26.4059 80.3038C24.155 78.8375 22.0339 77.1986 20.0859 75.3441ZM57.7894 84.1853L56.5773 46.5349L61.3822 45.6292L62.8973 62.0177L64.6721 81.2095C62.551 82.4602 60.2135 83.4521 57.7894 84.1853ZM53.5472 14.9224L47.4437 16.6043L47.4869 30.9227L44.933 31.1383L42.5954 85.6948C43.8508 85.8241 45.1494 85.8673 46.4048 85.8673C48.0497 85.8673 49.6513 85.781 51.253 85.5654L51.0365 29.9308L54.0666 30.6208L53.5472 14.9224ZM42.2059 24.2811L37.1412 25.5318L35.756 41.1871L31.6437 82.9777C33.6349 83.7971 35.7127 84.4872 37.8338 85.0047L42.2059 24.2811Z" fill="#FCB813"/>
<path fill-rule="evenodd" clip-rule="evenodd" d="M61.9011 27.9036C64.1088 33.812 65.3642 40.1518 65.5806 46.7934L66.2299 46.966C66.0568 40.3243 64.8014 33.9846 62.637 28.0329C62.334 27.9898 62.1176 27.9467 61.9011 27.9036ZM59.4338 22.2538C60.2129 23.8927 60.9488 25.5315 61.5981 27.2567C61.8146 27.2998 62.0743 27.3429 62.2907 27.386C61.425 25.0571 60.3861 22.8145 59.2606 20.6581L59.4338 22.2538ZM41.2963 7.28857C52.1182 7.28857 61.9877 11.4288 69.3466 18.243C64.6716 14.7065 59.174 12.2051 53.2004 11.1269C54.3258 12.507 55.408 14.0596 56.3603 15.5259L55.4946 15.3534C54.499 13.8871 53.4168 12.3345 52.2913 10.9975C50.3867 10.6957 48.4387 10.5663 46.4475 10.5663C41.0799 10.5663 35.9719 11.6876 31.3402 13.7146C28.1369 19.6231 25.8859 26.1785 24.8037 33.0789C24.5873 33.2083 24.3276 33.2945 24.1111 33.4239C25.1068 26.6097 27.3144 20.0543 30.3878 14.1459C17.4882 20.1406 8.57093 33.2083 8.57093 48.3029C8.57093 69.1335 25.4963 85.9964 46.4042 85.9964C55.9708 85.9964 64.7581 82.46 71.4244 76.5946C63.8924 84.6164 53.1571 89.6192 41.2963 89.6192C18.4838 89.576 0 71.1605 0 48.4323C0 25.7041 18.4838 7.28857 41.2963 7.28857ZM23.4185 42.3082C23.4185 46.8366 23.8947 51.2356 24.847 55.4621L25.1933 54.0389C24.4574 50.2437 24.0246 46.319 24.0246 42.3082C24.0246 39.4186 24.241 36.5722 24.6306 33.7689C24.4142 33.8983 24.1544 33.9846 23.938 34.1139C23.635 36.7878 23.4185 39.548 23.4185 42.3082Z" fill="#0060A1"/>
<path d="M42.2044 24.2808L47.4422 25.1433V30.9655L44.8882 31.1812L42.5507 85.7376C40.949 85.5651 39.3474 85.3063 37.7891 84.9613L41.9014 28.076L41.9447 27.4291L42.2044 24.2808Z" fill="#EC1C24"/>
<path d="M33.7648 34.7173L36.2755 35.7092L31.6437 82.9771C29.8256 82.2008 28.0941 81.3382 26.4492 80.3032L33.7648 34.7173Z" fill="#EC1C24"/>
<path d="M21.5133 69.3486C18.5264 68.3567 15.6262 67.106 12.8125 65.6396C12.9856 65.9847 13.1588 66.2866 13.332 66.5885C15.8859 67.8823 18.5697 69.0036 21.3401 69.9093L21.5133 69.3486Z" fill="#EC1C24"/>
<path d="M36.7951 29.1972C32.5529 30.3185 28.4839 31.8711 24.6313 33.7687L24.3716 33.8981C24.285 33.9412 24.1551 33.9844 24.0686 34.0706C18.3113 37.0896 13.1168 40.9279 8.6582 45.4563C8.70149 45.1544 8.70149 44.8094 8.74478 44.5075C13.3333 39.936 18.6143 36.1407 24.4149 33.2081L24.5447 33.1218C28.3973 31.1811 32.4663 29.6716 36.7518 28.5503L36.7951 29.1972Z" fill="#EC1C24"/>
<path d="M48.8708 0C76.3151 0 98.5216 21.9951 98.5216 49.1655C98.5216 96.1746 38.352 115.798 9.65234 79.3548C17.9203 87.4628 29.3915 92.4656 42.118 92.4656C42.2911 92.4656 42.421 92.4656 42.5941 92.4656C67.3979 92.7675 87.6998 73.015 87.6998 48.4323C87.6998 44.5939 87.2236 40.885 86.2713 37.3485C79.2587 32.6907 71.2072 29.4562 62.5497 28.0329L62.2034 27.9898H62.1601L61.987 27.9467C61.3377 27.8604 60.6883 27.7742 59.9957 27.6879L61.5108 45.6721L64.8439 81.2524C67.2248 79.9154 69.4324 78.3629 71.4669 76.5946L71.5102 76.5515L66.4023 47.0091L66.2291 46.966L65.9694 46.8797L61.4242 45.629L56.6193 46.5347L57.8314 84.1851C55.7103 84.832 53.5459 85.3495 51.2949 85.6083L51.0785 29.9737L54.1086 30.6637L53.5892 14.879L58.9568 16.0435L59.3464 20.5287L59.3897 21.0031L59.8659 26.9116C60.6018 26.9979 61.3376 27.0841 62.0735 27.2135H62.1601L62.3333 27.2566C70.9908 28.6367 79.0423 31.785 86.0548 36.3566C80.7738 17.8548 63.5886 4.31276 43.2002 4.31276C42.9837 4.31276 42.7673 4.31276 42.5509 4.31276C42.421 4.31276 42.2911 4.31276 42.118 4.31276C32.2917 4.31276 23.2446 7.28857 15.7992 12.3776C24.6298 4.70091 36.1876 0 48.8708 0Z" fill="#EC1C24"/>
</svg>
