<svg width="99" height="36" viewBox="0 0 99 36" fill="none" xmlns="http://www.w3.org/2000/svg"><rect x="0.994141" width="123" height="36" rx="18" fill="#EB172B" fill-opacity="0.75"/><path d="M17.2324 13.4805H14.5195V17.1602H13.8105V18.3906H14.5195V22H17.2676C20.0039 22 21.6562 20.2656 21.6562 17.752C21.6562 15.2324 19.9336 13.4805 17.2324 13.4805ZM17.1797 20.7051H15.9668V18.3906H17.4199V17.1602H15.9668V14.7754H17.2617C18.9668 14.7754 20.1621 16.0234 20.1621 17.752C20.1621 19.4395 18.9902 20.6992 17.1855 20.6992L17.1797 20.7051ZM25.9688 15.3906C27.041 15.3906 27.7617 14.6641 27.8379 13.6387H26.7832C26.7598 14.125 26.4316 14.4473 25.9688 14.4473C25.4707 14.4473 25.1777 14.0957 25.1484 13.6387H24.0938C24.1758 14.7754 25.0078 15.3906 25.9688 15.3906ZM27.4863 16.1465V16.8555H27.4629C27.0234 16.334 26.3965 16.0645 25.6523 16.0645C24.041 16.0645 22.8281 17.3301 22.8281 19.1055C22.8281 20.9102 24.041 22.0938 25.6641 22.0938C26.4727 22.0938 27.0996 21.7832 27.5273 21.2207H27.5449V22H28.8281V16.1523L27.4863 16.1465ZM25.875 20.875C24.8848 20.875 24.1934 20.1484 24.1934 19.1113C24.1934 17.9863 24.9434 17.2832 25.8809 17.2832C26.8418 17.2832 27.5391 18.0742 27.5391 19.1055C27.5391 20.166 26.7832 20.875 25.875 20.875ZM33.8438 16.0645C33.0879 16.0645 32.3789 16.375 31.8809 16.9551H31.8633V16.1523H30.5215V22H31.8633V19.0645C31.8633 17.916 32.4727 17.2832 33.3809 17.2832C34.1895 17.2832 34.6523 17.6699 34.6523 18.9062V22.0117H35.9941V18.5605C35.9941 16.8027 35.127 16.0645 33.8438 16.0645ZM41.9062 16.1523V16.7676H41.8828C41.3906 16.2988 40.7402 16.0586 40.0664 16.0586C38.4375 16.0586 37.2773 17.3008 37.2773 19.0117C37.2773 20.752 38.4961 21.9004 40.1367 21.9004C40.8691 21.9004 41.4727 21.6484 41.9121 21.1855H41.9355V21.8066C41.9355 22.5918 41.3438 23.248 40.1895 23.248C39.3633 23.248 38.8359 23.0078 38.2031 22.668L37.8867 23.8574C38.543 24.2441 39.3926 24.4609 40.2715 24.4609C42.4395 24.4609 43.2539 23.1719 43.2539 21.3965V16.1465L41.9062 16.1523ZM40.3184 20.6699C39.375 20.6699 38.6484 20.0254 38.6484 18.9707C38.6484 17.9805 39.3223 17.2891 40.3184 17.2891C41.25 17.2891 41.9707 17.9512 41.9707 18.9531C41.9707 19.9434 41.2969 20.6641 40.3184 20.6641V20.6699ZM50.4902 19.5449L52.0137 22H53.5195L51.3809 18.5195L53.4902 16.1523H51.8965L49.5059 18.8242H49.4883V13.1699H48.1465V22H49.4883V20.6406L50.4668 19.5449H50.4902ZM58.8457 13.5977L57.3691 13.6035L55.9922 15.3379H57.3574L58.8457 13.5977ZM58.4707 16.1523L56.9707 20.1016H56.959L55.3418 16.1523H53.9297L56.3086 21.6777L55.2539 24.373H56.666L59.8828 16.1523H58.4707ZM67.5234 16.0645C66.7676 16.0645 66.0586 16.375 65.5605 16.9551H65.543V16.1523H64.2012V22H65.543V19.0645C65.543 17.916 66.1523 17.2832 67.0605 17.2832C67.8691 17.2832 68.332 17.6699 68.332 18.9062V22.0117H69.6738V18.5605C69.6738 16.8027 68.8066 16.0645 67.5234 16.0645ZM75.5859 16.1523V16.7676H75.5625C75.0703 16.2988 74.4199 16.0586 73.7461 16.0586C72.1172 16.0586 70.957 17.3008 70.957 19.0117C70.957 20.752 72.1758 21.9004 73.8164 21.9004C74.5488 21.9004 75.1523 21.6484 75.5918 21.1855H75.6152V21.8066C75.6152 22.5918 75.0234 23.248 73.8691 23.248C73.043 23.248 72.5156 23.0078 71.8828 22.668L71.5664 23.8574C72.2227 24.2441 73.0723 24.4609 73.9512 24.4609C76.1191 24.4609 76.9336 23.1719 76.9336 21.3965V16.1465L75.5859 16.1523ZM73.998 20.6699C73.0547 20.6699 72.3281 20.0254 72.3281 18.9707C72.3281 17.9805 73.002 17.2891 73.998 17.2891C74.9297 17.2891 75.6504 17.9512 75.6504 18.9531C75.6504 19.9434 74.9766 20.6641 73.998 20.6641V20.6699ZM82.9219 16.1523V16.8555H82.8926C82.4531 16.334 81.8262 16.0645 81.082 16.0645C79.4707 16.0645 78.2578 17.3359 78.2578 19.1055C78.2578 20.916 79.4707 22.0938 81.0938 22.0938C81.9023 22.0938 82.5293 21.7832 82.9629 21.2207H82.9746V22.0059H84.2578V16.1523H82.9219ZM81.3047 20.8809C80.3145 20.8809 79.623 20.1484 79.623 19.1113C79.623 17.9863 80.373 17.2832 81.3105 17.2832C82.2715 17.2832 82.9688 18.0742 82.9688 19.1113C82.9688 20.1719 82.2129 20.8809 81.3047 20.8809ZM89.8535 16.1523L88.3535 20.1016H88.3418L86.7188 16.1523H85.3125L87.6914 21.6777L86.6367 24.373H88.0488L91.2598 16.1523H89.8535Z" fill="white"/></svg>