<svg width="112" height="113" viewBox="0 0 112 113" fill="none" xmlns="http://www.w3.org/2000/svg">
<path d="M15.75 26.5034C20.9514 26.5034 25.2578 22.7175 26.0926 17.7534H46.5254L44.2627 20.0161L46.7373 22.4907L53.2246 16.0034L46.7373 9.51612L44.2627 11.9907L46.5254 14.2534H26.0926C25.2578 9.28935 20.9514 5.50342 15.75 5.50342C9.95099 5.50342 5.25 10.2044 5.25 16.0034C5.25 21.8024 9.95099 26.5034 15.75 26.5034Z" fill="black"/>
<path d="M86.625 14.2534H75.0925C74.2578 9.28935 69.9514 5.50342 64.75 5.50342C58.951 5.50342 54.25 10.2044 54.25 16.0034C54.25 21.8024 58.951 26.5034 64.75 26.5034C69.9514 26.5034 74.2578 22.7175 75.0925 17.7534H86.625C96.7576 17.7534 105 25.9967 105 36.1284C105 46.2601 96.7576 54.5034 86.625 54.5034H58.4746L60.7373 52.2407L58.2627 49.7661L51.7754 56.2534L58.2627 62.7407L60.7373 60.2661L58.4746 58.0034H86.625C98.687 58.0034 108.5 48.1904 108.5 36.1284C108.5 24.0664 98.687 14.2534 86.625 14.2534Z" fill="black"/>
<path d="M96.25 107.003C102.049 107.003 106.75 102.302 106.75 96.5034C106.75 90.7044 102.049 86.0034 96.25 86.0034C90.451 86.0034 85.75 90.7044 85.75 96.5034C85.75 102.302 90.451 107.003 96.25 107.003Z" fill="black"/>
<path d="M47.25 86.0034C41.451 86.0034 36.75 90.7044 36.75 96.5034C36.75 102.302 41.451 107.003 47.25 107.003C52.4514 107.003 56.7578 103.217 57.5926 98.2534H78.0254L75.7627 100.516L78.2373 102.991L84.7246 96.5034L78.2373 90.0161L75.7627 92.4907L78.0254 94.7534H57.5926C56.7578 89.7894 52.4514 86.0034 47.25 86.0034Z" fill="black"/>
<path d="M25.375 98.2534H29.0254L26.7627 100.516L29.2373 102.991L35.7246 96.5034L29.2373 90.0161L26.7627 92.4907L29.0254 94.7534H25.375C15.2424 94.7534 7 86.5101 7 76.3784C7 66.2467 15.2424 58.0034 25.375 58.0034H29.9074C30.7422 62.9675 35.0486 66.7534 40.25 66.7534C46.049 66.7534 50.75 62.0524 50.75 56.2534C50.75 50.4544 46.049 45.7534 40.25 45.7534C35.0486 45.7534 30.7422 49.5394 29.9074 54.5034H25.375C13.313 54.5034 3.5 64.3164 3.5 76.3784C3.5 88.4404 13.313 98.2534 25.375 98.2534Z" fill="black"/>
</svg>
