<svg width="112" height="113" viewBox="0 0 112 113" fill="none" xmlns="http://www.w3.org/2000/svg">
<g clip-path="url(#clip0)">
<path d="M52.2156 41.8917V22.4661C56.7606 21.2983 60.1293 17.1661 60.1293 12.2616C60.1293 6.45285 55.4038 1.72729 49.595 1.72729C43.7866 1.72729 39.061 6.45285 39.061 12.2616C39.061 17.1661 42.4298 21.298 46.9743 22.4657V41.8914C41.4622 42.7209 36.7821 46.1246 34.2009 50.8355L22.6736 41.8743C22.9556 41.0807 23.1103 40.2271 23.1103 39.3382C23.1103 35.1486 19.7018 31.74 15.5122 31.74C11.3227 31.74 7.91406 35.1486 7.91406 39.3382C7.91406 43.5277 11.3227 46.9363 15.5122 46.9363C16.9001 46.9363 18.201 46.5604 19.3219 45.908L32.3518 56.0373C32.1596 57.0755 32.0541 58.1433 32.0541 59.2363C32.0541 63.1288 33.3302 66.7278 35.4837 69.641L20.7511 84.3736C19.7276 85.397 19.7276 87.0564 20.7511 88.0795C21.263 88.5911 21.9338 88.8472 22.6044 88.8472C23.2749 88.8472 23.9458 88.5914 24.4577 88.0795L39.1903 73.3469C41.4367 75.0077 44.0913 76.1465 46.9743 76.5804V96.0494C44.0721 97.1194 41.9969 99.9126 41.9969 103.181C41.9969 107.371 45.4054 110.78 49.595 110.78C53.7845 110.78 57.1931 107.371 57.1931 103.181C57.1931 99.9123 55.1179 97.119 52.2156 96.0494V76.5808C60.6493 75.312 67.1359 68.0179 67.1359 59.2366C67.1359 50.4546 60.6489 43.1605 52.2156 41.8917ZM15.5122 41.6954C14.2124 41.6954 13.1554 40.638 13.1554 39.3385C13.1554 38.039 14.2124 36.9817 15.5122 36.9817C16.812 36.9817 17.869 38.039 17.869 39.3385C17.869 40.638 16.8117 41.6954 15.5122 41.6954ZM44.302 12.2616C44.302 9.34291 46.6763 6.9686 49.5946 6.9686C52.513 6.9686 54.8877 9.34291 54.8877 12.2616C54.8877 15.1803 52.513 17.5546 49.5946 17.5546C46.6763 17.5546 44.302 15.1803 44.302 12.2616ZM49.595 105.538C48.2952 105.538 47.2382 104.481 47.2382 103.181C47.2382 102.044 48.0478 101.092 49.1212 100.872C49.2749 100.901 49.4329 100.918 49.595 100.918C49.7571 100.918 49.9151 100.901 50.0688 100.872C51.1422 101.092 51.9518 102.044 51.9518 103.181C51.9518 104.481 50.8945 105.538 49.595 105.538ZM49.595 71.5355C42.8131 71.5355 37.2958 66.0178 37.2958 59.2359C37.2958 58.0392 37.4708 56.8829 37.7909 55.7882C37.808 55.734 37.8241 55.6802 37.8374 55.6254C39.3835 50.6 44.0689 46.9363 49.595 46.9363C56.3769 46.9363 61.8946 52.454 61.8946 59.2359C61.8946 66.0182 56.3769 71.5355 49.595 71.5355Z" fill="black"/>
<path d="M101.466 33.7812C95.6577 33.7812 90.9321 38.5068 90.9321 44.3156C90.9321 44.5864 90.9458 44.8537 90.966 45.1192L72.0142 51.5811C70.6441 52.0479 69.9121 53.5375 70.3792 54.9072C70.7507 55.997 71.7689 56.6829 72.8594 56.6829C73.14 56.6829 73.4251 56.6375 73.7054 56.5421L92.6565 50.0807C94.5406 52.9501 97.785 54.8502 101.467 54.8502C107.275 54.8502 112.001 50.1247 112.001 44.3159C112 38.5072 107.275 33.7812 101.466 33.7812ZM101.466 49.6089C98.5478 49.6089 96.1734 47.2346 96.1734 44.3159C96.1734 41.3972 98.5481 39.0229 101.466 39.0229C104.385 39.0229 106.759 41.3972 106.759 44.3159C106.759 47.2343 104.385 49.6089 101.466 49.6089Z" fill="black"/>
<path d="M10.5343 87.7622C4.72556 87.7622 0 92.4881 0 98.2965C0 104.105 4.72556 108.831 10.5343 108.831C16.3427 108.831 21.0683 104.105 21.0683 98.2965C21.0686 92.4881 16.3427 87.7622 10.5343 87.7622ZM10.5343 103.59C7.61561 103.59 5.2413 101.216 5.2413 98.2969C5.2413 95.3782 7.61596 93.0039 10.5343 93.0039C13.4527 93.0039 15.827 95.3782 15.827 98.2969C15.8273 101.215 13.453 103.59 10.5343 103.59Z" fill="black"/>
</g>
<defs>
<clipPath id="clip0">
<rect width="112" height="112" fill="white" transform="translate(0 0.253418)"/>
</clipPath>
</defs>
</svg>
