<svg width="113" height="113" viewBox="0 0 113 113" fill="none" xmlns="http://www.w3.org/2000/svg">
<path d="M86.1656 79.4002L81.9768 81.8268C80.8867 80.9718 79.683 80.2725 78.4002 79.7492V74.9202H67.2003V79.7492C65.9178 80.2708 64.7141 80.9681 63.6237 81.8212L63.4669 81.7316V71.1869C63.4669 66.0573 52.827 63.7202 42.9337 63.7202C33.0404 63.7202 22.4004 66.0573 22.4004 71.1869V104.787C22.4004 109.916 33.0404 112.253 42.9337 112.253C52.351 112.253 62.4309 110.129 63.3736 105.496L63.6237 105.352C64.7141 106.205 65.9178 106.903 67.2003 107.424V112.253H78.4002V107.424C79.6827 106.903 80.8864 106.205 81.9768 105.352L86.1656 107.779L91.7655 98.0724L87.5823 95.6569C87.7839 94.2867 87.7839 92.8944 87.5823 91.5241L91.7655 89.1068L86.1656 79.4002ZM59.435 79.4002L56.6704 84.1882C52.2257 85.5687 47.5868 86.2211 42.9337 86.1202C32.0118 86.1202 26.4137 83.3948 26.1337 82.3868V75.7284C26.1598 75.7415 26.1916 75.7509 26.2177 75.7639C26.667 75.9854 27.1479 76.1939 27.6606 76.3892C27.7969 76.4415 27.9462 76.4882 28.0881 76.5405C28.4838 76.6823 28.8908 76.8186 29.3145 76.9455C29.5161 77.0052 29.7196 77.0612 29.9268 77.1172C30.3312 77.2292 30.7462 77.3344 31.1718 77.4327C31.3753 77.4812 31.5769 77.5298 31.7841 77.5727C32.3167 77.6872 32.8605 77.7917 33.4156 77.8863L33.7292 77.9442C34.3937 78.0524 35.0719 78.1483 35.7638 78.2316L36.3612 78.2951C36.867 78.3511 37.3748 78.4015 37.8899 78.4426C38.1307 78.4631 38.3715 78.4818 38.6142 78.4986C39.1163 78.5322 39.6203 78.562 40.1262 78.5844L40.7889 78.6143C41.5057 78.6386 42.2206 78.6535 42.9337 78.6535C43.6467 78.6535 44.3617 78.6386 45.0785 78.6143L45.7411 78.5844C46.247 78.562 46.751 78.5322 47.2531 78.4986C47.4958 78.4818 47.7366 78.4631 47.9774 78.4426C48.4926 78.4015 49.0003 78.3511 49.5062 78.2951L50.1035 78.2316C50.7942 78.147 51.4724 78.0512 52.1382 77.9442L52.4518 77.8863C53.008 77.7905 53.5519 77.686 54.0832 77.5727C54.2904 77.5298 54.492 77.4812 54.6955 77.4327C55.1211 77.3344 55.5361 77.2292 55.9406 77.1172C56.1478 77.0612 56.3512 77.0052 56.5528 76.9455C56.9766 76.8186 57.3835 76.6823 57.7792 76.5405C57.9211 76.4882 58.0704 76.4415 58.2067 76.3892C58.7182 76.1951 59.1991 75.9867 59.6496 75.7639C59.6758 75.7509 59.7075 75.7415 59.7336 75.7284V79.5756L59.435 79.4002ZM42.9337 67.4535C43.6131 67.4535 44.2721 67.4647 44.9123 67.4834C45.1382 67.4834 45.3473 67.5058 45.5694 67.5151C45.9707 67.5319 46.3758 67.5469 46.7603 67.5711C47.0758 67.5917 47.3707 67.6197 47.675 67.6439C47.9457 67.6663 48.235 67.685 48.487 67.7093C48.8603 67.7447 49.2001 67.7877 49.5491 67.8287C49.7264 67.8511 49.9224 67.8679 50.0848 67.8903C50.544 67.9501 50.979 68.0173 51.4046 68.077L51.5539 68.0975C56.7358 68.9581 59.4574 70.4458 59.7243 71.1719C59.7107 71.2043 59.6945 71.2355 59.6758 71.2653C59.6554 71.3058 59.6317 71.3445 59.6048 71.381C59.5768 71.4146 59.5358 71.4501 59.5022 71.4855C59.4686 71.521 59.4144 71.5789 59.3547 71.6293C59.295 71.6797 59.2595 71.7002 59.2128 71.7357C59.1662 71.7711 59.071 71.8439 58.9832 71.9018C58.9291 71.9373 58.86 71.9746 58.7966 72.0119C58.6976 72.0717 58.6099 72.1314 58.4867 72.1986C58.4176 72.2359 58.3336 72.2733 58.2608 72.3106C58.1339 72.3759 58.0107 72.4394 57.867 72.4973L57.6038 72.6093C57.4488 72.6746 57.2976 72.7418 57.1259 72.809C57.0307 72.8463 56.9206 72.8837 56.8198 72.921C56.6331 72.9882 56.4595 73.0554 56.2598 73.1207C56.144 73.1599 56.0134 73.1973 55.8864 73.2365C55.683 73.2999 55.4851 73.3653 55.2667 73.4231C55.1267 73.4642 54.9718 73.5015 54.8262 73.5407C54.6059 73.6005 54.3894 73.6602 54.1542 73.7181C53.988 73.7591 53.8051 73.7965 53.6315 73.8357C53.3982 73.8898 53.1704 73.9439 52.924 73.9943C52.7243 74.0354 52.5078 74.0709 52.2987 74.1101C52.056 74.1549 51.819 74.2034 51.5651 74.2445C51.3112 74.2855 51.076 74.3173 50.8315 74.3546C50.587 74.3919 50.3462 74.4311 50.0848 74.4647C49.8235 74.4983 49.5249 74.5301 49.2374 74.5618C48.9835 74.5898 48.739 74.6215 48.4777 74.6477C48.1603 74.6775 47.8225 74.6999 47.4921 74.7261C47.2438 74.7447 47.0067 74.769 46.7454 74.7858C46.3291 74.8119 45.8923 74.8287 45.4555 74.8455C45.2689 74.8455 45.0822 74.8661 44.8955 74.8735C44.2553 74.8922 43.5889 74.9034 42.9169 74.9034C41.5523 74.9034 40.2699 74.8605 39.0715 74.7839C30.7089 74.2501 26.395 72.0679 26.1225 71.1794C26.4753 70.1509 32.0678 67.4535 42.9337 67.4535ZM26.1337 86.9172C30.1041 88.9201 36.6654 89.8535 42.9337 89.8535C46.652 89.8783 50.3633 89.5256 54.0104 88.8007L53.835 89.1049L58.0182 91.5204C57.9184 92.2047 57.8678 92.8953 57.867 93.5868C57.867 94.0068 57.9211 94.438 57.9603 94.8655C53.1672 96.6848 48.0566 97.5197 42.9337 97.3201C32.0118 97.3201 26.4137 94.5948 26.1337 93.5868V86.9172ZM26.1337 104.787V98.1284C30.1078 100.12 36.6729 101.053 42.9337 101.053C46.9355 101.086 50.9281 100.666 54.8355 99.8009L58.3411 105.877C56.0432 107.064 50.9174 108.52 42.9337 108.52C32.0118 108.52 26.4137 105.795 26.1337 104.787ZM83.6848 90.994C84.1053 92.697 84.1053 94.4767 83.6848 96.1796L83.3656 97.5311L86.6658 99.4369L84.7992 102.67L81.497 100.764L80.4853 101.716C79.2151 102.92 77.6809 103.811 76.0053 104.316L74.6669 104.712V108.52H70.9336V104.712L69.5989 104.316C67.9233 103.811 66.3891 102.92 65.1189 101.716L64.1072 100.764L60.8051 102.67L58.9384 99.4369L62.2387 97.5311L61.9195 96.1796C61.4989 94.4767 61.4989 92.697 61.9195 90.994L62.2387 89.6426L58.9384 87.7367L60.8051 84.5036L64.1072 86.4095L65.1189 85.4575C66.3891 84.2534 67.9233 83.3629 69.5989 82.8572L70.9336 82.4615V78.6535H74.6669V82.4615L76.0016 82.8572C77.6772 83.3629 79.2114 84.2534 80.4816 85.4575L81.4933 86.4095L84.7954 84.5036L86.6621 87.7367L83.3656 89.6426L83.6848 90.994Z" fill="black"/>
<path d="M72.7987 86.1201C71.3219 86.1201 69.8783 86.558 68.6504 87.3785C67.4226 88.1989 66.4655 89.3651 65.9004 90.7294C65.3353 92.0938 65.1874 93.5951 65.4755 95.0435C65.7636 96.4919 66.4747 97.8223 67.519 98.8666C68.5632 99.9108 69.8936 100.622 71.342 100.91C72.7904 101.198 74.2917 101.05 75.6561 100.485C77.0204 99.92 78.1866 98.963 79.007 97.7351C79.8275 96.5072 80.2654 95.0636 80.2654 93.5868C80.2654 91.6065 79.4787 89.7073 78.0784 88.3071C76.6782 86.9068 74.779 86.1201 72.7987 86.1201ZM72.7987 97.3202C72.0603 97.3202 71.3385 97.1012 70.7246 96.691C70.1106 96.2808 69.6321 95.6977 69.3496 95.0155C69.067 94.3333 68.9931 93.5827 69.1371 92.8585C69.2812 92.1343 69.6367 91.4691 70.1588 90.9469C70.681 90.4248 71.3462 90.0693 72.0704 89.9252C72.7946 89.7812 73.5452 89.8551 74.2274 90.1377C74.9096 90.4202 75.4926 90.8987 75.9029 91.5127C76.3131 92.1266 76.532 92.8484 76.532 93.5868C76.532 94.577 76.1387 95.5266 75.4386 96.2267C74.7384 96.9268 73.7889 97.3202 72.7987 97.3202Z" fill="#ED222A"/>
<path d="M67.2007 0.253418H44.8008V37.5868H67.2007V0.253418ZM63.4674 3.98676V26.3868H48.5341V3.98676H63.4674ZM56.0008 33.8535H48.5341V30.1201H63.4674V33.8535H56.0008Z" fill="black"/>
<path d="M57.8661 31.9869C57.8593 31.4926 57.6659 31.0192 57.3248 30.6615C57.1039 30.4458 56.8338 30.2872 56.5378 30.1994C56.2418 30.1115 55.9289 30.0971 55.6261 30.1574C55.5092 30.1778 55.3959 30.2155 55.2901 30.2695C55.1707 30.3106 55.0572 30.3671 54.9523 30.4375C54.8554 30.5069 54.7626 30.5816 54.6741 30.6615C54.3323 31.0187 54.1388 31.4924 54.1328 31.9869C54.1328 32.482 54.3295 32.9568 54.6795 33.3069C55.0296 33.657 55.5044 33.8537 55.9995 33.8537C56.4946 33.8537 56.9693 33.657 57.3194 33.3069C57.6695 32.9568 57.8661 32.482 57.8661 31.9869Z" fill="black"/>
<path d="M20.5341 41.3201H16.8008V52.5201H54.134V59.9868H57.8673V52.5201H95.2006V41.3201H91.4673V48.7867H57.8673V41.3201H54.134V48.7867H20.5341V41.3201Z" fill="black"/>
<path d="M11.2 33.8535H7.46664V37.5868H29.8666V33.8535H26.1333V30.1201H37.3332V0.253418H0V30.1201H11.2V33.8535ZM22.3999 33.8535H14.9333V30.1201H22.3999V33.8535ZM3.73332 3.98676H33.5999V18.9201H3.73332V3.98676ZM3.73332 26.3868V22.6535H33.5999V26.3868H3.73332Z" fill="black"/>
<path d="M74.668 37.5868H112.001V0.253418H74.668V37.5868ZM108.268 33.8535H78.4013V15.1868H108.268V33.8535ZM78.4013 3.98676H108.268V11.4534H78.4013V3.98676Z" fill="black"/>
<path d="M83.1608 6.17086C83.0654 6.09722 82.958 6.0404 82.8435 6.00284C82.7316 5.94609 82.6112 5.90824 82.487 5.89083C82.1871 5.83077 81.877 5.84533 81.5841 5.93322C81.2912 6.02112 81.0243 6.17965 80.807 6.39488C80.6382 6.57337 80.5052 6.78247 80.415 7.01094C80.2695 7.35047 80.2291 7.72579 80.299 8.0885C80.3689 8.4512 80.5458 8.78465 80.807 9.04582C80.9885 9.21058 81.1969 9.34316 81.423 9.43786C81.6465 9.5364 81.888 9.5873 82.1323 9.5873C82.3766 9.5873 82.6181 9.5364 82.8416 9.43786C83.0675 9.34271 83.2758 9.21017 83.4576 9.04582C83.6315 8.8719 83.769 8.66516 83.8623 8.43762C83.9555 8.21007 84.0026 7.96626 84.0008 7.72035C83.9939 7.22607 83.8006 6.75263 83.4595 6.39488C83.3677 6.31041 83.2676 6.23536 83.1608 6.17086Z" fill="black"/>
<path d="M89.0578 6.39485C88.6968 6.06185 88.2236 5.87695 87.7324 5.87695C87.2413 5.87695 86.7681 6.06185 86.4071 6.39485C86.2384 6.57328 86.1053 6.78231 86.0151 7.0107C85.9195 7.23506 85.8687 7.47599 85.8658 7.71987C85.8593 7.96468 85.9105 8.20759 86.0151 8.42903C86.1103 8.65486 86.2428 8.86306 86.4071 9.04488C86.6683 9.306 87.0017 9.48289 87.3643 9.55275C87.727 9.6226 88.1023 9.58221 88.4418 9.43678C88.6677 9.34166 88.8759 9.20917 89.0578 9.04488C89.2221 8.86306 89.3546 8.65486 89.4498 8.42903C89.5483 8.20558 89.5992 7.96406 89.5992 7.71987C89.5992 7.47567 89.5483 7.23415 89.4498 7.0107C89.3551 6.78463 89.2225 6.57636 89.0578 6.39485Z" fill="black"/>
<path d="M94.6587 6.39519C94.4769 6.23084 94.2686 6.09832 94.0427 6.00317C93.7025 5.85313 93.3237 5.81394 92.96 5.89116C92.8431 5.91148 92.7298 5.94924 92.624 6.00317C92.5046 6.04432 92.3911 6.10079 92.2862 6.17118C92.1893 6.24057 92.0965 6.31536 92.008 6.39519C91.8353 6.57053 91.7017 6.78049 91.616 7.01123C91.5176 7.23477 91.4668 7.47635 91.4668 7.72061C91.4668 7.96486 91.5176 8.20644 91.616 8.42999C91.7112 8.65589 91.8437 8.86415 92.008 9.04602C92.1896 9.21077 92.3979 9.34335 92.624 9.43805C92.8485 9.5337 93.0894 9.58444 93.3334 9.58739C93.8283 9.58371 94.3028 9.38988 94.6587 9.04602C94.823 8.86415 94.9556 8.65589 95.0507 8.42999C95.1492 8.20647 95.2001 7.96488 95.2001 7.72061C95.2001 7.47634 95.1492 7.23474 95.0507 7.01123C94.965 6.78049 94.8314 6.57053 94.6587 6.39519Z" fill="black"/>
</svg>
