<svg width="112" height="113" viewBox="0 0 112 113" fill="none" xmlns="http://www.w3.org/2000/svg">
<g clip-path="url(#clip0)">
<path d="M69.0673 93.5867H65.334V112.253H69.0673V93.5867Z" fill="black"/>
<path d="M46.6669 93.5867H42.9336V112.253H46.6669V93.5867Z" fill="black"/>
<path d="M55.9993 52.52C50.8473 52.5261 46.6721 56.7014 46.666 61.8534V65.5867C46.666 70.7413 50.8448 74.92 55.9993 74.92C61.1539 74.92 65.3327 70.7413 65.3327 65.5867V61.8534C65.3266 56.7014 61.1513 52.5261 55.9993 52.52ZM61.5993 65.5867C61.5993 68.6795 59.0922 71.1867 55.9993 71.1867C52.9065 71.1867 50.3993 68.6795 50.3993 65.5867V61.8534C50.3993 58.7605 52.9065 56.2534 55.9993 56.2534C59.0922 56.2534 61.5993 58.7605 61.5993 61.8534V65.5867Z" fill="black"/>
<path d="M98.9333 82.3867H80.2667C78.5822 82.3888 76.9141 82.7159 75.3536 83.3499C72.8763 80.3744 69.205 78.6538 65.3333 78.6533H46.6667C42.795 78.6538 39.1237 80.3744 36.6464 83.3499C35.0859 82.7159 33.4178 82.3888 31.7333 82.3867H13.0667C5.8541 82.396 0.00933333 88.2408 0 95.4533V112.253H3.73333V95.4533C3.7394 90.3013 7.91467 86.1261 13.0667 86.12H20.5333V112.253H24.2667V86.12H31.7333C32.7236 86.1263 33.7066 86.2901 34.6453 86.6053C33.954 88.2219 33.5984 89.9618 33.6 91.72V112.253H37.3333V91.72C37.3394 86.568 41.5147 82.3927 46.6667 82.3867H54.1333V112.253H57.8667V82.3867H65.3333C70.4853 82.3927 74.6606 86.568 74.6667 91.72V112.253H78.4V91.72C78.4016 89.9618 78.046 88.2219 77.3547 86.6053C78.2934 86.2901 79.2764 86.1263 80.2667 86.12H87.7333V112.253H91.4667V86.12H98.9333C104.085 86.1261 108.261 90.3013 108.267 95.4533V112.253H112V95.4533C111.991 88.2408 106.146 82.396 98.9333 82.3867Z" fill="black"/>
<path d="M13.0673 97.3201H9.33398V112.253H13.0673V97.3201Z" fill="black"/>
<path d="M22.3997 56.2534C17.2452 56.2534 13.0664 60.4322 13.0664 65.5868V69.3201C13.0664 74.4747 17.2452 78.6534 22.3997 78.6534C27.5543 78.6534 31.7331 74.4747 31.7331 69.3201V65.5868C31.7331 60.4322 27.5543 56.2534 22.3997 56.2534ZM27.9997 69.3201C27.9997 72.4129 25.4926 74.9201 22.3997 74.9201C19.3069 74.9201 16.7997 72.4129 16.7997 69.3201V65.5868C16.7997 62.4939 19.3069 59.9868 22.3997 59.9868C25.4926 59.9868 27.9997 62.4939 27.9997 65.5868V69.3201Z" fill="black"/>
<path d="M102.667 97.3201H98.9336V112.253H102.667V97.3201Z" fill="black"/>
<path d="M89.6009 56.2534C84.4463 56.2534 80.2676 60.4322 80.2676 65.5868V69.3201C80.2736 74.4721 84.4489 78.6474 89.6009 78.6534C94.7529 78.6474 98.9282 74.4721 98.9342 69.3201V65.5868C98.9342 60.4322 94.7555 56.2534 89.6009 56.2534ZM95.2009 69.3201C95.2009 72.4129 92.6937 74.9201 89.6009 74.9201C86.5081 74.9201 84.0009 72.4129 84.0009 69.3201V65.5868C84.0009 62.4939 86.5081 59.9868 89.6009 59.9868C92.6937 59.9868 95.2009 62.4939 95.2009 65.5868V69.3201Z" fill="black"/>
<path d="M99.8144 46.9201C98.6848 41.5616 96.5701 36.4593 93.5779 31.8729L102.198 23.2545L88.9989 10.0553L80.3805 18.6756C75.7941 15.6833 70.6918 13.5686 65.3333 12.439V0.253418H46.6667V12.4409C41.3103 13.5763 36.2091 15.6898 31.6195 18.6756L23.0011 10.0553L9.80187 23.2545L18.4221 31.8729C15.4299 36.4593 13.3152 41.5616 12.1856 46.9201H0V65.5867H9.33333V61.8534H3.73333V50.6534H15.2936L15.5661 49.1097C16.5914 43.2101 18.9112 37.6108 22.3589 32.7147L23.2587 31.4305L15.0808 23.2545L23.0011 15.3342L31.1733 23.5121L32.4576 22.6142C37.3571 19.1723 42.9548 16.8525 48.8525 15.8195L50.4 15.547V3.98675H61.6V15.547L63.1437 15.8195C69.0433 16.8448 74.6426 19.1646 79.5387 22.6123L80.8229 23.5121L88.9989 15.3342L96.9192 23.2545L88.7413 31.4268L89.6411 32.711C93.0888 37.607 95.4086 43.2063 96.4339 49.1059L96.7064 50.6497H108.267V61.8497H102.667V65.583H112V46.9201H99.8144Z" fill="black"/>
<path d="M53.923 39.5507C47.3402 40.5013 42.1691 45.6725 41.2188 52.255L44.9166 52.7852C45.8063 46.6263 51.5199 42.3549 57.6788 43.2444C62.6222 43.9584 66.5055 47.8418 67.2195 52.7852L70.9155 52.255C69.7314 44.0545 62.1235 38.3666 53.923 39.5507Z" fill="#EF3E45"/>
<path d="M52.0475 28.485C39.72 30.2415 30.0339 39.9276 28.2773 52.2551L31.9752 52.7852C33.8801 39.5193 46.1787 30.3092 59.4448 32.2143C70.1075 33.7455 78.4846 42.1226 80.0158 52.7852H80.0195L83.7173 52.2551C81.5359 36.9459 67.3567 26.3035 52.0475 28.485Z" fill="#ED222A"/>
</g>
<defs>
<clipPath id="clip0">
<rect width="112" height="112" fill="white" transform="translate(0 0.253418)"/>
</clipPath>
</defs>
</svg>
