<svg width="112" height="113" viewBox="0 0 112 113" fill="none" xmlns="http://www.w3.org/2000/svg">
<g clip-path="url(#clip0)">
<path d="M51.6805 76.2177C52.5358 75.3624 52.5358 73.9781 51.6805 73.1227C50.8243 72.27 49.4373 72.27 48.5803 73.1227C47.7258 73.9781 47.7258 75.3624 48.5803 76.2177C49.4373 77.0705 50.8243 77.0705 51.6805 76.2177Z" fill="black"/>
<path d="M41.3047 24.3091C41.3047 37.5734 52.1172 48.3656 65.4074 48.3656C78.6977 48.3656 89.5102 37.5734 89.5102 24.3091C89.5102 11.0448 78.6977 0.253418 65.4074 0.253418C52.1172 0.253418 41.3047 11.0448 41.3047 24.3091ZM85.1283 24.3091C85.1283 35.162 76.2816 43.9915 65.4074 43.9915C54.5333 43.9915 45.6865 35.162 45.6865 24.3091C45.6865 13.457 54.5333 4.62757 65.4074 4.62757C76.2816 4.62757 85.1283 13.457 85.1283 24.3091Z" fill="black"/>
<path d="M25.348 111.607C26.1973 112.461 27.5801 112.47 28.4405 111.625L39.0638 101.179C40.8686 99.3779 41.4174 96.7111 40.6237 94.3928L42.9088 92.1934C44.1391 91.0073 45.759 90.3536 47.4713 90.3536H76.6006C81.7684 90.3536 86.6528 88.3729 90.3557 84.7764C90.5081 84.6285 89.1991 86.1675 110.228 61.083C113.347 57.4001 112.881 51.8699 109.187 48.7535C105.517 45.6662 100.018 46.1097 96.8908 49.7294L83.961 62.9928C82.3283 60.9873 79.8386 59.7372 77.1485 59.7372H52.7145C49.2376 58.2854 45.5484 57.5505 41.7419 57.5505C31.1905 57.5505 21.9773 62.4143 17.033 71.5334C14.9499 71.1395 12.753 71.7684 11.1725 73.3458L0.748717 83.78C-0.10231 84.632 -0.104022 86.0103 0.745293 86.8647L25.348 111.607ZM41.741 61.9238C45.0972 61.9238 48.342 62.598 51.3874 63.9276C51.6648 64.0489 51.9636 64.1113 52.2658 64.1113H77.1485C79.5244 64.1113 81.5312 66.045 81.5312 68.4846C81.5312 70.8968 79.5655 72.8588 77.1485 72.8588H59.271C58.0612 72.8588 57.0801 73.838 57.0801 75.0454C57.0801 76.2537 58.0612 77.232 59.271 77.232H77.1485C81.9816 77.232 85.9131 73.3082 85.9131 68.4846C85.9131 68.1001 85.8857 67.719 85.836 67.3413C98.3438 54.5094 100.107 52.7064 100.183 52.6167C101.744 50.777 104.517 50.5437 106.361 52.0954C108.207 53.6532 108.44 56.4183 106.875 58.2683L87.2213 81.7173C84.3515 84.467 80.5835 85.9803 76.6006 85.9803H47.4713C44.6169 85.9803 41.9148 87.0698 39.8652 89.0463L38.003 90.8398L20.8369 73.7081C24.8489 66.1963 32.3771 61.9238 41.741 61.9238ZM14.2735 76.4365C14.9961 75.7153 16.1057 75.5854 16.9867 76.1289C17.366 76.3596 16.277 75.3701 35.9653 94.9927C36.8412 95.8668 36.7941 97.2596 35.9773 98.0748L26.9208 106.979L5.39084 85.3275L14.2735 76.4365Z" fill="black"/>
<path d="M62.7767 11.1885V13.7511C60.2262 14.6534 58.394 17.0845 58.394 19.9359C58.394 23.553 61.3426 26.4967 64.9676 26.4967C66.1757 26.4967 67.1585 27.4777 67.1585 28.6834C67.1585 29.889 66.1757 30.87 64.9676 30.87C64.0318 30.87 63.0207 30.283 62.1226 29.2157C61.3435 28.2911 59.9616 28.1724 59.0352 28.9491C58.1089 29.7267 57.989 31.1058 58.7681 32.0304C59.9393 33.4207 61.3169 34.3897 62.7767 34.8784V37.4308C62.7767 38.639 63.7578 39.6174 64.9676 39.6174C66.1774 39.6174 67.1585 38.639 67.1585 37.4308V34.8682C69.709 33.965 71.5412 31.5339 71.5412 28.6834C71.5412 25.0654 68.5926 22.1226 64.9676 22.1226C63.7596 22.1226 62.7767 21.1416 62.7767 19.9359C62.7767 18.7302 63.7596 17.7484 64.9676 17.7484C65.7441 17.7484 66.5635 18.144 67.3375 18.8917C68.2073 19.7317 69.5943 19.7086 70.4359 18.8413C71.2775 17.9731 71.2544 16.5889 70.3854 15.7489C69.2733 14.6748 68.1602 14.0673 67.1585 13.7357V11.1885C67.1585 9.98023 66.1774 9.00098 64.9676 9.00098C63.7578 9.00098 62.7767 9.98023 62.7767 11.1885Z" fill="#ED222A"/>
</g>
<defs>
<clipPath id="clip0">
<rect width="112" height="112" fill="white" transform="translate(0 0.253418)"/>
</clipPath>
</defs>
</svg>
