<svg width="112" height="113" viewBox="0 0 112 113" fill="none" xmlns="http://www.w3.org/2000/svg">
<g clip-path="url(#clip0)">
<path d="M39.2381 54.3439C34.9989 49.5559 29.3466 46.9202 23.3192 46.9202C17.2917 46.9202 11.6394 49.5559 7.40211 54.3439C-1.20695 64.0711 -1.20695 79.8948 7.40211 89.622L23.3192 107.604L39.2362 89.622C47.8472 79.8948 47.8472 64.0711 39.2381 54.3439ZM36.4418 87.1468L23.321 101.97L10.1984 87.1468C2.79518 78.786 2.79518 65.1799 10.1984 56.8191C13.717 52.8431 18.3781 50.6535 23.3192 50.6535C28.2602 50.6535 32.9232 52.8431 36.44 56.8191C43.8432 65.1799 43.8432 78.7842 36.4418 87.1468Z" fill="black"/>
<path d="M90.9938 45.9998L103.06 32.3993C109.552 25.082 109.552 13.1801 103.06 5.86275C99.8493 2.24515 95.5634 0.253418 90.992 0.253418C86.4224 0.253418 82.1365 2.24515 78.9258 5.86275C72.4336 13.1801 72.4336 25.082 78.9258 32.3993L90.9938 45.9998ZM81.7184 8.34169C84.2104 5.53235 87.5032 3.98675 90.992 3.98675C94.4826 3.98675 97.7754 5.53235 100.267 8.34169C105.546 14.2908 105.546 23.9713 100.267 29.9204L90.9938 40.3755L81.7184 29.9204C76.4394 23.9713 76.4394 14.2908 81.7184 8.34169Z" fill="black"/>
<path d="M98.192 102.018C97.1859 101.793 96.1872 102.424 95.9614 103.43C95.7467 104.382 95.3304 105.257 94.7238 106.028C94.0872 106.838 94.2254 108.012 95.0374 108.649C95.3808 108.918 95.7859 109.048 96.1891 109.048C96.7435 109.048 97.2904 108.804 97.6582 108.335C98.599 107.141 99.271 105.729 99.6032 104.251C99.8291 103.243 99.1982 102.244 98.192 102.018Z" fill="black"/>
<path d="M59.7227 58.1201C58.9144 58.1182 58.1285 57.9745 57.3856 57.6908C56.4299 57.3268 55.3453 57.8065 54.9757 58.7697C54.6099 59.7329 55.0933 60.8118 56.0547 61.1796C57.2232 61.6238 58.4533 61.8516 59.7189 61.8534H60.3853C61.4176 61.8534 62.252 61.019 62.252 59.9868C62.252 58.9545 61.4176 58.1201 60.3853 58.1201H59.7227Z" fill="black"/>
<path d="M55.2917 46.3154C55.6296 46.3154 55.9693 46.2239 56.2773 46.0335C57.1042 45.5183 58.0189 45.2028 58.9914 45.0946C60.0162 44.9807 60.7554 44.0586 60.6434 43.0338C60.5314 42.009 59.6149 41.2772 58.5826 41.3818C57.0482 41.5516 55.6072 42.0482 54.3005 42.8639C53.425 43.409 53.16 44.5607 53.705 45.4362C54.0597 46.0036 54.6682 46.3154 55.2917 46.3154Z" fill="black"/>
<path d="M33.7191 108.52H29.9858C28.9535 108.52 28.1191 109.354 28.1191 110.387C28.1191 111.419 28.9535 112.253 29.9858 112.253H33.7191C34.7514 112.253 35.5858 111.419 35.5858 110.387C35.5858 109.354 34.7495 108.52 33.7191 108.52Z" fill="black"/>
<path d="M67.1856 74.9202C67.0251 74.9202 66.8664 74.9239 66.7077 74.9314C65.6773 74.9724 64.8784 75.8423 64.9195 76.8727C64.9587 77.877 65.7875 78.6628 66.7824 78.6628C66.8085 78.6628 66.8347 78.6628 66.8608 78.661L70.5176 78.6535C71.5499 78.6535 72.3843 77.8191 72.3843 76.7868C72.3843 75.7546 71.5499 74.9202 70.5176 74.9202H67.1856Z" fill="black"/>
<path d="M66.2514 45.0534H69.9848C71.017 45.0534 71.8514 44.219 71.8514 43.1867C71.8514 42.1545 71.017 41.3201 69.9848 41.3201H66.2514C65.2192 41.3201 64.3848 42.1545 64.3848 43.1867C64.3848 44.219 65.2192 45.0534 66.2514 45.0534Z" fill="black"/>
<path d="M89.185 74.9202C88.1528 74.9202 87.3184 75.7546 87.3184 76.7868C87.3184 77.8191 88.1528 78.6535 89.185 78.6535H92.9184C93.9506 78.6535 94.785 77.8191 94.785 76.7868C94.785 75.7546 93.9506 74.9202 92.9184 74.9202H89.185Z" fill="black"/>
<path d="M95.8534 59.9868C95.8534 58.9545 95.019 58.1201 93.9867 58.1201H90.2534C89.2211 58.1201 88.3867 58.9545 88.3867 59.9868C88.3867 61.0191 89.2211 61.8535 90.2534 61.8535H93.9867C95.0171 61.8535 95.8534 61.0191 95.8534 59.9868Z" fill="black"/>
<path d="M77.9839 78.6535H81.7172C82.7494 78.6535 83.5838 77.8191 83.5838 76.7868C83.5838 75.7546 82.7494 74.9202 81.7172 74.9202H77.9839C76.9516 74.9202 76.1172 75.7546 76.1172 76.7868C76.1172 77.8191 76.9535 78.6535 77.9839 78.6535Z" fill="black"/>
<path d="M81.1859 45.0534C82.2182 45.0534 83.0526 44.219 83.0526 43.1867C83.0526 42.1545 82.2182 41.3201 81.1859 41.3201H77.4526C76.4203 41.3201 75.5859 42.1545 75.5859 43.1867C75.5859 44.219 76.4203 45.0534 77.4526 45.0534H81.1859Z" fill="black"/>
<path d="M67.8549 58.1201C66.8227 58.1201 65.9883 58.9545 65.9883 59.9868C65.9883 61.0191 66.8227 61.8535 67.8549 61.8535H71.5883C72.6205 61.8535 73.4549 61.0191 73.4549 59.9868C73.4549 58.9545 72.6205 58.1201 71.5883 58.1201H67.8549Z" fill="black"/>
<path d="M84.6542 59.9868C84.6542 58.9545 83.8198 58.1201 82.7875 58.1201H79.0542C78.0219 58.1201 77.1875 58.9545 77.1875 59.9868C77.1875 61.0191 78.0219 61.8535 79.0542 61.8535H82.7875C83.8179 61.8535 84.6542 61.0191 84.6542 59.9868Z" fill="black"/>
<path d="M110.928 66.7666C110.763 65.7474 109.802 65.0511 108.788 65.2191C107.769 65.3815 107.077 66.341 107.241 67.3583C107.293 67.6906 107.323 68.0284 107.319 68.3887C107.319 69.0159 107.23 69.6356 107.054 70.233C106.765 71.2223 107.33 72.2602 108.322 72.5495C108.497 72.5999 108.673 72.6242 108.846 72.6242C109.654 72.6242 110.399 72.0978 110.638 71.282C110.913 70.3431 111.053 69.3706 111.053 68.4018C111.056 67.8642 111.015 67.3135 110.928 66.7666Z" fill="black"/>
<path d="M78.518 108.52H74.7846C73.7524 108.52 72.918 109.354 72.918 110.387C72.918 111.419 73.7524 112.253 74.7846 112.253H78.518C79.5502 112.253 80.3846 111.419 80.3846 110.387C80.3846 109.354 79.5484 108.52 78.518 108.52Z" fill="black"/>
<path d="M67.3188 108.52H63.5854C62.5532 108.52 61.7188 109.354 61.7188 110.387C61.7188 111.419 62.5532 112.253 63.5854 112.253H67.3188C68.351 112.253 69.1854 111.419 69.1854 110.387C69.1854 109.354 68.3492 108.52 67.3188 108.52Z" fill="black"/>
<path d="M87.8534 93.5866C87.8534 92.5544 87.019 91.72 85.9867 91.72H82.2534C81.2211 91.72 80.3867 92.5544 80.3867 93.5866C80.3867 94.6189 81.2211 95.4533 82.2534 95.4533H85.9867C87.0171 95.4533 87.8534 94.6189 87.8534 93.5866Z" fill="black"/>
<path d="M76.6542 93.5866C76.6542 92.5544 75.8198 91.72 74.7875 91.72H71.0542C70.0219 91.72 69.1875 92.5544 69.1875 93.5866C69.1875 94.6189 70.0219 95.4533 71.0542 95.4533H74.7875C75.8179 95.4533 76.6542 94.6189 76.6542 93.5866Z" fill="black"/>
<path d="M89.5865 108.52H85.9839C84.9516 108.52 84.1172 109.354 84.1172 110.387C84.1172 111.419 84.9516 112.253 85.9839 112.253L89.6631 112.251L89.7172 110.385V112.251C90.7495 112.251 91.5185 111.417 91.5185 110.385C91.5185 109.354 90.6188 108.52 89.5865 108.52Z" fill="black"/>
<path d="M96.1902 98.6622C96.5934 98.6622 97.0022 98.5316 97.3419 98.2628C98.1539 97.6244 98.292 96.4502 97.6555 95.642C96.7166 94.4492 95.5051 93.4636 94.148 92.7897C93.2203 92.3286 92.104 92.7076 91.6448 93.6297C91.1856 94.5537 91.5627 95.6737 92.4848 96.1329C93.3491 96.5604 94.1219 97.1894 94.7192 97.951C95.0888 98.4177 95.6358 98.6622 96.1902 98.6622Z" fill="black"/>
<path d="M103.309 74.4142C102.509 74.7502 101.661 74.92 100.786 74.92H100.384C99.352 74.92 98.5176 75.7544 98.5176 76.7867C98.5176 77.819 99.352 78.6534 100.384 78.6534H100.786C102.159 78.6534 103.494 78.3846 104.752 77.8563C105.704 77.4568 106.15 76.363 105.751 75.4128C105.353 74.4627 104.252 74.0147 103.309 74.4142Z" fill="black"/>
<path d="M52.3203 55.9828C53.2985 55.6599 53.8323 54.6052 53.5113 53.6252C53.2966 52.97 53.1865 52.2849 53.1865 51.5943C53.1883 51.3124 53.2051 51.0305 53.2387 50.7561C53.3675 49.7332 52.6433 48.798 51.6203 48.6711C50.5657 48.5535 49.6622 49.2703 49.5353 50.2895C49.483 50.7113 49.455 51.1407 49.4531 51.5849C49.4531 52.6825 49.6249 53.7615 49.9627 54.7919C50.2222 55.5777 50.9521 56.0761 51.7361 56.0761C51.9302 56.0761 52.1281 56.0481 52.3203 55.9828Z" fill="black"/>
<path d="M44.9184 108.52H41.185C40.1528 108.52 39.3184 109.354 39.3184 110.387C39.3184 111.419 40.1528 112.253 41.185 112.253H44.9184C45.9506 112.253 46.785 111.419 46.785 110.387C46.785 109.354 45.9488 108.52 44.9184 108.52Z" fill="black"/>
<path d="M63.693 94.6956C64.4023 94.6956 65.0781 94.2905 65.3917 93.6055C65.8191 92.6665 65.4085 91.5596 64.4714 91.1321C63.5959 90.7308 62.8026 90.1279 62.1791 89.3849C61.5146 88.5953 60.3386 88.4927 59.549 89.1572C58.7594 89.8199 58.6567 90.9977 59.3213 91.7873C60.2994 92.9503 61.5426 93.8985 62.9183 94.5257C63.1703 94.6396 63.4335 94.6956 63.693 94.6956Z" fill="black"/>
<path d="M105.925 59.4976C104.593 58.7248 103.137 58.2712 101.6 58.1498C100.576 58.0752 99.6739 58.8349 99.5937 59.8653C99.5134 60.8938 100.281 61.7917 101.309 61.872C102.284 61.9485 103.208 62.236 104.053 62.7269C104.348 62.8986 104.671 62.9789 104.988 62.9789C105.632 62.9789 106.26 62.6448 106.605 62.0493C107.122 61.1589 106.818 60.0165 105.925 59.4976Z" fill="black"/>
<path d="M56.1176 108.52H52.3842C51.352 108.52 50.5176 109.354 50.5176 110.387C50.5176 111.419 51.352 112.253 52.3842 112.253H56.1176C57.1498 112.253 57.9842 111.419 57.9842 110.387C57.9842 109.354 57.148 108.52 56.1176 108.52Z" fill="black"/>
<path d="M60.7682 83.9529C60.953 82.9934 61.3412 82.1067 61.9236 81.3153C62.534 80.4865 62.3567 79.3179 61.526 78.7057C60.6954 78.0971 59.5287 78.2726 58.9164 79.1033C58.0036 80.3465 57.3914 81.7409 57.1002 83.251C56.906 84.2627 57.5687 85.2409 58.5823 85.4369C58.6999 85.4593 58.8194 85.4705 58.9351 85.4705C59.8124 85.4667 60.5946 84.8451 60.7682 83.9529Z" fill="black"/>
<path d="M91.4522 28.2533C97.1119 28.2533 101.719 23.6464 101.719 17.9866C101.719 12.3269 97.1119 7.71997 91.4522 7.71997C85.7925 7.71997 81.1855 12.3269 81.1855 17.9866C81.1855 23.6464 85.7925 28.2533 91.4522 28.2533ZM91.4522 11.4533C95.0549 11.4533 97.9855 14.384 97.9855 17.9866C97.9855 21.5893 95.0549 24.52 91.4522 24.52C87.8495 24.52 84.9189 21.5893 84.9189 17.9866C84.9189 14.384 87.8514 11.4533 91.4522 11.4533Z" fill="#ED222A"/>
<path d="M23.3191 58.1201C17.1423 58.1201 12.1191 63.1433 12.1191 69.3201C12.1191 75.4969 17.1423 80.5201 23.3191 80.5201C29.4959 80.5201 34.5191 75.4969 34.5191 69.3201C34.5191 63.1433 29.4959 58.1201 23.3191 58.1201ZM23.3191 76.7868C19.2013 76.7868 15.8525 73.438 15.8525 69.3201C15.8525 65.2022 19.2013 61.8535 23.3191 61.8535C27.437 61.8535 30.7858 65.2022 30.7858 69.3201C30.7858 73.438 27.437 76.7868 23.3191 76.7868Z" fill="#ED222A"/>
</g>
<defs>
<clipPath id="clip0">
<rect width="112" height="112" fill="white" transform="translate(0 0.253418)"/>
</clipPath>
</defs>
</svg>
