<svg width="77" height="78" viewBox="0 0 77 78" fill="none" xmlns="http://www.w3.org/2000/svg">
<g clip-path="url(#clip0)">
<path d="M57.3646 62.7097L53.9128 53.1641C52.9917 50.6176 49.9638 49.1947 47.413 50.1175L45.8215 50.6932L52.7277 69.7836L54.3187 69.2082C56.9614 68.2521 58.3188 65.3404 57.3646 62.7097Z" fill="#EB172B"/>
<path d="M42.6068 51.7555C40.7429 52.1739 38.8119 51.2172 38.1494 49.3794L31.3273 30.4994C30.662 28.6601 31.5348 26.6881 33.2335 25.8206L26.3432 6.77413C17.716 10.6623 13.3412 20.5634 16.6125 29.607L27.4108 59.479C30.5502 68.1572 39.8615 73.4774 49.4975 70.8027L42.6068 51.7555Z" fill="#EB172B"/>
<path d="M41.0208 17.5085L37.5691 7.96288C36.6479 5.41638 33.62 3.99355 31.0693 4.91633L29.4778 5.49203L36.384 24.5825L37.9749 24.0069C40.6174 23.051 41.9749 20.1394 41.0208 17.5085Z" fill="#EB172B"/>
</g>
<defs>
<clipPath id="clip0">
<rect width="57.7452" height="57.7452" fill="white" transform="translate(24.5078 0.253418) rotate(25.1133)"/>
</clipPath>
</defs>
</svg>
