<svg width="36" height="37" viewBox="0 0 36 37" fill="none" xmlns="http://www.w3.org/2000/svg">
<g clip-path="url(#clip0)">
<path d="M18 36.2534C27.9411 36.2534 36 28.1945 36 18.2534C36 8.31229 27.9411 0.253418 18 0.253418C8.05888 0.253418 0 8.31229 0 18.2534C0 28.1945 8.05888 36.2534 18 36.2534Z" fill="#ED222A"/>
<path d="M13.4004 26.3733L22.6559 35.6289C30.3215 33.5847 35.9998 26.6005 35.9998 18.2535C35.9998 18.0831 35.9998 17.9128 35.9998 17.7424L28.7316 11.0421L13.4004 26.3733Z" fill="#C71F25"/>
<path d="M18.4538 22.2849C19.2488 23.0798 19.2488 24.4426 18.4538 25.2376L16.8071 26.8843C16.0122 27.6792 14.6494 27.6792 13.8545 26.8843L6.64309 19.6161C5.84814 18.8212 5.84814 17.4584 6.64309 16.6634L8.28978 15.0167C9.08473 14.2218 10.4475 14.2218 11.2425 15.0167L18.4538 22.2849Z" fill="white"/>
<path d="M24.7563 9.73599C25.5513 8.94103 26.914 8.94103 27.709 9.73599L29.3557 11.3827C30.1506 12.1776 30.1506 13.5404 29.3557 14.3354L16.8636 26.7707C16.0686 27.5656 14.7058 27.5656 13.9109 26.7707L12.2642 25.124C11.4692 24.329 11.4692 22.9663 12.2642 22.1713L24.7563 9.73599Z" fill="white"/>
</g>
<defs>
<clipPath id="clip0">
<rect width="36" height="36" fill="white" transform="translate(0 0.253418)"/>
</clipPath>
</defs>
</svg>
