<svg width="55" height="56" viewBox="0 0 55 56" fill="none" xmlns="http://www.w3.org/2000/svg">
<g clip-path="url(#clip0)">
<path d="M27.4999 55.2541C12.3365 55.2541 0 42.9174 0 27.7542C0 12.5909 12.3365 0.254395 27.4999 0.254395C42.6638 0.254395 55 12.5911 55 27.7543C55 42.9176 42.6638 55.2541 27.4999 55.2541ZM27.4999 6.92101C16.0119 6.92101 6.66722 16.2663 6.66722 27.7543C6.66722 39.242 16.0119 48.587 27.4999 48.587C38.9884 48.587 48.3328 39.242 48.3328 27.7543C48.3328 16.2662 38.9884 6.92101 27.4999 6.92101Z" fill="#ED222A"/>
<path d="M42.0007 27.7534L40.0011 25.6694H31.1084C30.7424 25.0377 30.2159 24.5115 29.5845 24.1453V11.5038L27.4169 9.87793L25.4165 11.5038V24.1453C24.1719 24.8654 23.334 26.2108 23.334 27.7534C23.334 30.0551 25.1993 31.9195 27.5003 31.9195C29.0425 31.9195 30.3878 31.0814 31.1084 29.837H40.0011L42.0007 27.7534Z" fill="#ED222A"/>
</g>
<defs>
<clipPath id="clip0">
<rect width="55" height="55" fill="white" transform="translate(0 0.253418)"/>
</clipPath>
</defs>
</svg>
