<svg width="35" height="24" viewBox="0 0 35 24" fill="none" xmlns="http://www.w3.org/2000/svg">
<g clip-path="url(#clip0)">
<path d="M33.7325 4.02292C33.3385 2.59935 32.1842 1.47723 30.7203 1.09389C28.0459 0.382233 17.3479 0.382233 17.3479 0.382233C17.3479 0.382233 6.65018 0.382233 3.97568 1.06676C2.54001 1.44985 1.35751 2.5996 0.963524 4.02292C0.259766 6.62312 0.259766 12.0157 0.259766 12.0157C0.259766 12.0157 0.259766 17.4354 0.963524 20.0085C1.35778 21.4318 2.51185 22.5542 3.97595 22.9375C6.67834 23.6491 17.3481 23.6491 17.3481 23.6491C17.3481 23.6491 28.0459 23.6491 30.7203 22.9646C32.1844 22.5815 33.3385 21.4592 33.7328 20.0358C34.4365 17.4354 34.4365 12.0431 34.4365 12.0431C34.4365 12.0431 34.4647 6.62312 33.7325 4.02292Z" fill="#FF0000"/>
<path d="M13.9414 16.9977L22.8374 12.0158L13.9414 7.03394V16.9977Z" fill="white"/>
</g>
<defs>
<clipPath id="clip0">
<rect width="34.1769" height="24" fill="white" transform="translate(0.259766)"/>
</clipPath>
</defs>
</svg>
